{"glyphs":{"0":{"ha":638,"x_min":47,"x_max":589,"o":"m 317 -8 q 125 106 203 -8 q 47 486 47 221 q 125 866 47 751 q 317 981 203 981 q 510 866 432 981 q 589 486 589 751 q 510 106 589 221 q 317 -8 432 -8 m 318 92 q 423 177 378 92 q 468 486 468 263 q 423 795 468 710 q 318 881 378 881 q 213 795 257 881 q 169 486 169 710 q 213 177 169 263 q 318 92 257 92 z "},"1":{"ha":638,"x_min":42,"x_max":575,"o":"m 89 0 q 61 42 61 0 l 61 58 q 89 100 61 100 l 274 100 l 274 849 l 69 815 q 49 841 56 815 q 42 886 42 867 q 67 913 42 906 l 347 975 q 376 967 363 975 q 390 946 390 958 l 390 100 l 547 100 q 575 58 575 100 l 575 42 q 547 0 575 0 l 89 0 z "},"2":{"ha":638,"x_min":38,"x_max":576,"o":"m 65 0 q 45 21 53 0 q 38 61 38 42 q 43 85 38 79 l 369 549 q 435 657 418 619 q 453 739 453 694 q 411 843 453 806 q 297 881 369 881 q 167 844 208 881 q 108 807 125 807 q 80 834 97 807 q 63 878 63 861 q 145 949 63 918 q 301 981 228 981 q 496 919 419 981 q 572 749 572 857 q 557 653 572 697 q 500 546 542 608 q 378 378 458 483 l 190 99 l 549 99 q 576 57 576 99 l 576 42 q 549 0 576 0 l 65 0 z "},"3":{"ha":638,"x_min":33,"x_max":575,"o":"m 281 -8 q 158 4 214 -8 q 67 35 101 17 q 33 71 33 53 q 52 115 33 90 q 82 140 71 140 q 142 116 99 140 q 264 92 186 92 q 389 131 324 92 q 454 286 454 169 q 399 428 454 390 q 256 467 343 467 l 200 467 q 172 508 172 467 l 172 524 q 200 565 172 565 l 250 565 q 388 631 351 565 q 425 746 425 697 q 394 834 425 788 q 269 881 364 881 q 159 858 196 881 q 107 835 122 835 q 78 863 96 835 q 61 907 61 892 q 138 960 61 939 q 275 981 214 981 q 471 918 399 981 q 543 743 543 856 q 499 613 543 658 q 400 543 456 567 l 400 538 q 518 458 461 521 q 575 278 575 394 q 488 64 575 136 q 281 -8 401 -8 z "},"4":{"ha":638,"x_min":17,"x_max":614,"o":"m 435 -3 q 393 28 393 -3 l 393 232 l 50 232 q 28 258 39 232 q 17 303 17 283 q 19 318 17 310 l 392 957 q 411 971 397 967 q 439 975 425 975 l 467 975 q 508 944 508 975 l 508 332 l 586 332 q 614 290 614 332 l 614 274 q 586 232 614 232 l 508 232 l 508 28 q 467 -3 508 -3 l 435 -3 m 142 332 l 393 332 l 393 610 q 397 708 393 671 q 406 779 400 746 l 400 782 l 142 332 z "},"5":{"ha":638,"x_min":50,"x_max":578,"o":"m 281 -8 q 114 20 178 -8 q 50 75 50 49 q 69 119 50 94 q 99 144 88 144 q 158 118 115 144 q 276 92 200 92 q 403 142 347 92 q 458 294 458 193 q 401 438 458 389 q 236 486 344 486 l 132 486 q 93 528 93 486 l 117 931 q 161 972 118 972 l 506 972 q 533 931 533 972 l 533 914 q 506 872 533 872 l 229 872 l 211 586 l 272 586 q 411 561 340 586 q 530 472 482 536 q 578 292 578 408 q 533 110 578 175 q 419 18 488 44 q 281 -8 350 -8 z "},"6":{"ha":638,"x_min":51,"x_max":583,"o":"m 314 -7 q 117 86 183 -7 q 51 338 51 179 q 106 610 51 492 q 236 810 160 729 q 383 933 313 892 q 488 975 454 975 q 522 944 510 975 q 533 901 533 914 q 522 886 533 890 q 305 732 386 828 q 192 517 224 636 q 261 549 221 536 q 350 563 301 563 q 469 528 417 563 q 553 430 522 493 q 583 283 583 367 q 506 71 583 149 q 314 -7 428 -7 m 318 93 q 417 137 369 93 q 465 279 465 181 q 418 420 465 378 q 313 463 371 463 q 233 448 269 463 q 172 418 196 433 q 169 376 169 397 q 168 335 168 354 q 217 140 168 188 q 318 93 267 93 z "},"7":{"ha":638,"x_min":42,"x_max":590,"o":"m 165 -3 q 108 21 108 -3 q 114 42 108 25 l 456 872 l 69 872 q 42 914 42 872 l 42 931 q 69 972 42 972 l 563 972 q 581 947 571 972 q 590 901 590 922 q 588 886 590 894 l 238 19 q 182 -3 229 -3 l 165 -3 z "},"8":{"ha":638,"x_min":56,"x_max":583,"o":"m 317 -8 q 132 59 208 -8 q 56 267 56 126 q 99 432 56 374 q 197 519 142 490 q 119 601 151 550 q 86 738 86 653 q 156 920 86 860 q 322 981 225 981 q 485 925 411 981 q 560 747 560 869 q 522 605 560 660 q 431 522 485 550 q 538 435 492 489 q 583 272 583 382 q 508 64 583 136 q 317 -8 432 -8 m 318 92 q 422 140 379 92 q 464 272 464 189 q 408 405 464 367 q 283 475 351 443 q 205 397 235 444 q 175 274 175 350 q 218 135 175 179 q 318 92 261 92 m 340 568 q 414 638 386 597 q 442 742 442 679 q 406 847 442 814 q 321 881 371 881 q 238 847 272 881 q 203 744 203 814 q 244 632 203 669 q 340 568 285 594 z "},"9":{"ha":638,"x_min":56,"x_max":588,"o":"m 153 -6 q 119 25 131 -6 q 107 68 107 56 q 118 83 107 79 q 335 238 254 142 q 447 453 415 335 q 378 420 418 433 q 289 407 338 407 q 169 442 222 407 q 86 540 117 476 q 56 686 56 603 q 133 899 56 821 q 325 976 211 976 q 522 883 456 976 q 588 632 588 790 q 533 359 588 478 q 403 159 479 240 q 257 36 328 78 q 153 -6 186 -6 m 326 507 q 406 522 369 507 q 467 553 443 538 q 470 594 469 574 q 471 636 471 615 q 422 830 471 783 q 321 876 372 876 q 222 833 271 876 q 174 692 174 789 q 221 549 174 592 q 326 507 268 507 z "},"A":{"ha":701,"x_min":18,"x_max":683,"o":"m 69 -3 q 18 21 18 -3 q 21 39 18 25 l 272 949 q 328 975 281 975 l 372 975 q 428 949 422 975 l 679 39 q 683 21 683 28 q 632 -3 683 -3 l 608 -3 q 558 19 564 -3 l 499 247 l 200 247 l 142 19 q 92 -3 136 -3 l 69 -3 m 232 353 l 468 353 l 369 733 q 360 776 364 753 q 354 818 357 799 l 347 818 q 340 776 343 799 q 331 733 336 753 l 232 353 z "},"Á":{"ha":701,"x_min":18,"x_max":683,"o":"m 69 -3 q 18 21 18 -3 q 21 39 18 25 l 272 949 q 328 975 281 975 l 372 975 q 428 949 422 975 l 679 39 q 683 21 683 28 q 632 -3 683 -3 l 608 -3 q 558 19 564 -3 l 499 247 l 200 247 l 142 19 q 92 -3 136 -3 l 69 -3 m 232 353 l 468 353 l 369 733 q 360 776 364 753 q 354 818 357 799 l 347 818 q 340 776 343 799 q 331 733 336 753 l 232 353 z "},"Ă":{"ha":701,"x_min":18,"x_max":683,"o":"m 69 -3 q 18 21 18 -3 q 21 39 18 25 l 272 949 q 328 975 281 975 l 372 975 q 428 949 422 975 l 679 39 q 683 21 683 28 q 632 -3 683 -3 l 608 -3 q 558 19 564 -3 l 499 247 l 200 247 l 142 19 q 92 -3 136 -3 l 69 -3 m 232 353 l 468 353 l 369 733 q 360 776 364 753 q 354 818 357 799 l 347 818 q 340 776 343 799 q 331 733 336 753 l 232 353 z "},"Ắ":{"ha":682,"x_min":18,"x_max":683,"o":"m 328 1175 q 296 1189 296 1175 q 308 1226 296 1199 q 354 1329 319 1253 q 384 1357 364 1349 q 429 1365 404 1365 q 472 1347 472 1365 q 457 1314 472 1336 q 378 1200 442 1292 q 357 1181 368 1188 q 328 1175 346 1175 m 342 1058 q 225 1094 271 1058 q 179 1190 179 1131 q 184 1215 179 1208 q 201 1221 189 1221 q 221 1213 217 1221 q 233 1186 225 1204 q 269 1148 242 1167 q 342 1129 297 1129 q 414 1149 386 1129 q 449 1186 442 1168 q 460 1211 456 1201 q 481 1221 464 1221 q 503 1190 503 1221 q 457 1094 503 1131 q 342 1058 411 1058 m 69 -3 q 18 21 18 -3 q 21 39 18 25 l 272 949 q 328 975 281 975 l 372 975 q 428 949 422 975 l 679 39 q 683 21 683 28 q 632 -3 683 -3 l 608 -3 q 558 19 564 -3 l 499 247 l 200 247 l 142 19 q 92 -3 136 -3 l 69 -3 m 232 353 l 468 353 l 369 733 q 360 776 364 753 q 354 818 357 799 l 347 818 q 340 776 343 799 q 331 733 336 753 l 232 353 z "},"Ặ":{"ha":701,"x_min":18,"x_max":683,"o":"m 69 -3 q 18 21 18 -3 q 21 39 18 25 l 272 949 q 328 975 281 975 l 372 975 q 428 949 422 975 l 679 39 q 683 21 683 28 q 632 -3 683 -3 l 608 -3 q 558 19 564 -3 l 499 247 l 200 247 l 142 19 q 92 -3 136 -3 l 69 -3 m 232 353 l 468 353 l 369 733 q 360 776 364 753 q 354 818 357 799 l 347 818 q 340 776 343 799 q 331 733 336 753 l 232 353 z "},"Ằ":{"ha":682,"x_min":18,"x_max":683,"o":"m 374 1175 q 344 1181 357 1175 q 324 1200 332 1188 q 249 1314 264 1292 q 235 1347 235 1336 q 279 1365 235 1365 q 324 1357 303 1365 q 353 1329 344 1349 q 395 1226 385 1253 q 406 1189 406 1199 q 374 1175 406 1175 m 342 1058 q 225 1094 271 1058 q 179 1190 179 1131 q 184 1215 179 1208 q 201 1221 189 1221 q 221 1213 217 1221 q 233 1186 225 1204 q 269 1148 242 1167 q 342 1129 297 1129 q 414 1149 386 1129 q 449 1186 442 1168 q 460 1211 456 1201 q 481 1221 464 1221 q 503 1190 503 1221 q 457 1094 503 1131 q 342 1058 411 1058 m 69 -3 q 18 21 18 -3 q 21 39 18 25 l 272 949 q 328 975 281 975 l 372 975 q 428 949 422 975 l 679 39 q 683 21 683 28 q 632 -3 683 -3 l 608 -3 q 558 19 564 -3 l 499 247 l 200 247 l 142 19 q 92 -3 136 -3 l 69 -3 m 232 353 l 468 353 l 369 733 q 360 776 364 753 q 354 818 357 799 l 347 818 q 340 776 343 799 q 331 733 336 753 l 232 353 z "},"Ẳ":{"ha":682,"x_min":18,"x_max":683,"o":"m 343 1185 q 292 1213 292 1185 q 326 1243 292 1224 q 369 1294 369 1267 q 318 1332 369 1332 q 273 1323 286 1332 q 254 1314 260 1314 q 233 1332 246 1314 q 221 1360 221 1350 q 257 1386 221 1374 q 329 1399 293 1399 q 406 1378 364 1399 q 449 1304 449 1358 q 433 1251 449 1272 q 400 1215 418 1231 q 368 1194 386 1203 q 343 1185 350 1185 m 342 1058 q 225 1094 271 1058 q 179 1190 179 1131 q 184 1215 179 1208 q 201 1221 189 1221 q 221 1213 217 1221 q 233 1186 225 1204 q 269 1148 242 1167 q 342 1129 297 1129 q 414 1149 386 1129 q 449 1186 442 1168 q 460 1211 456 1201 q 481 1221 464 1221 q 503 1190 503 1221 q 457 1094 503 1131 q 342 1058 411 1058 m 69 -3 q 18 21 18 -3 q 21 39 18 25 l 272 949 q 328 975 281 975 l 372 975 q 428 949 422 975 l 679 39 q 683 21 683 28 q 632 -3 683 -3 l 608 -3 q 558 19 564 -3 l 499 247 l 200 247 l 142 19 q 92 -3 136 -3 l 69 -3 m 232 353 l 468 353 l 369 733 q 360 776 364 753 q 354 818 357 799 l 347 818 q 340 776 343 799 q 331 733 336 753 l 232 353 z "},"Ẵ":{"ha":682,"x_min":18,"x_max":683,"o":"m 181 1268 l 168 1274 q 156 1290 156 1281 q 160 1308 156 1297 q 203 1383 178 1361 q 264 1404 229 1404 q 348 1376 304 1404 q 425 1349 392 1349 q 472 1385 453 1349 q 497 1406 483 1406 q 511 1401 503 1406 l 519 1397 q 535 1381 535 1389 q 534 1372 535 1376 q 531 1361 533 1367 q 485 1288 511 1308 q 426 1267 460 1267 q 339 1294 383 1267 q 263 1322 294 1322 q 239 1314 249 1322 q 217 1285 229 1306 q 194 1265 206 1265 q 181 1268 192 1265 m 342 1044 q 225 1081 271 1044 q 179 1176 179 1117 q 184 1201 179 1194 q 201 1207 189 1207 q 221 1199 217 1207 q 233 1172 225 1190 q 269 1134 242 1153 q 342 1115 297 1115 q 414 1135 386 1115 q 449 1172 442 1154 q 460 1197 456 1188 q 481 1207 464 1207 q 503 1176 503 1207 q 457 1081 503 1117 q 342 1044 411 1044 m 69 -3 q 18 21 18 -3 q 21 39 18 25 l 272 949 q 328 975 281 975 l 372 975 q 428 949 422 975 l 679 39 q 683 21 683 28 q 632 -3 683 -3 l 608 -3 q 558 19 564 -3 l 499 247 l 200 247 l 142 19 q 92 -3 136 -3 l 69 -3 m 232 353 l 468 353 l 369 733 q 360 776 364 753 q 354 818 357 799 l 347 818 q 340 776 343 799 q 331 733 336 753 l 232 353 z "},"Â":{"ha":701,"x_min":18,"x_max":683,"o":"m 69 -3 q 18 21 18 -3 q 21 39 18 25 l 272 949 q 328 975 281 975 l 372 975 q 428 949 422 975 l 679 39 q 683 21 683 28 q 632 -3 683 -3 l 608 -3 q 558 19 564 -3 l 499 247 l 200 247 l 142 19 q 92 -3 136 -3 l 69 -3 m 232 353 l 468 353 l 369 733 q 360 776 364 753 q 354 818 357 799 l 347 818 q 340 776 343 799 q 331 733 336 753 l 232 353 z "},"Ấ":{"ha":682,"x_min":18,"x_max":683,"o":"m 476 1179 q 444 1193 444 1179 q 456 1230 444 1203 q 503 1333 467 1257 q 533 1361 513 1353 q 578 1369 553 1369 q 621 1351 621 1369 q 606 1319 621 1342 q 526 1204 590 1296 q 506 1185 517 1192 q 476 1179 494 1179 m 225 1046 q 199 1064 199 1046 q 206 1090 199 1076 l 272 1213 q 296 1235 281 1228 q 329 1243 311 1243 l 351 1243 q 386 1235 372 1243 q 408 1213 400 1228 l 475 1090 q 485 1067 485 1071 q 457 1046 485 1046 l 431 1046 q 394 1064 407 1046 l 340 1167 l 286 1064 q 271 1049 281 1051 q 250 1046 261 1046 l 225 1046 m 69 -3 q 18 21 18 -3 q 21 39 18 25 l 272 949 q 328 975 281 975 l 372 975 q 428 949 422 975 l 679 39 q 683 21 683 28 q 632 -3 683 -3 l 608 -3 q 558 19 564 -3 l 499 247 l 200 247 l 142 19 q 92 -3 136 -3 l 69 -3 m 232 353 l 468 353 l 369 733 q 360 776 364 753 q 354 818 357 799 l 347 818 q 340 776 343 799 q 331 733 336 753 l 232 353 z "},"Ậ":{"ha":701,"x_min":18,"x_max":683,"o":"m 69 -3 q 18 21 18 -3 q 21 39 18 25 l 272 949 q 328 975 281 975 l 372 975 q 428 949 422 975 l 679 39 q 683 21 683 28 q 632 -3 683 -3 l 608 -3 q 558 19 564 -3 l 499 247 l 200 247 l 142 19 q 92 -3 136 -3 l 69 -3 m 232 353 l 468 353 l 369 733 q 360 776 364 753 q 354 818 357 799 l 347 818 q 340 776 343 799 q 331 733 336 753 l 232 353 z "},"Ầ":{"ha":682,"x_min":18,"x_max":683,"o":"m 522 1179 q 493 1185 506 1179 q 472 1204 481 1192 q 398 1319 413 1296 q 383 1351 383 1342 q 428 1369 383 1369 q 472 1361 451 1369 q 501 1333 493 1353 q 544 1230 533 1257 q 554 1193 554 1203 q 522 1179 554 1179 m 225 1046 q 199 1064 199 1046 q 206 1090 199 1076 l 272 1213 q 296 1235 281 1228 q 329 1243 311 1243 l 351 1243 q 386 1235 372 1243 q 408 1213 400 1228 l 475 1090 q 485 1067 485 1071 q 457 1046 485 1046 l 431 1046 q 394 1064 407 1046 l 340 1167 l 286 1064 q 271 1049 281 1051 q 250 1046 261 1046 l 225 1046 m 69 -3 q 18 21 18 -3 q 21 39 18 25 l 272 949 q 328 975 281 975 l 372 975 q 428 949 422 975 l 679 39 q 683 21 683 28 q 632 -3 683 -3 l 608 -3 q 558 19 564 -3 l 499 247 l 200 247 l 142 19 q 92 -3 136 -3 l 69 -3 m 232 353 l 468 353 l 369 733 q 360 776 364 753 q 354 818 357 799 l 347 818 q 340 776 343 799 q 331 733 336 753 l 232 353 z "},"Ẩ":{"ha":682,"x_min":18,"x_max":683,"o":"m 492 1189 q 440 1217 440 1189 q 475 1247 440 1228 q 518 1299 518 1271 q 467 1336 518 1336 q 422 1327 435 1336 q 403 1318 408 1318 q 382 1335 394 1318 q 369 1364 369 1353 q 406 1390 369 1378 q 478 1403 442 1403 q 556 1383 514 1403 q 597 1308 597 1363 q 582 1255 597 1276 q 549 1219 567 1233 q 515 1198 533 1207 q 492 1189 497 1189 m 225 1046 q 199 1064 199 1046 q 206 1090 199 1076 l 272 1213 q 296 1235 281 1228 q 329 1243 311 1243 l 351 1243 q 386 1235 372 1243 q 408 1213 400 1228 l 475 1090 q 485 1067 485 1071 q 457 1046 485 1046 l 431 1046 q 394 1064 407 1046 l 340 1167 l 286 1064 q 271 1049 281 1051 q 250 1046 261 1046 l 225 1046 m 69 -3 q 18 21 18 -3 q 21 39 18 25 l 272 949 q 328 975 281 975 l 372 975 q 428 949 422 975 l 679 39 q 683 21 683 28 q 632 -3 683 -3 l 608 -3 q 558 19 564 -3 l 499 247 l 200 247 l 142 19 q 92 -3 136 -3 l 69 -3 m 232 353 l 468 353 l 369 733 q 360 776 364 753 q 354 818 357 799 l 347 818 q 340 776 343 799 q 331 733 336 753 l 232 353 z "},"Ẫ":{"ha":682,"x_min":18,"x_max":683,"o":"m 181 1250 l 168 1256 q 156 1272 156 1261 q 160 1290 156 1281 q 203 1365 178 1343 q 264 1386 229 1386 q 348 1358 304 1386 q 425 1331 392 1331 q 450 1338 439 1331 q 472 1367 461 1346 q 497 1388 483 1388 q 511 1383 503 1388 l 519 1379 q 535 1363 535 1372 q 534 1354 535 1358 q 531 1343 533 1350 q 485 1270 511 1292 q 426 1249 460 1249 q 339 1276 383 1249 q 263 1304 294 1304 q 239 1296 249 1304 q 217 1267 229 1288 q 194 1247 206 1247 q 181 1250 192 1247 m 225 1046 q 199 1065 199 1046 q 208 1090 199 1071 l 272 1182 q 331 1213 296 1213 l 353 1213 q 411 1182 389 1213 l 475 1090 q 485 1065 485 1075 q 458 1046 485 1046 l 432 1046 q 410 1051 419 1046 q 394 1064 400 1056 l 340 1144 l 289 1064 q 274 1051 283 1056 q 251 1046 265 1046 l 225 1046 m 69 -3 q 18 21 18 -3 q 21 39 18 25 l 272 949 q 328 975 281 975 l 372 975 q 428 949 422 975 l 679 39 q 683 21 683 28 q 632 -3 683 -3 l 608 -3 q 558 19 564 -3 l 499 247 l 200 247 l 142 19 q 92 -3 136 -3 l 69 -3 m 232 353 l 468 353 l 369 733 q 360 776 364 753 q 354 818 357 799 l 347 818 q 340 776 343 799 q 331 733 336 753 l 232 353 z "},"Ä":{"ha":701,"x_min":18,"x_max":683,"o":"m 69 -3 q 18 21 18 -3 q 21 39 18 25 l 272 949 q 328 975 281 975 l 372 975 q 428 949 422 975 l 679 39 q 683 21 683 28 q 632 -3 683 -3 l 608 -3 q 558 19 564 -3 l 499 247 l 200 247 l 142 19 q 92 -3 136 -3 l 69 -3 m 232 353 l 468 353 l 369 733 q 360 776 364 753 q 354 818 357 799 l 347 818 q 340 776 343 799 q 331 733 336 753 l 232 353 z "},"Ạ":{"ha":701,"x_min":18,"x_max":683,"o":"m 69 -3 q 18 21 18 -3 q 21 39 18 25 l 272 949 q 328 975 281 975 l 372 975 q 428 949 422 975 l 679 39 q 683 21 683 28 q 632 -3 683 -3 l 608 -3 q 558 19 564 -3 l 499 247 l 200 247 l 142 19 q 92 -3 136 -3 l 69 -3 m 232 353 l 468 353 l 369 733 q 360 776 364 753 q 354 818 357 799 l 347 818 q 340 776 343 799 q 331 733 336 753 l 232 353 z "},"À":{"ha":701,"x_min":18,"x_max":683,"o":"m 69 -3 q 18 21 18 -3 q 21 39 18 25 l 272 949 q 328 975 281 975 l 372 975 q 428 949 422 975 l 679 39 q 683 21 683 28 q 632 -3 683 -3 l 608 -3 q 558 19 564 -3 l 499 247 l 200 247 l 142 19 q 92 -3 136 -3 l 69 -3 m 232 353 l 468 353 l 369 733 q 360 776 364 753 q 354 818 357 799 l 347 818 q 340 776 343 799 q 331 733 336 753 l 232 353 z "},"Ả":{"ha":701,"x_min":18,"x_max":683,"o":"m 69 -3 q 18 21 18 -3 q 21 39 18 25 l 272 949 q 328 975 281 975 l 372 975 q 428 949 422 975 l 679 39 q 683 21 683 28 q 632 -3 683 -3 l 608 -3 q 558 19 564 -3 l 499 247 l 200 247 l 142 19 q 92 -3 136 -3 l 69 -3 m 232 353 l 468 353 l 369 733 q 360 776 364 753 q 354 818 357 799 l 347 818 q 340 776 343 799 q 331 733 336 753 l 232 353 m 361 1028 q 333 1035 351 1028 q 315 1051 315 1042 q 358 1104 315 1082 q 401 1179 401 1126 q 350 1217 401 1217 q 305 1208 318 1217 q 286 1199 292 1199 q 265 1217 278 1199 q 253 1244 253 1235 q 289 1273 253 1258 q 361 1288 325 1288 q 442 1267 396 1288 q 488 1189 488 1246 q 460 1107 488 1143 q 401 1049 432 1071 q 361 1028 369 1028 z "},"Ā":{"ha":701,"x_min":18,"x_max":683,"o":"m 69 -3 q 18 21 18 -3 q 21 39 18 25 l 272 949 q 328 975 281 975 l 372 975 q 428 949 422 975 l 679 39 q 683 21 683 28 q 632 -3 683 -3 l 608 -3 q 558 19 564 -3 l 499 247 l 200 247 l 142 19 q 92 -3 136 -3 l 69 -3 m 232 353 l 468 353 l 369 733 q 360 776 364 753 q 354 818 357 799 l 347 818 q 340 776 343 799 q 331 733 336 753 l 232 353 z "},"Ą":{"ha":701,"x_min":18,"x_max":743,"o":"m 69 -3 q 18 21 18 -3 q 21 39 18 25 l 272 949 q 328 975 281 975 l 372 975 q 428 949 422 975 l 679 39 q 683 21 683 28 q 632 -3 683 -3 l 608 -3 q 558 19 564 -3 l 499 247 l 200 247 l 142 19 q 92 -3 136 -3 l 69 -3 m 232 353 l 468 353 l 369 733 q 360 776 364 753 q 354 818 357 799 l 347 818 q 340 776 343 799 q 331 733 336 753 l 232 353 m 633 -240 q 526 -192 547 -240 q 506 -118 506 -144 q 519 -44 506 -90 q 567 42 532 1 l 626 19 q 599 -42 607 -11 q 590 -93 590 -72 q 614 -143 590 -133 q 660 -153 638 -153 q 690 -148 674 -153 q 715 -143 706 -143 q 743 -176 743 -143 q 725 -214 743 -201 q 633 -240 686 -240 z "},"Å":{"ha":701,"x_min":18,"x_max":683,"o":"m 69 -3 q 18 21 18 -3 q 21 39 18 25 l 272 949 q 328 975 281 975 l 372 975 q 428 949 422 975 l 679 39 q 683 21 683 28 q 632 -3 683 -3 l 608 -3 q 558 19 564 -3 l 499 247 l 200 247 l 142 19 q 92 -3 136 -3 l 69 -3 m 232 353 l 468 353 l 369 733 q 360 776 364 753 q 354 818 357 799 l 347 818 q 340 776 343 799 q 331 733 336 753 l 232 353 z "},"Ǻ":{"ha":701,"x_min":18,"x_max":683,"o":"m 347 1210 q 315 1224 315 1210 q 327 1260 315 1233 q 374 1364 339 1288 q 403 1392 383 1383 q 449 1400 424 1400 q 492 1382 492 1400 q 476 1349 492 1372 q 397 1235 460 1326 q 376 1216 388 1222 q 347 1210 365 1210 m 69 -3 q 18 21 18 -3 q 21 39 18 25 l 272 949 q 328 975 281 975 l 372 975 q 428 949 422 975 l 679 39 q 683 21 683 28 q 632 -3 683 -3 l 608 -3 q 558 19 564 -3 l 499 247 l 200 247 l 142 19 q 92 -3 136 -3 l 69 -3 m 232 353 l 468 353 l 369 733 q 360 776 364 753 q 354 818 357 799 l 347 818 q 340 776 343 799 q 331 733 336 753 l 232 353 m 351 939 q 268 971 300 939 q 236 1056 236 1003 q 268 1141 236 1108 q 351 1174 300 1174 q 435 1141 403 1174 q 468 1056 468 1108 q 435 971 468 1003 q 351 939 403 939 m 351 988 q 417 1056 417 988 q 351 1125 417 1125 q 286 1056 289 1125 q 351 988 289 988 z "},"Ã":{"ha":701,"x_min":18,"x_max":683,"o":"m 69 -3 q 18 21 18 -3 q 21 39 18 25 l 272 949 q 328 975 281 975 l 372 975 q 428 949 422 975 l 679 39 q 683 21 683 28 q 632 -3 683 -3 l 608 -3 q 558 19 564 -3 l 499 247 l 200 247 l 142 19 q 92 -3 136 -3 l 69 -3 m 232 353 l 468 353 l 369 733 q 360 776 364 753 q 354 818 357 799 l 347 818 q 340 776 343 799 q 331 733 336 753 l 232 353 z "},"Æ":{"ha":1036,"x_min":1,"x_max":942,"o":"m 54 -3 q 1 21 1 -3 q 7 43 1 32 l 363 935 q 411 972 378 972 l 914 972 q 940 931 940 972 l 940 908 q 914 867 940 867 l 531 867 l 579 550 l 882 550 q 908 508 908 550 l 908 486 q 882 444 908 444 l 596 444 l 649 106 l 915 106 q 942 64 942 106 l 942 42 q 915 0 942 0 l 578 0 q 538 40 543 0 l 507 247 l 207 247 l 119 19 q 74 -3 111 -3 l 54 -3 m 251 351 l 489 351 l 432 731 l 429 811 l 426 811 l 400 731 l 251 351 z "},"Ǽ":{"ha":1036,"x_min":1,"x_max":942,"o":"m 54 -3 q 1 21 1 -3 q 7 43 1 32 l 363 935 q 411 972 378 972 l 914 972 q 940 931 940 972 l 940 908 q 914 867 940 867 l 531 867 l 579 550 l 882 550 q 908 508 908 550 l 908 486 q 882 444 908 444 l 596 444 l 649 106 l 915 106 q 942 64 942 106 l 942 42 q 915 0 942 0 l 578 0 q 538 40 543 0 l 507 247 l 207 247 l 119 19 q 74 -3 111 -3 l 54 -3 m 251 351 l 489 351 l 432 731 l 429 811 l 426 811 l 400 731 l 251 351 z "},"B":{"ha":749,"x_min":108,"x_max":683,"o":"m 147 0 q 108 42 108 0 l 108 931 q 147 972 108 972 l 388 972 q 586 904 522 972 q 650 726 650 836 q 612 594 650 657 q 525 515 574 532 l 525 510 q 580 483 542 504 q 651 415 618 463 q 683 279 683 367 q 608 67 683 135 q 388 0 532 0 l 147 0 m 233 106 l 413 106 q 518 154 481 106 q 556 285 556 203 q 514 404 556 361 q 393 447 472 447 l 233 447 l 233 106 m 233 553 l 378 553 q 481 600 442 553 q 521 715 521 647 q 375 867 521 867 l 233 867 l 233 553 z "},"C":{"ha":638,"x_min":68,"x_max":611,"o":"m 429 -8 q 156 112 244 -8 q 68 486 68 232 q 158 860 68 739 q 431 981 249 981 q 507 973 469 981 q 571 954 544 965 q 590 940 585 949 q 594 917 594 932 q 585 867 594 904 q 551 843 575 829 q 501 863 531 853 q 431 872 471 872 q 254 780 311 872 q 197 488 197 688 q 429 100 197 100 q 504 110 472 100 q 560 135 536 121 q 599 117 586 147 q 611 67 611 86 q 605 42 611 54 q 578 21 599 31 q 517 1 557 11 q 429 -8 478 -8 z "},"Ć":{"ha":638,"x_min":68,"x_max":611,"o":"m 429 -8 q 156 112 244 -8 q 68 486 68 232 q 158 860 68 739 q 431 981 249 981 q 507 973 469 981 q 571 954 544 965 q 590 940 585 949 q 594 917 594 932 q 585 867 594 904 q 551 843 575 829 q 501 863 531 853 q 431 872 471 872 q 254 780 311 872 q 197 488 197 688 q 429 100 197 100 q 504 110 472 100 q 560 135 536 121 q 599 117 586 147 q 611 67 611 86 q 605 42 611 54 q 578 21 599 31 q 517 1 557 11 q 429 -8 478 -8 z "},"Č":{"ha":638,"x_min":68,"x_max":611,"o":"m 429 -8 q 156 112 244 -8 q 68 486 68 232 q 158 860 68 739 q 431 981 249 981 q 507 973 469 981 q 571 954 544 965 q 590 940 585 949 q 594 917 594 932 q 585 867 594 904 q 551 843 575 829 q 501 863 531 853 q 431 872 471 872 q 254 780 311 872 q 197 488 197 688 q 429 100 197 100 q 504 110 472 100 q 560 135 536 121 q 599 117 586 147 q 611 67 611 86 q 605 42 611 54 q 578 21 599 31 q 517 1 557 11 q 429 -8 478 -8 z "},"Ç":{"ha":638,"x_min":68,"x_max":611,"o":"m 429 -8 q 156 112 244 -8 q 68 486 68 232 q 158 860 68 739 q 431 981 249 981 q 507 973 469 981 q 571 954 544 965 q 590 940 585 949 q 594 917 594 932 q 585 867 594 904 q 551 843 575 829 q 501 863 531 853 q 431 872 471 872 q 254 780 311 872 q 197 488 197 688 q 429 100 197 100 q 504 110 472 100 q 560 135 536 121 q 599 117 586 147 q 611 67 611 86 q 605 42 611 54 q 578 21 599 31 q 517 1 557 11 q 429 -8 478 -8 z "},"Ĉ":{"ha":638,"x_min":68,"x_max":611,"o":"m 429 -8 q 156 112 244 -8 q 68 486 68 232 q 158 860 68 739 q 431 981 249 981 q 507 973 469 981 q 571 954 544 965 q 590 940 585 949 q 594 917 594 932 q 585 867 594 904 q 551 843 575 829 q 501 863 531 853 q 431 872 471 872 q 254 780 311 872 q 197 488 197 688 q 429 100 197 100 q 504 110 472 100 q 560 135 536 121 q 599 117 586 147 q 611 67 611 86 q 605 42 611 54 q 578 21 599 31 q 517 1 557 11 q 429 -8 478 -8 z "},"Ċ":{"ha":638,"x_min":68,"x_max":611,"o":"m 429 -8 q 156 112 244 -8 q 68 486 68 232 q 158 860 68 739 q 431 981 249 981 q 507 973 469 981 q 571 954 544 965 q 590 940 585 949 q 594 917 594 932 q 585 867 594 904 q 551 843 575 829 q 501 863 531 853 q 431 872 471 872 q 254 780 311 872 q 197 488 197 688 q 429 100 197 100 q 504 110 472 100 q 560 135 536 121 q 599 117 586 147 q 611 67 611 86 q 605 42 611 54 q 578 21 599 31 q 517 1 557 11 q 429 -8 478 -8 z "},"D":{"ha":801,"x_min":108,"x_max":728,"o":"m 146 0 q 108 42 108 0 l 108 931 q 146 972 108 972 l 379 972 q 631 864 533 972 q 728 486 728 756 q 631 108 728 215 q 379 0 533 0 l 146 0 m 235 106 l 376 106 q 538 192 475 106 q 600 486 600 278 q 538 780 600 693 q 376 867 475 867 l 235 867 l 235 106 z "},"Ǳ":{"ha":1506,"x_min":108,"x_max":1449,"o":"m 146 0 q 108 42 108 0 l 108 931 q 146 972 108 972 l 379 972 q 631 864 533 972 q 728 486 728 756 q 631 108 728 215 q 379 0 533 0 l 146 0 m 235 106 l 376 106 q 538 192 475 106 q 600 486 600 278 q 538 780 600 693 q 376 867 475 867 l 235 867 l 235 106 m 882 0 q 860 26 871 0 q 849 74 849 53 q 851 90 849 82 l 1297 867 l 910 867 q 885 914 885 867 l 885 925 q 910 972 885 972 l 1418 972 q 1438 947 1428 972 q 1449 899 1449 921 q 1447 882 1449 886 l 1004 106 l 1422 106 q 1449 58 1449 106 l 1449 47 q 1422 0 1449 0 l 882 0 z "},"Ǆ":{"ha":1506,"x_min":108,"x_max":1449,"o":"m 146 0 q 108 42 108 0 l 108 931 q 146 972 108 972 l 379 972 q 631 864 533 972 q 728 486 728 756 q 631 108 728 215 q 379 0 533 0 l 146 0 m 235 106 l 376 106 q 538 192 475 106 q 600 486 600 278 q 538 780 600 693 q 376 867 475 867 l 235 867 l 235 106 m 882 0 q 860 26 871 0 q 849 74 849 53 q 851 90 849 82 l 1297 867 l 910 867 q 885 914 885 867 l 885 925 q 910 972 885 972 l 1418 972 q 1438 947 1428 972 q 1449 899 1449 921 q 1447 882 1449 886 l 1004 106 l 1422 106 q 1449 58 1449 106 l 1449 47 q 1422 0 1449 0 l 882 0 z "},"Ð":{"ha":801,"x_min":14,"x_max":728,"o":"m 40 444 q 14 486 14 444 l 14 508 q 40 550 14 550 l 333 550 q 360 508 360 550 l 360 486 q 333 444 360 444 l 40 444 m 146 0 q 108 42 108 0 l 108 931 q 146 972 108 972 l 379 972 q 631 864 533 972 q 728 486 728 756 q 631 108 728 215 q 379 0 533 0 l 146 0 m 235 106 l 376 106 q 538 192 475 106 q 600 486 600 278 q 538 780 600 693 q 376 867 475 867 l 235 867 l 235 106 z "},"Ď":{"ha":801,"x_min":108,"x_max":728,"o":"m 146 0 q 108 42 108 0 l 108 931 q 146 972 108 972 l 379 972 q 631 864 533 972 q 728 486 728 756 q 631 108 728 215 q 379 0 533 0 l 146 0 m 235 106 l 376 106 q 538 192 475 106 q 600 486 600 278 q 538 780 600 693 q 376 867 475 867 l 235 867 l 235 106 z "},"Đ":{"ha":801,"x_min":14,"x_max":728,"o":"m 40 444 q 14 486 14 444 l 14 508 q 40 550 14 550 l 333 550 q 360 508 360 550 l 360 486 q 333 444 360 444 l 40 444 m 146 0 q 108 42 108 0 l 108 931 q 146 972 108 972 l 379 972 q 631 864 533 972 q 728 486 728 756 q 631 108 728 215 q 379 0 533 0 l 146 0 m 235 106 l 376 106 q 538 192 475 106 q 600 486 600 278 q 538 780 600 693 q 376 867 475 867 l 235 867 l 235 106 z "},"Ḍ":{"ha":801,"x_min":108,"x_max":728,"o":"m 146 0 q 108 42 108 0 l 108 931 q 146 972 108 972 l 379 972 q 631 864 533 972 q 728 486 728 756 q 631 108 728 215 q 379 0 533 0 l 146 0 m 235 106 l 376 106 q 538 192 475 106 q 600 486 600 278 q 538 780 600 693 q 376 867 475 867 l 235 867 l 235 106 z "},"ǲ":{"ha":1364,"x_min":108,"x_max":1315,"o":"m 146 0 q 108 42 108 0 l 108 931 q 146 972 108 972 l 379 972 q 631 864 533 972 q 728 486 728 756 q 631 108 728 215 q 379 0 533 0 l 146 0 m 235 106 l 376 106 q 538 192 475 106 q 600 486 600 278 q 538 780 600 693 q 376 867 475 867 l 235 867 l 235 106 m 876 0 q 858 25 868 0 q 849 71 849 50 q 851 86 849 78 l 1165 626 l 896 626 q 869 668 869 626 l 869 685 q 896 726 869 726 l 1288 726 q 1304 699 1296 726 q 1313 654 1313 672 q 1310 640 1313 646 l 997 100 l 1289 100 q 1315 58 1315 100 l 1315 42 q 1289 0 1315 0 l 876 0 z "},"ǅ":{"ha":1364,"x_min":108,"x_max":1315,"o":"m 146 0 q 108 42 108 0 l 108 931 q 146 972 108 972 l 379 972 q 631 864 533 972 q 728 486 728 756 q 631 108 728 215 q 379 0 533 0 l 146 0 m 235 106 l 376 106 q 538 192 475 106 q 600 486 600 278 q 538 780 600 693 q 376 867 475 867 l 235 867 l 235 106 m 876 0 q 858 25 868 0 q 849 71 849 50 q 851 86 849 78 l 1165 626 l 896 626 q 869 668 869 626 l 869 685 q 896 726 869 726 l 1288 726 q 1304 699 1296 726 q 1313 654 1313 672 q 1310 640 1313 646 l 997 100 l 1289 100 q 1315 58 1315 100 l 1315 42 q 1289 0 1315 0 l 876 0 z "},"E":{"ha":635,"x_min":108,"x_max":572,"o":"m 146 0 q 108 42 108 0 l 108 931 q 146 972 108 972 l 546 972 q 572 931 572 972 l 572 908 q 546 867 572 867 l 233 867 l 233 550 l 514 550 q 540 508 540 550 l 540 486 q 514 444 540 444 l 233 444 l 233 106 l 546 106 q 572 64 572 106 l 572 42 q 546 0 572 0 l 146 0 z "},"É":{"ha":635,"x_min":108,"x_max":572,"o":"m 146 0 q 108 42 108 0 l 108 931 q 146 972 108 972 l 546 972 q 572 931 572 972 l 572 908 q 546 867 572 867 l 233 867 l 233 550 l 514 550 q 540 508 540 550 l 540 486 q 514 444 540 444 l 233 444 l 233 106 l 546 106 q 572 64 572 106 l 572 42 q 546 0 572 0 l 146 0 z "},"Ĕ":{"ha":635,"x_min":108,"x_max":572,"o":"m 146 0 q 108 42 108 0 l 108 931 q 146 972 108 972 l 546 972 q 572 931 572 972 l 572 908 q 546 867 572 867 l 233 867 l 233 550 l 514 550 q 540 508 540 550 l 540 486 q 514 444 540 444 l 233 444 l 233 106 l 546 106 q 572 64 572 106 l 572 42 q 546 0 572 0 l 146 0 z "},"Ě":{"ha":635,"x_min":108,"x_max":572,"o":"m 146 0 q 108 42 108 0 l 108 931 q 146 972 108 972 l 546 972 q 572 931 572 972 l 572 908 q 546 867 572 867 l 233 867 l 233 550 l 514 550 q 540 508 540 550 l 540 486 q 514 444 540 444 l 233 444 l 233 106 l 546 106 q 572 64 572 106 l 572 42 q 546 0 572 0 l 146 0 z "},"Ê":{"ha":635,"x_min":108,"x_max":572,"o":"m 146 0 q 108 42 108 0 l 108 931 q 146 972 108 972 l 546 972 q 572 931 572 972 l 572 908 q 546 867 572 867 l 233 867 l 233 550 l 514 550 q 540 508 540 550 l 540 486 q 514 444 540 444 l 233 444 l 233 106 l 546 106 q 572 64 572 106 l 572 42 q 546 0 572 0 l 146 0 z "},"Ế":{"ha":615,"x_min":108,"x_max":611,"o":"m 465 1179 q 433 1193 433 1179 q 446 1230 433 1203 q 493 1333 458 1257 q 523 1361 503 1353 q 568 1369 543 1369 q 611 1351 611 1369 q 595 1319 611 1342 q 515 1204 579 1296 q 494 1185 506 1192 q 465 1179 483 1179 m 214 1046 q 188 1064 188 1046 q 194 1090 188 1069 l 261 1213 q 285 1235 271 1228 q 319 1243 300 1243 l 342 1243 q 375 1235 361 1243 q 399 1213 389 1228 l 464 1090 q 474 1067 474 1075 q 447 1046 474 1046 l 419 1046 q 385 1064 394 1046 l 329 1167 l 276 1064 q 260 1049 269 1051 q 240 1046 250 1046 l 214 1046 m 146 0 q 108 42 108 0 l 108 931 q 146 972 108 972 l 546 972 q 572 931 572 972 l 572 908 q 546 867 572 867 l 233 867 l 233 550 l 514 550 q 540 508 540 550 l 540 486 q 514 444 540 444 l 233 444 l 233 106 l 546 106 q 572 64 572 106 l 572 42 q 546 0 572 0 l 146 0 z "},"Ệ":{"ha":635,"x_min":108,"x_max":572,"o":"m 146 0 q 108 42 108 0 l 108 931 q 146 972 108 972 l 546 972 q 572 931 572 972 l 572 908 q 546 867 572 867 l 233 867 l 233 550 l 514 550 q 540 508 540 550 l 540 486 q 514 444 540 444 l 233 444 l 233 106 l 546 106 q 572 64 572 106 l 572 42 q 546 0 572 0 l 146 0 z "},"Ề":{"ha":615,"x_min":108,"x_max":572,"o":"m 511 1179 q 483 1185 496 1179 q 461 1204 471 1192 q 388 1319 403 1296 q 372 1351 372 1342 q 418 1369 372 1369 q 462 1361 442 1369 q 490 1333 482 1353 q 533 1230 522 1257 q 543 1193 543 1203 q 511 1179 543 1179 m 214 1046 q 188 1064 188 1046 q 194 1090 188 1069 l 261 1213 q 285 1235 271 1228 q 319 1243 300 1243 l 342 1243 q 375 1235 361 1243 q 399 1213 389 1228 l 464 1090 q 474 1067 474 1075 q 447 1046 474 1046 l 419 1046 q 385 1064 394 1046 l 329 1167 l 276 1064 q 260 1049 269 1051 q 240 1046 250 1046 l 214 1046 m 146 0 q 108 42 108 0 l 108 931 q 146 972 108 972 l 546 972 q 572 931 572 972 l 572 908 q 546 867 572 867 l 233 867 l 233 550 l 514 550 q 540 508 540 550 l 540 486 q 514 444 540 444 l 233 444 l 233 106 l 546 106 q 572 64 572 106 l 572 42 q 546 0 572 0 l 146 0 z "},"Ể":{"ha":615,"x_min":108,"x_max":586,"o":"m 481 1189 q 429 1217 429 1189 q 464 1247 429 1228 q 507 1299 507 1271 q 456 1336 507 1336 q 410 1327 424 1336 q 392 1318 397 1318 q 371 1335 383 1318 q 358 1364 358 1353 q 394 1390 358 1378 q 467 1403 431 1403 q 544 1383 503 1403 q 586 1308 586 1363 q 571 1255 586 1276 q 538 1219 556 1233 q 504 1198 522 1207 q 481 1189 486 1189 m 214 1046 q 188 1064 188 1046 q 194 1090 188 1069 l 261 1213 q 285 1235 271 1228 q 319 1243 300 1243 l 342 1243 q 375 1235 361 1243 q 399 1213 389 1228 l 464 1090 q 474 1067 474 1075 q 447 1046 474 1046 l 419 1046 q 385 1064 394 1046 l 329 1167 l 276 1064 q 260 1049 269 1051 q 240 1046 250 1046 l 214 1046 m 146 0 q 108 42 108 0 l 108 931 q 146 972 108 972 l 546 972 q 572 931 572 972 l 572 908 q 546 867 572 867 l 233 867 l 233 550 l 514 550 q 540 508 540 550 l 540 486 q 514 444 540 444 l 233 444 l 233 106 l 546 106 q 572 64 572 106 l 572 42 q 546 0 572 0 l 146 0 z "},"Ễ":{"ha":615,"x_min":108,"x_max":572,"o":"m 169 1254 l 157 1260 q 144 1276 144 1267 q 149 1294 144 1283 q 192 1369 167 1347 q 253 1390 218 1390 q 337 1363 293 1390 q 414 1335 381 1335 q 461 1371 440 1335 q 486 1392 472 1392 q 500 1388 492 1392 l 508 1383 q 524 1367 524 1375 q 519 1347 524 1360 q 474 1274 500 1294 q 415 1253 449 1253 q 328 1281 372 1253 q 251 1308 283 1308 q 228 1300 238 1308 q 206 1271 218 1292 q 183 1251 194 1251 q 169 1254 181 1251 m 215 1046 q 189 1065 189 1046 q 199 1090 189 1075 l 261 1182 q 319 1213 285 1213 l 342 1213 q 401 1182 379 1213 l 464 1090 q 475 1065 475 1072 q 447 1046 475 1046 l 421 1046 q 400 1051 408 1046 q 385 1064 392 1056 l 331 1144 l 278 1064 q 263 1051 272 1056 q 240 1046 254 1046 l 215 1046 m 146 0 q 108 42 108 0 l 108 931 q 146 972 108 972 l 546 972 q 572 931 572 972 l 572 908 q 546 867 572 867 l 233 867 l 233 550 l 514 550 q 540 508 540 550 l 540 486 q 514 444 540 444 l 233 444 l 233 106 l 546 106 q 572 64 572 106 l 572 42 q 546 0 572 0 l 146 0 z "},"Ë":{"ha":635,"x_min":108,"x_max":572,"o":"m 146 0 q 108 42 108 0 l 108 931 q 146 972 108 972 l 546 972 q 572 931 572 972 l 572 908 q 546 867 572 867 l 233 867 l 233 550 l 514 550 q 540 508 540 550 l 540 486 q 514 444 540 444 l 233 444 l 233 106 l 546 106 q 572 64 572 106 l 572 42 q 546 0 572 0 l 146 0 z "},"Ė":{"ha":635,"x_min":108,"x_max":572,"o":"m 146 0 q 108 42 108 0 l 108 931 q 146 972 108 972 l 546 972 q 572 931 572 972 l 572 908 q 546 867 572 867 l 233 867 l 233 550 l 514 550 q 540 508 540 550 l 540 486 q 514 444 540 444 l 233 444 l 233 106 l 546 106 q 572 64 572 106 l 572 42 q 546 0 572 0 l 146 0 z "},"Ẹ":{"ha":635,"x_min":108,"x_max":572,"o":"m 146 0 q 108 42 108 0 l 108 931 q 146 972 108 972 l 546 972 q 572 931 572 972 l 572 908 q 546 867 572 867 l 233 867 l 233 550 l 514 550 q 540 508 540 550 l 540 486 q 514 444 540 444 l 233 444 l 233 106 l 546 106 q 572 64 572 106 l 572 42 q 546 0 572 0 l 146 0 z "},"È":{"ha":635,"x_min":108,"x_max":572,"o":"m 146 0 q 108 42 108 0 l 108 931 q 146 972 108 972 l 546 972 q 572 931 572 972 l 572 908 q 546 867 572 867 l 233 867 l 233 550 l 514 550 q 540 508 540 550 l 540 486 q 514 444 540 444 l 233 444 l 233 106 l 546 106 q 572 64 572 106 l 572 42 q 546 0 572 0 l 146 0 z "},"Ẻ":{"ha":635,"x_min":108,"x_max":572,"o":"m 146 0 q 108 42 108 0 l 108 931 q 146 972 108 972 l 546 972 q 572 931 572 972 l 572 908 q 546 867 572 867 l 233 867 l 233 550 l 514 550 q 540 508 540 550 l 540 486 q 514 444 540 444 l 233 444 l 233 106 l 546 106 q 572 64 572 106 l 572 42 q 546 0 572 0 l 146 0 m 350 1028 q 322 1035 340 1028 q 304 1051 304 1042 q 347 1104 304 1082 q 390 1179 390 1126 q 339 1217 390 1217 q 294 1208 307 1217 q 275 1199 281 1199 q 254 1217 267 1199 q 242 1244 242 1235 q 278 1273 242 1258 q 350 1288 314 1288 q 431 1267 385 1288 q 476 1189 476 1246 q 449 1107 476 1143 q 390 1049 421 1071 q 350 1028 358 1028 z "},"Ē":{"ha":635,"x_min":108,"x_max":572,"o":"m 146 0 q 108 42 108 0 l 108 931 q 146 972 108 972 l 546 972 q 572 931 572 972 l 572 908 q 546 867 572 867 l 233 867 l 233 550 l 514 550 q 540 508 540 550 l 540 486 q 514 444 540 444 l 233 444 l 233 106 l 546 106 q 572 64 572 106 l 572 42 q 546 0 572 0 l 146 0 z "},"Ę":{"ha":635,"x_min":108,"x_max":686,"o":"m 146 0 q 108 42 108 0 l 108 931 q 146 972 108 972 l 546 972 q 572 931 572 972 l 572 908 q 546 867 572 867 l 233 867 l 233 550 l 514 550 q 540 508 540 550 l 540 486 q 514 444 540 444 l 233 444 l 233 106 l 546 106 q 572 64 572 106 l 572 42 q 546 0 572 0 l 146 0 m 576 -246 q 469 -198 490 -246 q 449 -124 449 -150 q 462 -50 449 -96 q 510 36 475 -4 l 569 14 q 542 -47 550 -17 q 533 -99 533 -78 q 557 -149 533 -139 q 603 -158 581 -158 q 633 -153 617 -158 q 658 -149 649 -149 q 686 -182 686 -149 q 668 -219 686 -207 q 576 -246 629 -246 z "},"Ẽ":{"ha":635,"x_min":108,"x_max":572,"o":"m 146 0 q 108 42 108 0 l 108 931 q 146 972 108 972 l 546 972 q 572 931 572 972 l 572 908 q 546 867 572 867 l 233 867 l 233 550 l 514 550 q 540 508 540 550 l 540 486 q 514 444 540 444 l 233 444 l 233 106 l 546 106 q 572 64 572 106 l 572 42 q 546 0 572 0 l 146 0 z "},"F":{"ha":588,"x_min":108,"x_max":533,"o":"m 161 -3 q 108 28 108 -3 l 108 931 q 146 972 108 972 l 507 972 q 533 931 533 972 l 533 908 q 507 867 533 867 l 233 867 l 233 550 l 483 550 q 510 508 510 550 l 510 486 q 483 444 510 444 l 233 444 l 233 28 q 181 -3 233 -3 l 161 -3 z "},"G":{"ha":767,"x_min":68,"x_max":672,"o":"m 419 -8 q 158 111 247 -8 q 68 478 68 231 q 161 859 68 738 q 432 981 254 981 q 583 951 511 981 q 654 894 654 922 q 637 845 654 876 q 604 814 619 814 q 553 842 594 814 q 433 871 513 871 q 250 770 303 871 q 197 490 197 669 q 246 214 197 331 q 424 97 294 97 q 569 125 521 97 l 547 68 l 547 425 l 429 425 q 401 467 401 425 l 401 489 q 429 531 401 531 l 635 531 q 672 489 672 531 l 672 92 q 632 31 672 53 q 533 1 592 10 q 419 -8 475 -8 z "},"Ğ":{"ha":767,"x_min":68,"x_max":672,"o":"m 419 -8 q 158 111 247 -8 q 68 478 68 231 q 161 859 68 738 q 432 981 254 981 q 583 951 511 981 q 654 894 654 922 q 637 845 654 876 q 604 814 619 814 q 553 842 594 814 q 433 871 513 871 q 250 770 303 871 q 197 490 197 669 q 246 214 197 331 q 424 97 294 97 q 569 125 521 97 l 547 68 l 547 425 l 429 425 q 401 467 401 425 l 401 489 q 429 531 401 531 l 635 531 q 672 489 672 531 l 672 92 q 632 31 672 53 q 533 1 592 10 q 419 -8 475 -8 z "},"Ĝ":{"ha":767,"x_min":68,"x_max":672,"o":"m 419 -8 q 158 111 247 -8 q 68 478 68 231 q 161 859 68 738 q 432 981 254 981 q 583 951 511 981 q 654 894 654 922 q 637 845 654 876 q 604 814 619 814 q 553 842 594 814 q 433 871 513 871 q 250 770 303 871 q 197 490 197 669 q 246 214 197 331 q 424 97 294 97 q 569 125 521 97 l 547 68 l 547 425 l 429 425 q 401 467 401 425 l 401 489 q 429 531 401 531 l 635 531 q 672 489 672 531 l 672 92 q 632 31 672 53 q 533 1 592 10 q 419 -8 475 -8 z "},"Ģ":{"ha":767,"x_min":68,"x_max":672,"o":"m 419 -8 q 158 111 247 -8 q 68 478 68 231 q 161 859 68 738 q 432 981 254 981 q 583 951 511 981 q 654 894 654 922 q 637 845 654 876 q 604 814 619 814 q 553 842 594 814 q 433 871 513 871 q 250 770 303 871 q 197 490 197 669 q 246 214 197 331 q 424 97 294 97 q 569 125 521 97 l 547 68 l 547 425 l 429 425 q 401 467 401 425 l 401 489 q 429 531 401 531 l 635 531 q 672 489 672 531 l 672 92 q 632 31 672 53 q 533 1 592 10 q 419 -8 475 -8 m 371 -326 q 346 -322 360 -326 q 332 -306 332 -318 q 352 -238 332 -282 q 372 -115 372 -194 q 425 -71 372 -71 l 439 -71 q 488 -110 488 -71 q 443 -268 488 -210 q 371 -326 399 -326 z "},"Ġ":{"ha":767,"x_min":68,"x_max":672,"o":"m 419 -8 q 158 111 247 -8 q 68 478 68 231 q 161 859 68 738 q 432 981 254 981 q 583 951 511 981 q 654 894 654 922 q 637 845 654 876 q 604 814 619 814 q 553 842 594 814 q 433 871 513 871 q 250 770 303 871 q 197 490 197 669 q 246 214 197 331 q 424 97 294 97 q 569 125 521 97 l 547 68 l 547 425 l 429 425 q 401 467 401 425 l 401 489 q 429 531 401 531 l 635 531 q 672 489 672 531 l 672 92 q 632 31 672 53 q 533 1 592 10 q 419 -8 475 -8 z "},"H":{"ha":835,"x_min":108,"x_max":724,"o":"m 161 -3 q 108 28 108 -3 l 108 944 q 161 975 108 975 l 182 975 q 233 944 233 975 l 233 551 l 599 551 l 599 944 q 651 975 599 975 l 671 975 q 724 944 724 975 l 724 28 q 671 -3 724 -3 l 651 -3 q 599 28 599 -3 l 599 446 l 233 446 l 233 28 q 182 -3 233 -3 l 161 -3 z "},"Ħ":{"ha":814,"x_min":49,"x_max":763,"o":"m 75 682 q 49 724 49 682 l 49 738 q 75 779 49 779 l 736 779 q 763 738 763 779 l 763 724 q 736 682 763 682 l 75 682 m 161 -3 q 108 28 108 -3 l 108 944 q 161 975 108 975 l 182 975 q 233 944 233 975 l 233 551 l 599 551 l 599 944 q 651 975 599 975 l 671 975 q 724 944 724 975 l 724 28 q 671 -3 724 -3 l 651 -3 q 599 28 599 -3 l 599 446 l 233 446 l 233 28 q 182 -3 233 -3 l 161 -3 z "},"Ĥ":{"ha":835,"x_min":108,"x_max":724,"o":"m 161 -3 q 108 28 108 -3 l 108 944 q 161 975 108 975 l 182 975 q 233 944 233 975 l 233 551 l 599 551 l 599 944 q 651 975 599 975 l 671 975 q 724 944 724 975 l 724 28 q 671 -3 724 -3 l 651 -3 q 599 28 599 -3 l 599 446 l 233 446 l 233 28 q 182 -3 233 -3 l 161 -3 z "},"Ḥ":{"ha":835,"x_min":108,"x_max":724,"o":"m 161 -3 q 108 28 108 -3 l 108 944 q 161 975 108 975 l 182 975 q 233 944 233 975 l 233 551 l 599 551 l 599 944 q 651 975 599 975 l 671 975 q 724 944 724 975 l 724 28 q 671 -3 724 -3 l 651 -3 q 599 28 599 -3 l 599 446 l 233 446 l 233 28 q 182 -3 233 -3 l 161 -3 z "},"I":{"ha":364,"x_min":119,"x_max":244,"o":"m 172 -3 q 119 28 119 -3 l 119 944 q 172 975 119 975 l 193 975 q 244 944 244 975 l 244 28 q 193 -3 244 -3 l 172 -3 z "},"Ĳ":{"ha":857,"x_min":119,"x_max":746,"o":"m 172 -3 q 119 28 119 -3 l 119 944 q 172 975 119 975 l 193 975 q 244 944 244 975 l 244 28 q 193 -3 244 -3 l 172 -3 m 501 -8 q 420 3 464 -8 q 376 36 376 14 q 385 81 376 50 q 408 113 394 113 q 439 106 417 113 q 488 100 461 100 q 619 271 619 100 l 619 944 q 672 975 619 975 l 692 975 q 746 944 746 975 l 746 285 q 690 72 746 153 q 501 -8 633 -8 z "},"Í":{"ha":364,"x_min":119,"x_max":347,"o":"m 172 -3 q 119 28 119 -3 l 119 944 q 172 975 119 975 l 193 975 q 244 944 244 975 l 244 28 q 193 -3 244 -3 l 172 -3 z "},"Ĭ":{"ha":364,"x_min":19,"x_max":343,"o":"m 172 -3 q 119 28 119 -3 l 119 944 q 172 975 119 975 l 193 975 q 244 944 244 975 l 244 28 q 193 -3 244 -3 l 172 -3 z "},"Î":{"ha":364,"x_min":31,"x_max":332,"o":"m 172 -3 q 119 28 119 -3 l 119 944 q 172 975 119 975 l 193 975 q 244 944 244 975 l 244 28 q 193 -3 244 -3 l 172 -3 z "},"Ï":{"ha":364,"x_min":42,"x_max":325,"o":"m 172 -3 q 119 28 119 -3 l 119 944 q 172 975 119 975 l 193 975 q 244 944 244 975 l 244 28 q 193 -3 244 -3 l 172 -3 z "},"İ":{"ha":364,"x_min":119,"x_max":246,"o":"m 172 -3 q 119 28 119 -3 l 119 944 q 172 975 119 975 l 193 975 q 244 944 244 975 l 244 28 q 193 -3 244 -3 l 172 -3 z "},"Ị":{"ha":364,"x_min":119,"x_max":247,"o":"m 172 -3 q 119 28 119 -3 l 119 944 q 172 975 119 975 l 193 975 q 244 944 244 975 l 244 28 q 193 -3 244 -3 l 172 -3 z "},"Ì":{"ha":364,"x_min":40,"x_max":244,"o":"m 172 -3 q 119 28 119 -3 l 119 944 q 172 975 119 975 l 193 975 q 244 944 244 975 l 244 28 q 193 -3 244 -3 l 172 -3 z "},"Ỉ":{"ha":364,"x_min":83,"x_max":318,"o":"m 172 -3 q 119 28 119 -3 l 119 944 q 172 975 119 975 l 193 975 q 244 944 244 975 l 244 28 q 193 -3 244 -3 l 172 -3 m 192 1028 q 164 1035 182 1028 q 146 1051 146 1042 q 189 1104 146 1082 q 232 1179 232 1126 q 181 1217 232 1217 q 135 1208 149 1217 q 117 1199 122 1199 q 96 1217 108 1199 q 83 1244 83 1235 q 119 1273 83 1258 q 192 1288 156 1288 q 272 1267 226 1288 q 318 1189 318 1246 q 290 1107 318 1143 q 231 1049 263 1071 q 192 1028 200 1028 z "},"Ī":{"ha":364,"x_min":22,"x_max":351,"o":"m 172 -3 q 119 28 119 -3 l 119 944 q 172 975 119 975 l 193 975 q 244 944 244 975 l 244 28 q 193 -3 244 -3 l 172 -3 z "},"Į":{"ha":364,"x_min":119,"x_max":358,"o":"m 172 -3 q 119 28 119 -3 l 119 944 q 172 975 119 975 l 193 975 q 244 944 244 975 l 244 28 q 193 -3 244 -3 l 172 -3 m 249 -244 q 142 -197 163 -244 q 121 -122 121 -149 q 134 -49 121 -94 q 182 38 147 -3 l 242 15 q 214 -46 222 -15 q 206 -97 206 -76 q 229 -147 206 -137 q 275 -157 253 -157 q 305 -152 289 -157 q 331 -147 321 -147 q 358 -181 358 -147 q 340 -218 358 -206 q 249 -244 301 -244 z "},"Ĩ":{"ha":364,"x_min":-22,"x_max":394,"o":"m 172 -3 q 119 28 119 -3 l 119 944 q 172 975 119 975 l 193 975 q 244 944 244 975 l 244 28 q 193 -3 244 -3 l 172 -3 z "},"J":{"ha":493,"x_min":13,"x_max":382,"o":"m 138 -8 q 56 3 100 -8 q 13 36 13 14 q 22 81 13 50 q 44 113 31 113 q 75 106 53 113 q 124 100 97 100 q 256 271 256 100 l 256 944 q 308 975 256 975 l 328 975 q 382 944 382 975 l 382 285 q 326 72 382 153 q 138 -8 269 -8 z "},"Ĵ":{"ha":493,"x_min":13,"x_max":467,"o":"m 138 -8 q 56 3 100 -8 q 13 36 13 14 q 22 81 13 50 q 44 113 31 113 q 75 106 53 113 q 124 100 97 100 q 256 271 256 100 l 256 944 q 308 975 256 975 l 328 975 q 382 944 382 975 l 382 285 q 326 72 382 153 q 138 -8 269 -8 z "},"K":{"ha":708,"x_min":114,"x_max":699,"o":"m 689 39 q 699 17 699 26 q 643 -3 699 -3 l 614 -3 q 575 -1 593 -3 q 547 15 557 1 l 243 468 l 239 468 l 239 28 q 185 -3 239 -3 l 167 -3 q 114 28 114 -3 l 114 944 q 167 975 114 975 l 185 975 q 239 944 239 975 l 239 511 l 243 511 l 538 956 q 564 972 546 968 q 603 975 582 975 l 626 975 q 675 957 675 975 q 663 929 675 946 l 364 496 l 689 39 z "},"Ķ":{"ha":708,"x_min":114,"x_max":699,"o":"m 689 39 q 699 17 699 26 q 643 -3 699 -3 l 614 -3 q 575 -1 593 -3 q 547 15 557 1 l 243 468 l 239 468 l 239 28 q 185 -3 239 -3 l 167 -3 q 114 28 114 -3 l 114 944 q 167 975 114 975 l 185 975 q 239 944 239 975 l 239 511 l 243 511 l 538 956 q 564 972 546 968 q 603 975 582 975 l 626 975 q 675 957 675 975 q 663 929 675 946 l 364 496 l 689 39 m 299 -326 q 274 -322 288 -326 q 260 -306 260 -318 q 280 -238 260 -282 q 300 -115 300 -194 q 353 -71 300 -71 l 367 -71 q 415 -110 415 -71 q 371 -268 415 -210 q 299 -326 326 -326 z "},"L":{"ha":567,"x_min":108,"x_max":550,"o":"m 146 0 q 108 42 108 0 l 108 944 q 161 975 108 975 l 181 975 q 233 944 233 975 l 233 106 l 522 106 q 550 64 550 106 l 550 42 q 522 0 550 0 l 146 0 z "},"Ǉ":{"ha":886,"x_min":99,"x_max":792,"o":"m 547 -218 q 466 -207 510 -218 q 422 -174 422 -196 q 431 -128 422 -158 q 454 -97 440 -97 q 484 -103 463 -97 q 533 -110 506 -110 q 665 61 665 -110 l 665 944 q 718 975 665 975 l 738 975 q 792 944 792 975 l 792 75 q 735 -137 792 -56 q 547 -218 678 -218 m 136 0 q 99 42 99 0 l 99 944 q 151 975 99 975 l 171 975 q 224 944 224 975 l 224 106 l 468 106 q 496 64 496 106 l 496 42 q 468 0 496 0 l 136 0 z "},"Ĺ":{"ha":567,"x_min":108,"x_max":550,"o":"m 146 0 q 108 42 108 0 l 108 944 q 161 975 108 975 l 181 975 q 233 944 233 975 l 233 106 l 522 106 q 550 64 550 106 l 550 42 q 522 0 550 0 l 146 0 z "},"Ľ":{"ha":567,"x_min":108,"x_max":550,"o":"m 146 0 q 108 42 108 0 l 108 944 q 161 975 108 975 l 181 975 q 233 944 233 975 l 233 106 l 522 106 q 550 64 550 106 l 550 42 q 522 0 550 0 l 146 0 m 382 731 q 356 735 371 731 q 342 751 342 739 q 351 814 342 774 q 360 928 360 854 q 415 972 360 972 l 428 972 q 483 933 483 972 q 445 785 483 839 q 382 731 407 731 z "},"Ļ":{"ha":567,"x_min":108,"x_max":550,"o":"m 146 0 q 108 42 108 0 l 108 944 q 161 975 108 975 l 181 975 q 233 944 233 975 l 233 106 l 522 106 q 550 64 550 106 l 550 42 q 522 0 550 0 l 146 0 m 267 -326 q 242 -322 256 -326 q 228 -306 228 -318 q 248 -238 228 -282 q 268 -115 268 -194 q 321 -71 268 -71 l 335 -71 q 383 -110 383 -71 q 339 -268 383 -210 q 267 -326 294 -326 z "},"Ŀ":{"ha":567,"x_min":108,"x_max":550,"o":"m 146 0 q 108 42 108 0 l 108 944 q 161 975 108 975 l 181 975 q 233 944 233 975 l 233 106 l 522 106 q 550 64 550 106 l 550 42 q 522 0 550 0 l 146 0 m 403 429 q 354 448 374 429 q 335 500 335 467 q 354 553 335 533 q 403 572 374 572 q 452 553 432 572 q 472 500 472 533 q 452 448 472 467 q 403 429 432 429 z "},"ǈ":{"ha":913,"x_min":108,"x_max":807,"o":"m 146 0 q 108 42 108 0 l 108 944 q 161 975 108 975 l 181 975 q 233 944 233 975 l 233 106 l 522 106 q 550 64 550 106 l 550 42 q 522 0 550 0 l 146 0 z "},"Ł":{"ha":567,"x_min":19,"x_max":550,"o":"m 361 679 q 375 685 372 685 q 388 665 388 685 l 388 657 q 361 615 388 631 l 46 428 q 32 422 35 422 q 19 442 19 422 l 19 450 q 46 492 19 476 l 361 679 m 146 0 q 108 42 108 0 l 108 944 q 161 975 108 975 l 181 975 q 233 944 233 975 l 233 106 l 522 106 q 550 64 550 106 l 550 42 q 522 0 550 0 l 146 0 z "},"M":{"ha":957,"x_min":101,"x_max":860,"o":"m 457 332 q 426 350 435 332 l 264 669 q 242 717 253 692 q 222 765 232 742 l 217 763 q 222 713 219 738 q 224 664 224 689 l 224 28 q 171 -3 224 -3 l 154 -3 q 101 28 101 -3 l 101 944 q 154 975 101 975 l 183 975 q 236 950 224 975 l 458 515 q 472 482 467 499 q 481 449 478 465 q 503 515 488 485 l 725 950 q 778 975 738 975 l 807 975 q 860 944 860 975 l 860 28 q 807 -3 860 -3 l 790 -3 q 738 28 738 -3 l 738 664 q 744 763 738 707 l 739 765 q 719 717 729 742 q 697 669 708 692 l 535 350 q 504 332 526 332 l 457 332 z "},"N":{"ha":819,"x_min":101,"x_max":718,"o":"m 154 -3 q 101 28 101 -3 l 101 944 q 154 975 101 975 l 188 975 q 220 969 207 975 q 242 947 233 963 l 564 326 q 584 283 575 304 q 600 239 593 261 l 607 242 q 599 288 601 264 q 596 333 596 311 l 596 944 q 649 975 596 975 l 665 975 q 718 944 718 975 l 718 28 q 665 -3 718 -3 l 636 -3 q 604 3 617 -3 q 586 18 592 8 l 256 660 q 235 703 244 682 q 219 747 226 725 l 213 744 q 221 699 218 722 q 224 653 224 675 l 224 28 q 171 -3 224 -3 l 154 -3 z "},"Ǌ":{"ha":1313,"x_min":101,"x_max":1201,"o":"m 154 -3 q 101 28 101 -3 l 101 944 q 154 975 101 975 l 188 975 q 220 969 207 975 q 242 947 233 963 l 564 326 q 584 283 575 304 q 600 239 593 261 l 607 242 q 599 288 601 264 q 596 333 596 311 l 596 944 q 649 975 596 975 l 665 975 q 718 944 718 975 l 718 28 q 665 -3 718 -3 l 636 -3 q 604 3 617 -3 q 586 18 592 8 l 256 660 q 235 703 244 682 q 219 747 226 725 l 213 744 q 221 699 218 722 q 224 653 224 675 l 224 28 q 171 -3 224 -3 l 154 -3 m 957 -8 q 876 3 919 -8 q 832 36 832 14 q 841 81 832 50 q 864 113 850 113 q 894 106 872 113 q 943 100 917 100 q 1075 271 1075 100 l 1075 944 q 1128 975 1075 975 l 1147 975 q 1201 944 1201 975 l 1201 285 q 1145 72 1201 153 q 957 -8 1089 -8 z "},"Ń":{"ha":819,"x_min":101,"x_max":718,"o":"m 154 -3 q 101 28 101 -3 l 101 944 q 154 975 101 975 l 188 975 q 220 969 207 975 q 242 947 233 963 l 564 326 q 584 283 575 304 q 600 239 593 261 l 607 242 q 599 288 601 264 q 596 333 596 311 l 596 944 q 649 975 596 975 l 665 975 q 718 944 718 975 l 718 28 q 665 -3 718 -3 l 636 -3 q 604 3 617 -3 q 586 18 592 8 l 256 660 q 235 703 244 682 q 219 747 226 725 l 213 744 q 221 699 218 722 q 224 653 224 675 l 224 28 q 171 -3 224 -3 l 154 -3 z "},"Ň":{"ha":819,"x_min":101,"x_max":718,"o":"m 154 -3 q 101 28 101 -3 l 101 944 q 154 975 101 975 l 188 975 q 220 969 207 975 q 242 947 233 963 l 564 326 q 584 283 575 304 q 600 239 593 261 l 607 242 q 599 288 601 264 q 596 333 596 311 l 596 944 q 649 975 596 975 l 665 975 q 718 944 718 975 l 718 28 q 665 -3 718 -3 l 636 -3 q 604 3 617 -3 q 586 18 592 8 l 256 660 q 235 703 244 682 q 219 747 226 725 l 213 744 q 221 699 218 722 q 224 653 224 675 l 224 28 q 171 -3 224 -3 l 154 -3 z "},"Ņ":{"ha":819,"x_min":101,"x_max":718,"o":"m 154 -3 q 101 28 101 -3 l 101 944 q 154 975 101 975 l 188 975 q 220 969 207 975 q 242 947 233 963 l 564 326 q 584 283 575 304 q 600 239 593 261 l 607 242 q 599 288 601 264 q 596 333 596 311 l 596 944 q 649 975 596 975 l 665 975 q 718 944 718 975 l 718 28 q 665 -3 718 -3 l 636 -3 q 604 3 617 -3 q 586 18 592 8 l 256 660 q 235 703 244 682 q 219 747 226 725 l 213 744 q 221 699 218 722 q 224 653 224 675 l 224 28 q 171 -3 224 -3 l 154 -3 m 349 -326 q 324 -322 338 -326 q 310 -306 310 -318 q 330 -238 310 -282 q 350 -115 350 -194 q 403 -71 350 -71 l 417 -71 q 465 -110 465 -71 q 421 -268 465 -210 q 349 -326 376 -326 z "},"Ṅ":{"ha":819,"x_min":101,"x_max":718,"o":"m 154 -3 q 101 28 101 -3 l 101 944 q 154 975 101 975 l 188 975 q 220 969 207 975 q 242 947 233 963 l 564 326 q 584 283 575 304 q 600 239 593 261 l 607 242 q 599 288 601 264 q 596 333 596 311 l 596 944 q 649 975 596 975 l 665 975 q 718 944 718 975 l 718 28 q 665 -3 718 -3 l 636 -3 q 604 3 617 -3 q 586 18 592 8 l 256 660 q 235 703 244 682 q 219 747 226 725 l 213 744 q 221 699 218 722 q 224 653 224 675 l 224 28 q 171 -3 224 -3 l 154 -3 z "},"Ŋ":{"ha":819,"x_min":101,"x_max":718,"o":"m 154 -3 q 101 28 101 -3 l 101 944 q 154 975 101 975 l 188 975 q 220 969 207 975 q 242 947 233 963 l 564 326 q 584 283 575 304 q 600 239 593 261 l 607 242 q 599 288 601 264 q 596 333 596 311 l 596 944 q 649 975 596 975 l 665 975 q 718 944 718 975 l 718 28 l 610 -29 l 256 660 q 235 703 244 682 q 219 747 226 725 l 213 744 q 221 699 218 722 q 224 653 224 675 l 224 28 q 171 -3 224 -3 l 154 -3 m 567 -294 q 504 -287 539 -294 q 469 -253 469 -281 q 476 -216 469 -244 q 499 -187 483 -187 q 515 -191 506 -187 q 549 -194 524 -194 q 585 -176 569 -194 q 601 -100 601 -157 l 601 207 l 718 207 l 718 -111 q 665 -260 718 -226 q 567 -294 611 -294 z "},"ǋ":{"ha":1165,"x_min":101,"x_max":1060,"o":"m 154 -3 q 101 28 101 -3 l 101 944 q 154 975 101 975 l 188 975 q 220 969 207 975 q 242 947 233 963 l 564 326 q 584 283 575 304 q 600 239 593 261 l 607 242 q 599 288 601 264 q 596 333 596 311 l 596 944 q 649 975 596 975 l 665 975 q 718 944 718 975 l 718 28 q 665 -3 718 -3 l 636 -3 q 604 3 617 -3 q 586 18 592 8 l 256 660 q 235 703 244 682 q 219 747 226 725 l 213 744 q 221 699 218 722 q 224 653 224 675 l 224 28 q 171 -3 224 -3 l 154 -3 z "},"Ñ":{"ha":819,"x_min":101,"x_max":718,"o":"m 154 -3 q 101 28 101 -3 l 101 944 q 154 975 101 975 l 188 975 q 220 969 207 975 q 242 947 233 963 l 564 326 q 584 283 575 304 q 600 239 593 261 l 607 242 q 599 288 601 264 q 596 333 596 311 l 596 944 q 649 975 596 975 l 665 975 q 718 944 718 975 l 718 28 q 665 -3 718 -3 l 636 -3 q 604 3 617 -3 q 586 18 592 8 l 256 660 q 235 703 244 682 q 219 747 226 725 l 213 744 q 221 699 218 722 q 224 653 224 675 l 224 28 q 171 -3 224 -3 l 154 -3 z "},"O":{"ha":832,"x_min":68,"x_max":764,"o":"m 415 -8 q 158 114 247 -8 q 68 489 68 236 q 158 861 68 742 q 415 981 247 981 q 674 861 583 981 q 764 489 764 742 q 674 114 764 236 q 415 -8 583 -8 m 417 97 q 579 192 522 97 q 636 489 636 288 q 579 783 636 690 q 417 875 522 875 q 253 783 310 875 q 197 489 197 690 q 253 192 197 288 q 417 97 310 97 z "},"Ó":{"ha":832,"x_min":68,"x_max":764,"o":"m 415 -8 q 158 114 247 -8 q 68 489 68 236 q 158 861 68 742 q 415 981 247 981 q 674 861 583 981 q 764 489 764 742 q 674 114 764 236 q 415 -8 583 -8 m 417 97 q 579 192 522 97 q 636 489 636 288 q 579 783 636 690 q 417 875 522 875 q 253 783 310 875 q 197 489 197 690 q 253 192 197 288 q 417 97 310 97 z "},"Ŏ":{"ha":832,"x_min":68,"x_max":764,"o":"m 415 -8 q 158 114 247 -8 q 68 489 68 236 q 158 861 68 742 q 415 981 247 981 q 674 861 583 981 q 764 489 764 742 q 674 114 764 236 q 415 -8 583 -8 m 417 97 q 579 192 522 97 q 636 489 636 288 q 579 783 636 690 q 417 875 522 875 q 253 783 310 875 q 197 489 197 690 q 253 192 197 288 q 417 97 310 97 z "},"Ô":{"ha":832,"x_min":68,"x_max":764,"o":"m 415 -8 q 158 114 247 -8 q 68 489 68 236 q 158 861 68 742 q 415 981 247 981 q 674 861 583 981 q 764 489 764 742 q 674 114 764 236 q 415 -8 583 -8 m 417 97 q 579 192 522 97 q 636 489 636 288 q 579 783 636 690 q 417 875 522 875 q 253 783 310 875 q 197 489 197 690 q 253 192 197 288 q 417 97 310 97 z "},"Ố":{"ha":813,"x_min":68,"x_max":764,"o":"m 542 1179 q 510 1193 510 1179 q 522 1230 510 1203 q 568 1333 533 1257 q 598 1361 578 1353 q 643 1369 618 1369 q 686 1351 686 1369 q 671 1319 686 1342 q 592 1204 656 1296 q 571 1185 582 1192 q 542 1179 560 1179 m 290 1046 q 264 1064 264 1046 q 271 1090 264 1076 l 338 1213 q 360 1235 346 1228 q 394 1243 375 1243 l 417 1243 q 451 1235 438 1243 q 474 1213 465 1228 l 540 1090 q 550 1067 550 1071 q 522 1046 550 1046 l 496 1046 q 460 1064 472 1046 l 406 1167 l 351 1064 q 335 1049 344 1051 q 315 1046 326 1046 l 290 1046 m 415 -8 q 158 114 247 -8 q 68 489 68 236 q 158 861 68 742 q 415 981 247 981 q 674 861 583 981 q 764 489 764 742 q 674 114 764 236 q 415 -8 583 -8 m 417 97 q 579 192 522 97 q 636 489 636 288 q 579 783 636 690 q 417 875 522 875 q 253 783 310 875 q 197 489 197 690 q 253 192 197 288 q 417 97 310 97 z "},"Ộ":{"ha":832,"x_min":68,"x_max":764,"o":"m 415 -8 q 158 114 247 -8 q 68 489 68 236 q 158 861 68 742 q 415 981 247 981 q 674 861 583 981 q 764 489 764 742 q 674 114 764 236 q 415 -8 583 -8 m 417 97 q 579 192 522 97 q 636 489 636 288 q 579 783 636 690 q 417 875 522 875 q 253 783 310 875 q 197 489 197 690 q 253 192 197 288 q 417 97 310 97 z "},"Ồ":{"ha":813,"x_min":68,"x_max":764,"o":"m 588 1179 q 558 1185 571 1179 q 538 1204 546 1192 q 463 1319 478 1296 q 449 1351 449 1342 q 493 1369 449 1369 q 538 1361 517 1369 q 567 1333 558 1353 q 609 1230 599 1257 q 619 1193 619 1203 q 588 1179 619 1179 m 290 1046 q 264 1064 264 1046 q 271 1090 264 1076 l 338 1213 q 360 1235 346 1228 q 394 1243 375 1243 l 417 1243 q 451 1235 438 1243 q 474 1213 465 1228 l 540 1090 q 550 1067 550 1071 q 522 1046 550 1046 l 496 1046 q 460 1064 472 1046 l 406 1167 l 351 1064 q 335 1049 344 1051 q 315 1046 326 1046 l 290 1046 m 415 -8 q 158 114 247 -8 q 68 489 68 236 q 158 861 68 742 q 415 981 247 981 q 674 861 583 981 q 764 489 764 742 q 674 114 764 236 q 415 -8 583 -8 m 417 97 q 579 192 522 97 q 636 489 636 288 q 579 783 636 690 q 417 875 522 875 q 253 783 310 875 q 197 489 197 690 q 253 192 197 288 q 417 97 310 97 z "},"Ổ":{"ha":813,"x_min":68,"x_max":764,"o":"m 557 1189 q 506 1217 506 1189 q 540 1247 506 1228 q 583 1299 583 1271 q 532 1336 583 1336 q 487 1327 500 1336 q 468 1318 474 1318 q 447 1335 460 1318 q 435 1364 435 1353 q 471 1390 435 1378 q 543 1403 507 1403 q 620 1383 578 1403 q 663 1308 663 1363 q 647 1255 663 1276 q 614 1219 632 1233 q 582 1198 600 1207 q 557 1189 564 1189 m 290 1046 q 264 1064 264 1046 q 271 1090 264 1076 l 338 1213 q 360 1235 346 1228 q 394 1243 375 1243 l 417 1243 q 451 1235 438 1243 q 474 1213 465 1228 l 540 1090 q 550 1067 550 1071 q 522 1046 550 1046 l 496 1046 q 460 1064 472 1046 l 406 1167 l 351 1064 q 335 1049 344 1051 q 315 1046 326 1046 l 290 1046 m 415 -8 q 158 114 247 -8 q 68 489 68 236 q 158 861 68 742 q 415 981 247 981 q 674 861 583 981 q 764 489 764 742 q 674 114 764 236 q 415 -8 583 -8 m 417 97 q 579 192 522 97 q 636 489 636 288 q 579 783 636 690 q 417 875 522 875 q 253 783 310 875 q 197 489 197 690 q 253 192 197 288 q 417 97 310 97 z "},"Ỗ":{"ha":813,"x_min":68,"x_max":764,"o":"m 233 1257 l 221 1263 q 208 1279 208 1269 q 213 1297 208 1286 q 256 1372 231 1350 q 317 1393 282 1393 q 401 1365 357 1393 q 478 1338 444 1338 q 503 1346 492 1338 q 525 1374 514 1354 q 550 1394 536 1394 q 564 1390 556 1394 l 572 1386 q 588 1369 588 1378 q 587 1360 588 1365 q 583 1350 586 1356 q 538 1276 564 1297 q 479 1256 513 1256 q 392 1284 436 1256 q 314 1313 347 1313 q 269 1274 290 1313 q 247 1254 258 1254 q 233 1257 244 1254 m 290 1046 q 264 1065 264 1046 q 274 1090 264 1071 l 338 1182 q 396 1213 361 1213 l 418 1213 q 476 1182 454 1213 l 540 1090 q 550 1065 550 1075 q 524 1046 550 1046 l 497 1046 q 476 1051 485 1046 q 460 1064 467 1056 l 406 1144 l 354 1064 q 339 1051 347 1056 q 317 1046 331 1046 l 290 1046 m 415 -8 q 158 114 247 -8 q 68 489 68 236 q 158 861 68 742 q 415 981 247 981 q 674 861 583 981 q 764 489 764 742 q 674 114 764 236 q 415 -8 583 -8 m 417 97 q 579 192 522 97 q 636 489 636 288 q 579 783 636 690 q 417 875 522 875 q 253 783 310 875 q 197 489 197 690 q 253 192 197 288 q 417 97 310 97 z "},"Ö":{"ha":832,"x_min":68,"x_max":764,"o":"m 415 -8 q 158 114 247 -8 q 68 489 68 236 q 158 861 68 742 q 415 981 247 981 q 674 861 583 981 q 764 489 764 742 q 674 114 764 236 q 415 -8 583 -8 m 417 97 q 579 192 522 97 q 636 489 636 288 q 579 783 636 690 q 417 875 522 875 q 253 783 310 875 q 197 489 197 690 q 253 192 197 288 q 417 97 310 97 z "},"Ọ":{"ha":832,"x_min":68,"x_max":764,"o":"m 415 -8 q 158 114 247 -8 q 68 489 68 236 q 158 861 68 742 q 415 981 247 981 q 674 861 583 981 q 764 489 764 742 q 674 114 764 236 q 415 -8 583 -8 m 417 97 q 579 192 522 97 q 636 489 636 288 q 579 783 636 690 q 417 875 522 875 q 253 783 310 875 q 197 489 197 690 q 253 192 197 288 q 417 97 310 97 z "},"Ò":{"ha":832,"x_min":68,"x_max":764,"o":"m 415 -8 q 158 114 247 -8 q 68 489 68 236 q 158 861 68 742 q 415 981 247 981 q 674 861 583 981 q 764 489 764 742 q 674 114 764 236 q 415 -8 583 -8 m 417 97 q 579 192 522 97 q 636 489 636 288 q 579 783 636 690 q 417 875 522 875 q 253 783 310 875 q 197 489 197 690 q 253 192 197 288 q 417 97 310 97 z "},"Ỏ":{"ha":832,"x_min":68,"x_max":764,"o":"m 415 -8 q 158 114 247 -8 q 68 489 68 236 q 158 861 68 742 q 415 981 247 981 q 674 861 583 981 q 764 489 764 742 q 674 114 764 236 q 415 -8 583 -8 m 417 97 q 579 192 522 97 q 636 489 636 288 q 579 783 636 690 q 417 875 522 875 q 253 783 310 875 q 197 489 197 690 q 253 192 197 288 q 417 97 310 97 m 426 1028 q 399 1035 417 1028 q 381 1051 381 1042 q 424 1104 381 1082 q 467 1179 467 1126 q 415 1217 467 1217 q 370 1208 383 1217 q 351 1199 357 1199 q 331 1217 343 1199 q 318 1244 318 1235 q 354 1273 318 1258 q 426 1288 390 1288 q 507 1267 461 1288 q 553 1189 553 1246 q 525 1107 553 1143 q 466 1049 497 1071 q 426 1028 435 1028 z "},"Ơ":{"ha":832,"x_min":68,"x_max":789,"o":"m 415 -8 q 158 114 247 -8 q 68 489 68 236 q 158 861 68 742 q 415 981 247 981 q 519 967 472 981 q 604 928 565 953 q 649 913 629 913 q 692 928 681 913 q 704 958 704 943 q 687 1010 704 989 q 667 1044 669 1032 q 679 1067 667 1058 l 713 1089 q 729 1094 719 1094 q 771 1058 753 1094 q 789 992 789 1022 q 667 868 789 878 q 764 489 764 746 q 674 114 764 236 q 415 -8 583 -8 m 417 97 q 579 192 522 97 q 636 489 636 288 q 579 783 636 690 q 417 875 522 875 q 253 783 310 875 q 197 489 197 690 q 253 192 197 288 q 417 97 310 97 z "},"Ớ":{"ha":832,"x_min":68,"x_max":789,"o":"m 415 -8 q 158 114 247 -8 q 68 489 68 236 q 158 861 68 742 q 415 981 247 981 q 519 967 472 981 q 604 928 565 953 q 649 913 629 913 q 692 928 681 913 q 704 958 704 943 q 687 1010 704 989 q 667 1044 669 1032 q 679 1067 667 1058 l 713 1089 q 729 1094 719 1094 q 771 1058 753 1094 q 789 992 789 1022 q 667 868 789 878 q 764 489 764 746 q 674 114 764 236 q 415 -8 583 -8 m 417 97 q 579 192 522 97 q 636 489 636 288 q 579 783 636 690 q 417 875 522 875 q 253 783 310 875 q 197 489 197 690 q 253 192 197 288 q 417 97 310 97 z "},"Ợ":{"ha":832,"x_min":68,"x_max":789,"o":"m 415 -8 q 158 114 247 -8 q 68 489 68 236 q 158 861 68 742 q 415 981 247 981 q 519 967 472 981 q 604 928 565 953 q 649 913 629 913 q 692 928 681 913 q 704 958 704 943 q 687 1010 704 989 q 667 1044 669 1032 q 679 1067 667 1058 l 713 1089 q 729 1094 719 1094 q 771 1058 753 1094 q 789 992 789 1022 q 667 868 789 878 q 764 489 764 746 q 674 114 764 236 q 415 -8 583 -8 m 417 97 q 579 192 522 97 q 636 489 636 288 q 579 783 636 690 q 417 875 522 875 q 253 783 310 875 q 197 489 197 690 q 253 192 197 288 q 417 97 310 97 z "},"Ờ":{"ha":832,"x_min":68,"x_max":789,"o":"m 415 -8 q 158 114 247 -8 q 68 489 68 236 q 158 861 68 742 q 415 981 247 981 q 519 967 472 981 q 604 928 565 953 q 649 913 629 913 q 692 928 681 913 q 704 958 704 943 q 687 1010 704 989 q 667 1044 669 1032 q 679 1067 667 1058 l 713 1089 q 729 1094 719 1094 q 771 1058 753 1094 q 789 992 789 1022 q 667 868 789 878 q 764 489 764 746 q 674 114 764 236 q 415 -8 583 -8 m 417 97 q 579 192 522 97 q 636 489 636 288 q 579 783 636 690 q 417 875 522 875 q 253 783 310 875 q 197 489 197 690 q 253 192 197 288 q 417 97 310 97 z "},"Ở":{"ha":832,"x_min":68,"x_max":789,"o":"m 415 -8 q 158 114 247 -8 q 68 489 68 236 q 158 861 68 742 q 415 981 247 981 q 519 967 472 981 q 604 928 565 953 q 649 913 629 913 q 692 928 681 913 q 704 958 704 943 q 687 1010 704 989 q 667 1044 669 1032 q 679 1067 667 1058 l 713 1089 q 729 1094 719 1094 q 771 1058 753 1094 q 789 992 789 1022 q 667 868 789 878 q 764 489 764 746 q 674 114 764 236 q 415 -8 583 -8 m 417 97 q 579 192 522 97 q 636 489 636 288 q 579 783 636 690 q 417 875 522 875 q 253 783 310 875 q 197 489 197 690 q 253 192 197 288 q 417 97 310 97 m 426 1028 q 399 1035 417 1028 q 381 1051 381 1042 q 424 1104 381 1082 q 467 1179 467 1126 q 415 1217 467 1217 q 370 1208 383 1217 q 351 1199 357 1199 q 331 1217 343 1199 q 318 1244 318 1235 q 354 1273 318 1258 q 426 1288 390 1288 q 507 1267 461 1288 q 553 1189 553 1246 q 525 1107 553 1143 q 466 1049 497 1071 q 426 1028 435 1028 z "},"Ỡ":{"ha":832,"x_min":68,"x_max":789,"o":"m 415 -8 q 158 114 247 -8 q 68 489 68 236 q 158 861 68 742 q 415 981 247 981 q 519 967 472 981 q 604 928 565 953 q 649 913 629 913 q 692 928 681 913 q 704 958 704 943 q 687 1010 704 989 q 667 1044 669 1032 q 679 1067 667 1058 l 713 1089 q 729 1094 719 1094 q 771 1058 753 1094 q 789 992 789 1022 q 667 868 789 878 q 764 489 764 746 q 674 114 764 236 q 415 -8 583 -8 m 417 97 q 579 192 522 97 q 636 489 636 288 q 579 783 636 690 q 417 875 522 875 q 253 783 310 875 q 197 489 197 690 q 253 192 197 288 q 417 97 310 97 z "},"Ő":{"ha":832,"x_min":68,"x_max":764,"o":"m 415 -8 q 158 114 247 -8 q 68 489 68 236 q 158 861 68 742 q 415 981 247 981 q 674 861 583 981 q 764 489 764 742 q 674 114 764 236 q 415 -8 583 -8 m 417 97 q 579 192 522 97 q 636 489 636 288 q 579 783 636 690 q 417 875 522 875 q 253 783 310 875 q 197 489 197 690 q 253 192 197 288 q 417 97 310 97 z "},"Ō":{"ha":832,"x_min":68,"x_max":764,"o":"m 415 -8 q 158 114 247 -8 q 68 489 68 236 q 158 861 68 742 q 415 981 247 981 q 674 861 583 981 q 764 489 764 742 q 674 114 764 236 q 415 -8 583 -8 m 417 97 q 579 192 522 97 q 636 489 636 288 q 579 783 636 690 q 417 875 522 875 q 253 783 310 875 q 197 489 197 690 q 253 192 197 288 q 417 97 310 97 z "},"Ǫ":{"ha":832,"x_min":68,"x_max":764,"o":"m 415 -8 q 158 114 247 -8 q 68 489 68 236 q 158 861 68 742 q 415 981 247 981 q 674 861 583 981 q 764 489 764 742 q 674 114 764 236 q 415 -8 583 -8 m 417 97 q 579 192 522 97 q 636 489 636 288 q 579 783 636 690 q 417 875 522 875 q 253 783 310 875 q 197 489 197 690 q 253 192 197 288 q 417 97 310 97 m 536 -247 q 429 -199 450 -247 q 408 -125 408 -151 q 422 -51 408 -97 q 469 35 435 -6 l 529 13 q 501 -49 510 -18 q 493 -100 493 -79 q 517 -150 493 -140 q 563 -160 540 -160 q 592 -155 576 -160 q 618 -150 608 -150 q 646 -183 646 -150 q 628 -221 646 -208 q 536 -247 589 -247 z "},"Ø":{"ha":832,"x_min":68,"x_max":764,"o":"m 138 -8 q 117 -25 128 -25 q 96 -17 107 -25 q 85 1 85 -8 q 92 21 85 13 l 682 979 q 703 994 690 994 q 724 987 713 994 q 735 968 735 979 q 729 951 735 961 l 138 -8 m 415 -8 q 158 114 247 -8 q 68 489 68 236 q 158 861 68 742 q 415 981 247 981 q 674 861 583 981 q 764 489 764 742 q 674 114 764 236 q 415 -8 583 -8 m 417 97 q 579 192 522 97 q 636 489 636 288 q 579 783 636 690 q 417 875 522 875 q 253 783 310 875 q 197 489 197 690 q 253 192 197 288 q 417 97 310 97 z "},"Ǿ":{"ha":832,"x_min":68,"x_max":764,"o":"m 138 -8 q 117 -25 128 -25 q 96 -17 107 -25 q 85 1 85 -8 q 92 21 85 13 l 682 979 q 703 994 690 994 q 724 987 713 994 q 735 968 735 979 q 729 951 735 961 l 138 -8 m 415 -8 q 158 114 247 -8 q 68 489 68 236 q 158 861 68 742 q 415 981 247 981 q 674 861 583 981 q 764 489 764 742 q 674 114 764 236 q 415 -8 583 -8 m 417 97 q 579 192 522 97 q 636 489 636 288 q 579 783 636 690 q 417 875 522 875 q 253 783 310 875 q 197 489 197 690 q 253 192 197 288 q 417 97 310 97 z "},"Õ":{"ha":832,"x_min":68,"x_max":764,"o":"m 415 -8 q 158 114 247 -8 q 68 489 68 236 q 158 861 68 742 q 415 981 247 981 q 674 861 583 981 q 764 489 764 742 q 674 114 764 236 q 415 -8 583 -8 m 417 97 q 579 192 522 97 q 636 489 636 288 q 579 783 636 690 q 417 875 522 875 q 253 783 310 875 q 197 489 197 690 q 253 192 197 288 q 417 97 310 97 z "},"Œ":{"ha":1143,"x_min":68,"x_max":1092,"o":"m 400 -8 q 158 110 247 -8 q 68 490 68 228 q 158 865 68 750 q 404 981 247 981 q 548 949 486 981 q 654 842 610 917 l 629 814 l 629 931 q 667 972 629 972 l 1064 972 q 1090 931 1090 972 l 1090 908 q 1064 867 1090 867 l 754 867 l 754 550 l 1032 550 q 1058 508 1058 550 l 1058 486 q 1032 444 1058 444 l 754 444 l 754 106 l 1065 106 q 1092 64 1092 106 l 1092 42 q 1065 0 1092 0 l 667 0 q 629 42 629 0 l 629 161 l 654 133 q 547 26 608 61 q 400 -8 485 -8 m 408 97 q 572 192 515 97 q 628 489 628 286 q 572 787 628 699 q 408 875 515 875 q 251 787 306 875 q 197 489 197 699 q 251 192 197 286 q 408 97 306 97 z "},"P":{"ha":669,"x_min":101,"x_max":621,"o":"m 154 -3 q 101 28 101 -3 l 101 931 q 139 972 101 972 l 368 972 q 476 953 417 972 q 578 875 535 933 q 621 700 621 817 q 573 512 621 572 q 467 433 525 451 q 379 414 408 414 l 226 414 l 226 28 q 174 -3 226 -3 l 154 -3 m 226 519 l 372 519 q 449 553 406 519 q 493 700 493 586 q 449 835 493 803 q 363 867 406 867 l 226 867 l 226 519 z "},"Þ":{"ha":669,"x_min":101,"x_max":621,"o":"m 154 -3 q 101 28 101 -3 l 101 944 q 154 975 101 975 l 174 975 q 226 944 226 975 l 226 804 l 368 804 q 476 785 417 804 q 578 708 535 765 q 621 532 621 650 q 573 344 621 406 q 467 265 525 283 q 379 246 408 246 l 226 246 l 226 28 q 174 -3 226 -3 l 154 -3 m 226 351 l 372 351 q 448 385 404 351 q 492 532 492 418 q 449 667 492 635 q 361 699 406 699 l 226 699 l 226 351 z "},"Q":{"ha":832,"x_min":68,"x_max":821,"o":"m 753 -235 q 683 -203 746 -235 q 537 -128 621 -172 q 377 -42 453 -83 q 268 18 301 -1 q 119 183 169 68 q 68 486 68 299 q 158 860 68 739 q 415 981 247 981 q 674 860 583 981 q 764 486 764 739 q 705 163 764 281 q 535 8 646 44 l 535 4 l 804 -119 q 821 -142 821 -128 q 809 -172 819 -150 q 784 -215 799 -194 q 753 -235 769 -235 m 417 96 q 579 192 522 96 q 636 486 636 288 q 579 781 636 686 q 417 875 522 875 q 254 781 311 875 q 197 486 197 686 q 254 191 197 286 q 417 96 311 96 z "},"R":{"ha":713,"x_min":107,"x_max":681,"o":"m 160 -3 q 107 28 107 -3 l 107 931 q 144 972 107 972 l 350 972 q 553 915 486 972 q 621 726 621 858 q 585 578 621 636 q 493 492 550 521 l 493 486 q 545 426 524 472 q 589 313 567 381 l 676 39 q 679 28 678 33 q 681 19 681 22 q 626 -3 681 -3 l 603 -3 q 551 19 558 -3 l 468 292 q 412 400 443 372 q 319 428 381 428 l 232 428 l 232 28 q 179 -3 232 -3 l 160 -3 m 231 533 l 371 533 q 456 585 421 533 q 492 704 492 636 q 456 828 492 789 q 363 867 421 867 l 231 867 l 231 533 z "},"Ŕ":{"ha":713,"x_min":107,"x_max":681,"o":"m 160 -3 q 107 28 107 -3 l 107 931 q 144 972 107 972 l 350 972 q 553 915 486 972 q 621 726 621 858 q 585 578 621 636 q 493 492 550 521 l 493 486 q 545 426 524 472 q 589 313 567 381 l 676 39 q 679 28 678 33 q 681 19 681 22 q 626 -3 681 -3 l 603 -3 q 551 19 558 -3 l 468 292 q 412 400 443 372 q 319 428 381 428 l 232 428 l 232 28 q 179 -3 232 -3 l 160 -3 m 231 533 l 371 533 q 456 585 421 533 q 492 704 492 636 q 456 828 492 789 q 363 867 421 867 l 231 867 l 231 533 z "},"Ř":{"ha":713,"x_min":107,"x_max":681,"o":"m 160 -3 q 107 28 107 -3 l 107 931 q 144 972 107 972 l 350 972 q 553 915 486 972 q 621 726 621 858 q 585 578 621 636 q 493 492 550 521 l 493 486 q 545 426 524 472 q 589 313 567 381 l 676 39 q 679 28 678 33 q 681 19 681 22 q 626 -3 681 -3 l 603 -3 q 551 19 558 -3 l 468 292 q 412 400 443 372 q 319 428 381 428 l 232 428 l 232 28 q 179 -3 232 -3 l 160 -3 m 231 533 l 371 533 q 456 585 421 533 q 492 704 492 636 q 456 828 492 789 q 363 867 421 867 l 231 867 l 231 533 z "},"Ŗ":{"ha":713,"x_min":107,"x_max":681,"o":"m 160 -3 q 107 28 107 -3 l 107 931 q 144 972 107 972 l 350 972 q 553 915 486 972 q 621 726 621 858 q 585 578 621 636 q 493 492 550 521 l 493 486 q 545 426 524 472 q 589 313 567 381 l 676 39 q 679 28 678 33 q 681 19 681 22 q 626 -3 681 -3 l 603 -3 q 551 19 558 -3 l 468 292 q 412 400 443 372 q 319 428 381 428 l 232 428 l 232 28 q 179 -3 232 -3 l 160 -3 m 231 533 l 371 533 q 456 585 421 533 q 492 704 492 636 q 456 828 492 789 q 363 867 421 867 l 231 867 l 231 533 m 292 -326 q 267 -322 281 -326 q 253 -306 253 -318 q 273 -238 253 -282 q 293 -115 293 -194 q 346 -71 293 -71 l 360 -71 q 408 -110 408 -71 q 364 -268 408 -210 q 292 -326 319 -326 z "},"Ṛ":{"ha":713,"x_min":107,"x_max":681,"o":"m 160 -3 q 107 28 107 -3 l 107 931 q 144 972 107 972 l 350 972 q 553 915 486 972 q 621 726 621 858 q 585 578 621 636 q 493 492 550 521 l 493 486 q 545 426 524 472 q 589 313 567 381 l 676 39 q 679 28 678 33 q 681 19 681 22 q 626 -3 681 -3 l 603 -3 q 551 19 558 -3 l 468 292 q 412 400 443 372 q 319 428 381 428 l 232 428 l 232 28 q 179 -3 232 -3 l 160 -3 m 231 533 l 371 533 q 456 585 421 533 q 492 704 492 636 q 456 828 492 789 q 363 867 421 867 l 231 867 l 231 533 z "},"S":{"ha":607,"x_min":44,"x_max":567,"o":"m 278 -7 q 158 9 214 -7 q 60 57 103 25 q 44 89 44 68 q 53 139 44 110 q 76 168 61 168 q 84 166 82 168 q 89 163 86 164 q 172 119 124 136 q 282 103 221 103 q 397 144 351 103 q 443 260 443 186 q 401 369 443 332 q 300 435 358 406 q 138 536 210 479 q 65 715 65 593 q 147 915 65 843 q 353 988 228 988 q 443 977 400 988 q 522 946 486 967 q 532 929 532 940 q 519 879 532 914 q 493 844 507 844 q 475 851 489 844 q 416 871 450 864 q 346 878 382 878 q 236 842 285 878 q 188 729 188 806 q 231 623 188 661 q 350 546 275 585 q 499 448 432 504 q 567 269 567 392 q 484 65 567 136 q 278 -7 401 -7 z "},"Ś":{"ha":607,"x_min":44,"x_max":567,"o":"m 278 -7 q 158 9 214 -7 q 60 57 103 25 q 44 89 44 68 q 53 139 44 110 q 76 168 61 168 q 84 166 82 168 q 89 163 86 164 q 172 119 124 136 q 282 103 221 103 q 397 144 351 103 q 443 260 443 186 q 401 369 443 332 q 300 435 358 406 q 138 536 210 479 q 65 715 65 593 q 147 915 65 843 q 353 988 228 988 q 443 977 400 988 q 522 946 486 967 q 532 929 532 940 q 519 879 532 914 q 493 844 507 844 q 475 851 489 844 q 416 871 450 864 q 346 878 382 878 q 236 842 285 878 q 188 729 188 806 q 231 623 188 661 q 350 546 275 585 q 499 448 432 504 q 567 269 567 392 q 484 65 567 136 q 278 -7 401 -7 z "},"Š":{"ha":607,"x_min":44,"x_max":567,"o":"m 278 -7 q 158 9 214 -7 q 60 57 103 25 q 44 89 44 68 q 53 139 44 110 q 76 168 61 168 q 84 166 82 168 q 89 163 86 164 q 172 119 124 136 q 282 103 221 103 q 397 144 351 103 q 443 260 443 186 q 401 369 443 332 q 300 435 358 406 q 138 536 210 479 q 65 715 65 593 q 147 915 65 843 q 353 988 228 988 q 443 977 400 988 q 522 946 486 967 q 532 929 532 940 q 519 879 532 914 q 493 844 507 844 q 475 851 489 844 q 416 871 450 864 q 346 878 382 878 q 236 842 285 878 q 188 729 188 806 q 231 623 188 661 q 350 546 275 585 q 499 448 432 504 q 567 269 567 392 q 484 65 567 136 q 278 -7 401 -7 z "},"Ş":{"ha":607,"x_min":44,"x_max":567,"o":"m 278 -7 q 158 9 214 -7 q 60 57 103 25 q 44 89 44 68 q 53 139 44 110 q 76 168 61 168 q 84 166 82 168 q 89 163 86 164 q 172 119 124 136 q 282 103 221 103 q 397 144 351 103 q 443 260 443 186 q 401 369 443 332 q 300 435 358 406 q 138 536 210 479 q 65 715 65 593 q 147 915 65 843 q 353 988 228 988 q 443 977 400 988 q 522 946 486 967 q 532 929 532 940 q 519 879 532 914 q 493 844 507 844 q 475 851 489 844 q 416 871 450 864 q 346 878 382 878 q 236 842 285 878 q 188 729 188 806 q 231 623 188 661 q 350 546 275 585 q 499 448 432 504 q 567 269 567 392 q 484 65 567 136 q 278 -7 401 -7 z "},"Ŝ":{"ha":607,"x_min":44,"x_max":567,"o":"m 278 -7 q 158 9 214 -7 q 60 57 103 25 q 44 89 44 68 q 53 139 44 110 q 76 168 61 168 q 84 166 82 168 q 89 163 86 164 q 172 119 124 136 q 282 103 221 103 q 397 144 351 103 q 443 260 443 186 q 401 369 443 332 q 300 435 358 406 q 138 536 210 479 q 65 715 65 593 q 147 915 65 843 q 353 988 228 988 q 443 977 400 988 q 522 946 486 967 q 532 929 532 940 q 519 879 532 914 q 493 844 507 844 q 475 851 489 844 q 416 871 450 864 q 346 878 382 878 q 236 842 285 878 q 188 729 188 806 q 231 623 188 661 q 350 546 275 585 q 499 448 432 504 q 567 269 567 392 q 484 65 567 136 q 278 -7 401 -7 z "},"Ș":{"ha":607,"x_min":44,"x_max":567,"o":"m 278 -7 q 158 9 214 -7 q 60 57 103 25 q 44 89 44 68 q 53 139 44 110 q 76 168 61 168 q 84 166 82 168 q 89 163 86 164 q 172 119 124 136 q 282 103 221 103 q 397 144 351 103 q 443 260 443 186 q 401 369 443 332 q 300 435 358 406 q 138 536 210 479 q 65 715 65 593 q 147 915 65 843 q 353 988 228 988 q 443 977 400 988 q 522 946 486 967 q 532 929 532 940 q 519 879 532 914 q 493 844 507 844 q 475 851 489 844 q 416 871 450 864 q 346 878 382 878 q 236 842 285 878 q 188 729 188 806 q 231 623 188 661 q 350 546 275 585 q 499 448 432 504 q 567 269 567 392 q 484 65 567 136 q 278 -7 401 -7 m 244 -326 q 219 -322 233 -326 q 206 -306 206 -318 q 226 -238 206 -282 q 246 -115 246 -194 q 299 -71 246 -71 l 313 -71 q 361 -110 361 -71 q 317 -268 361 -210 q 244 -326 272 -326 z "},"Ṣ":{"ha":607,"x_min":44,"x_max":567,"o":"m 278 -7 q 158 9 214 -7 q 60 57 103 25 q 44 89 44 68 q 53 139 44 110 q 76 168 61 168 q 84 166 82 168 q 89 163 86 164 q 172 119 124 136 q 282 103 221 103 q 397 144 351 103 q 443 260 443 186 q 401 369 443 332 q 300 435 358 406 q 138 536 210 479 q 65 715 65 593 q 147 915 65 843 q 353 988 228 988 q 443 977 400 988 q 522 946 486 967 q 532 929 532 940 q 519 879 532 914 q 493 844 507 844 q 475 851 489 844 q 416 871 450 864 q 346 878 382 878 q 236 842 285 878 q 188 729 188 806 q 231 623 188 661 q 350 546 275 585 q 499 448 432 504 q 567 269 567 392 q 484 65 567 136 q 278 -7 401 -7 z "},"ẞ":{"ha":824,"x_min":107,"x_max":769,"o":"m 499 -8 q 400 5 444 -8 q 330 37 356 18 q 304 72 304 56 q 323 115 304 90 q 353 140 342 140 q 406 116 379 140 q 490 92 433 92 q 594 131 539 92 q 649 288 649 169 q 604 428 649 390 q 489 467 560 467 l 440 467 q 419 493 431 467 q 407 540 407 519 q 411 557 407 550 l 585 850 q 517 868 557 861 q 432 875 478 875 q 278 815 326 875 q 229 619 229 756 l 229 28 q 174 -3 229 -3 l 163 -3 q 107 28 107 -3 l 107 621 q 425 979 107 983 q 578 963 506 978 q 697 932 650 947 q 717 904 706 929 q 728 858 728 879 q 724 842 728 847 l 560 571 q 710 483 650 553 q 769 286 769 414 q 727 111 769 175 q 622 19 685 47 q 499 -8 558 -8 z "},"Ə":{"ha":778,"x_min":67,"x_max":674,"o":"m 353 -12 q 136 94 206 -12 q 67 447 67 201 q 83 482 67 460 q 111 504 100 504 l 549 504 q 492 799 543 718 q 346 881 440 881 q 194 845 253 881 q 121 810 136 810 q 92 839 108 810 q 76 879 76 868 q 116 922 76 897 q 220 963 156 946 q 358 981 285 981 q 592 865 511 981 q 674 472 674 749 q 591 99 674 211 q 353 -12 508 -12 m 356 88 q 490 157 440 88 q 549 404 539 226 l 189 404 q 229 160 189 232 q 356 88 269 88 z "},"T":{"ha":631,"x_min":28,"x_max":604,"o":"m 307 -3 q 254 28 254 -3 l 254 867 l 54 867 q 28 908 28 867 l 28 931 q 54 972 28 972 l 576 972 q 604 931 604 972 l 604 908 q 576 867 604 867 l 379 867 l 379 28 q 326 -3 379 -3 l 307 -3 z "},"Ŧ":{"ha":610,"x_min":28,"x_max":604,"o":"m 107 442 q 81 483 81 442 l 81 497 q 107 539 81 539 l 507 539 q 533 497 533 539 l 533 483 q 507 442 533 442 l 107 442 m 307 -3 q 254 28 254 -3 l 254 867 l 54 867 q 28 908 28 867 l 28 931 q 54 972 28 972 l 576 972 q 604 931 604 972 l 604 908 q 576 867 604 867 l 379 867 l 379 28 q 326 -3 379 -3 l 307 -3 z "},"Ť":{"ha":631,"x_min":28,"x_max":604,"o":"m 307 -3 q 254 28 254 -3 l 254 867 l 54 867 q 28 908 28 867 l 28 931 q 54 972 28 972 l 576 972 q 604 931 604 972 l 604 908 q 576 867 604 867 l 379 867 l 379 28 q 326 -3 379 -3 l 307 -3 z "},"Ţ":{"ha":631,"x_min":28,"x_max":604,"o":"m 307 -3 q 254 28 254 -3 l 254 867 l 54 867 q 28 908 28 867 l 28 931 q 54 972 28 972 l 576 972 q 604 931 604 972 l 604 908 q 576 867 604 867 l 379 867 l 379 28 q 326 -3 379 -3 l 307 -3 z "},"Ț":{"ha":631,"x_min":28,"x_max":604,"o":"m 307 -3 q 254 28 254 -3 l 254 867 l 54 867 q 28 908 28 867 l 28 931 q 54 972 28 972 l 576 972 q 604 931 604 972 l 604 908 q 576 867 604 867 l 379 867 l 379 28 q 326 -3 379 -3 l 307 -3 m 254 -326 q 229 -322 243 -326 q 215 -306 215 -318 q 235 -238 215 -282 q 256 -115 256 -194 q 308 -71 256 -71 l 322 -71 q 371 -110 371 -71 q 326 -268 371 -210 q 254 -326 282 -326 z "},"Ṭ":{"ha":631,"x_min":28,"x_max":604,"o":"m 307 -3 q 254 28 254 -3 l 254 867 l 54 867 q 28 908 28 867 l 28 931 q 54 972 28 972 l 576 972 q 604 931 604 972 l 604 908 q 576 867 604 867 l 379 867 l 379 28 q 326 -3 379 -3 l 307 -3 z "},"U":{"ha":810,"x_min":94,"x_max":715,"o":"m 406 -8 q 175 65 256 -8 q 94 271 94 139 l 94 944 q 147 975 94 975 l 167 975 q 219 944 219 975 l 219 267 q 272 144 219 192 q 406 97 325 97 q 538 145 486 97 q 590 267 590 193 l 590 944 q 643 975 590 975 l 663 975 q 715 944 715 975 l 715 271 q 635 65 715 139 q 406 -8 554 -8 z "},"Ú":{"ha":810,"x_min":94,"x_max":715,"o":"m 406 -8 q 175 65 256 -8 q 94 271 94 139 l 94 944 q 147 975 94 975 l 167 975 q 219 944 219 975 l 219 267 q 272 144 219 192 q 406 97 325 97 q 538 145 486 97 q 590 267 590 193 l 590 944 q 643 975 590 975 l 663 975 q 715 944 715 975 l 715 271 q 635 65 715 139 q 406 -8 554 -8 z "},"Ŭ":{"ha":810,"x_min":94,"x_max":715,"o":"m 406 -8 q 175 65 256 -8 q 94 271 94 139 l 94 944 q 147 975 94 975 l 167 975 q 219 944 219 975 l 219 267 q 272 144 219 192 q 406 97 325 97 q 538 145 486 97 q 590 267 590 193 l 590 944 q 643 975 590 975 l 663 975 q 715 944 715 975 l 715 271 q 635 65 715 139 q 406 -8 554 -8 z "},"Û":{"ha":810,"x_min":94,"x_max":715,"o":"m 406 -8 q 175 65 256 -8 q 94 271 94 139 l 94 944 q 147 975 94 975 l 167 975 q 219 944 219 975 l 219 267 q 272 144 219 192 q 406 97 325 97 q 538 145 486 97 q 590 267 590 193 l 590 944 q 643 975 590 975 l 663 975 q 715 944 715 975 l 715 271 q 635 65 715 139 q 406 -8 554 -8 z "},"Ü":{"ha":810,"x_min":94,"x_max":715,"o":"m 406 -8 q 175 65 256 -8 q 94 271 94 139 l 94 944 q 147 975 94 975 l 167 975 q 219 944 219 975 l 219 267 q 272 144 219 192 q 406 97 325 97 q 538 145 486 97 q 590 267 590 193 l 590 944 q 643 975 590 975 l 663 975 q 715 944 715 975 l 715 271 q 635 65 715 139 q 406 -8 554 -8 z "},"Ụ":{"ha":810,"x_min":94,"x_max":715,"o":"m 406 -8 q 175 65 256 -8 q 94 271 94 139 l 94 944 q 147 975 94 975 l 167 975 q 219 944 219 975 l 219 267 q 272 144 219 192 q 406 97 325 97 q 538 145 486 97 q 590 267 590 193 l 590 944 q 643 975 590 975 l 663 975 q 715 944 715 975 l 715 271 q 635 65 715 139 q 406 -8 554 -8 z "},"Ù":{"ha":810,"x_min":94,"x_max":715,"o":"m 406 -8 q 175 65 256 -8 q 94 271 94 139 l 94 944 q 147 975 94 975 l 167 975 q 219 944 219 975 l 219 267 q 272 144 219 192 q 406 97 325 97 q 538 145 486 97 q 590 267 590 193 l 590 944 q 643 975 590 975 l 663 975 q 715 944 715 975 l 715 271 q 635 65 715 139 q 406 -8 554 -8 z "},"Ủ":{"ha":810,"x_min":94,"x_max":715,"o":"m 406 -8 q 175 65 256 -8 q 94 271 94 139 l 94 944 q 147 975 94 975 l 167 975 q 219 944 219 975 l 219 267 q 272 144 219 192 q 406 97 325 97 q 538 145 486 97 q 590 267 590 193 l 590 944 q 643 975 590 975 l 663 975 q 715 944 715 975 l 715 271 q 635 65 715 139 q 406 -8 554 -8 m 415 1028 q 388 1035 406 1028 q 369 1051 369 1042 q 413 1104 369 1082 q 456 1179 456 1126 q 404 1217 456 1217 q 359 1208 372 1217 q 340 1199 346 1199 q 319 1217 332 1199 q 307 1244 307 1235 q 343 1273 307 1258 q 415 1288 379 1288 q 496 1267 450 1288 q 542 1189 542 1246 q 514 1107 542 1143 q 455 1049 486 1071 q 415 1028 424 1028 z "},"Ư":{"ha":792,"x_min":85,"x_max":818,"o":"m 818 1054 q 706 932 818 944 l 706 271 q 625 65 706 139 q 396 -8 544 -8 q 165 65 246 -8 q 85 271 85 139 l 85 944 q 138 975 85 975 l 157 975 q 210 944 210 975 l 210 267 q 262 144 210 192 q 396 97 314 97 q 529 145 478 97 q 581 267 581 193 l 581 944 q 633 975 581 975 l 674 975 q 721 990 708 975 q 733 1021 733 1006 q 715 1074 733 1053 q 696 1107 697 1094 q 708 1129 696 1121 l 742 1151 q 758 1157 749 1157 q 800 1121 782 1157 q 818 1054 818 1085 z "},"Ứ":{"ha":792,"x_min":85,"x_max":818,"o":"m 818 1054 q 706 932 818 944 l 706 271 q 625 65 706 139 q 396 -8 544 -8 q 165 65 246 -8 q 85 271 85 139 l 85 944 q 138 975 85 975 l 157 975 q 210 944 210 975 l 210 267 q 262 144 210 192 q 396 97 314 97 q 529 145 478 97 q 581 267 581 193 l 581 944 q 633 975 581 975 l 674 975 q 721 990 708 975 q 733 1021 733 1006 q 715 1074 733 1053 q 696 1107 697 1094 q 708 1129 696 1121 l 742 1151 q 758 1157 749 1157 q 800 1121 782 1157 q 818 1054 818 1085 z "},"Ự":{"ha":792,"x_min":85,"x_max":818,"o":"m 818 1054 q 706 932 818 944 l 706 271 q 625 65 706 139 q 396 -8 544 -8 q 165 65 246 -8 q 85 271 85 139 l 85 944 q 138 975 85 975 l 157 975 q 210 944 210 975 l 210 267 q 262 144 210 192 q 396 97 314 97 q 529 145 478 97 q 581 267 581 193 l 581 944 q 633 975 581 975 l 674 975 q 721 990 708 975 q 733 1021 733 1006 q 715 1074 733 1053 q 696 1107 697 1094 q 708 1129 696 1121 l 742 1151 q 758 1157 749 1157 q 800 1121 782 1157 q 818 1054 818 1085 z "},"Ừ":{"ha":792,"x_min":85,"x_max":818,"o":"m 818 1054 q 706 932 818 944 l 706 271 q 625 65 706 139 q 396 -8 544 -8 q 165 65 246 -8 q 85 271 85 139 l 85 944 q 138 975 85 975 l 157 975 q 210 944 210 975 l 210 267 q 262 144 210 192 q 396 97 314 97 q 529 145 478 97 q 581 267 581 193 l 581 944 q 633 975 581 975 l 674 975 q 721 990 708 975 q 733 1021 733 1006 q 715 1074 733 1053 q 696 1107 697 1094 q 708 1129 696 1121 l 742 1151 q 758 1157 749 1157 q 800 1121 782 1157 q 818 1054 818 1085 z "},"Ử":{"ha":792,"x_min":85,"x_max":818,"o":"m 818 1054 q 706 932 818 944 l 706 271 q 625 65 706 139 q 396 -8 544 -8 q 165 65 246 -8 q 85 271 85 139 l 85 944 q 138 975 85 975 l 157 975 q 210 944 210 975 l 210 267 q 262 144 210 192 q 396 97 314 97 q 529 145 478 97 q 581 267 581 193 l 581 944 q 633 975 581 975 l 674 975 q 721 990 708 975 q 733 1021 733 1006 q 715 1074 733 1053 q 696 1107 697 1094 q 708 1129 696 1121 l 742 1151 q 758 1157 749 1157 q 800 1121 782 1157 q 818 1054 818 1085 m 406 1028 q 378 1035 396 1028 q 360 1051 360 1042 q 403 1104 360 1082 q 446 1179 446 1126 q 394 1217 446 1217 q 349 1208 363 1217 q 331 1199 336 1199 q 310 1217 322 1199 q 297 1244 297 1235 q 333 1273 297 1258 q 406 1288 369 1288 q 486 1267 440 1288 q 532 1189 532 1246 q 504 1107 532 1143 q 445 1049 476 1071 q 406 1028 414 1028 z "},"Ữ":{"ha":792,"x_min":85,"x_max":818,"o":"m 818 1054 q 706 932 818 944 l 706 271 q 625 65 706 139 q 396 -8 544 -8 q 165 65 246 -8 q 85 271 85 139 l 85 944 q 138 975 85 975 l 157 975 q 210 944 210 975 l 210 267 q 262 144 210 192 q 396 97 314 97 q 529 145 478 97 q 581 267 581 193 l 581 944 q 633 975 581 975 l 674 975 q 721 990 708 975 q 733 1021 733 1006 q 715 1074 733 1053 q 696 1107 697 1094 q 708 1129 696 1121 l 742 1151 q 758 1157 749 1157 q 800 1121 782 1157 q 818 1054 818 1085 z "},"Ű":{"ha":810,"x_min":94,"x_max":715,"o":"m 406 -8 q 175 65 256 -8 q 94 271 94 139 l 94 944 q 147 975 94 975 l 167 975 q 219 944 219 975 l 219 267 q 272 144 219 192 q 406 97 325 97 q 538 145 486 97 q 590 267 590 193 l 590 944 q 643 975 590 975 l 663 975 q 715 944 715 975 l 715 271 q 635 65 715 139 q 406 -8 554 -8 z "},"Ū":{"ha":810,"x_min":94,"x_max":715,"o":"m 406 -8 q 175 65 256 -8 q 94 271 94 139 l 94 944 q 147 975 94 975 l 167 975 q 219 944 219 975 l 219 267 q 272 144 219 192 q 406 97 325 97 q 538 145 486 97 q 590 267 590 193 l 590 944 q 643 975 590 975 l 663 975 q 715 944 715 975 l 715 271 q 635 65 715 139 q 406 -8 554 -8 z "},"Ų":{"ha":810,"x_min":94,"x_max":715,"o":"m 406 -8 q 175 65 256 -8 q 94 271 94 139 l 94 944 q 147 975 94 975 l 167 975 q 219 944 219 975 l 219 267 q 272 144 219 192 q 406 97 325 97 q 538 145 486 97 q 590 267 590 193 l 590 944 q 643 975 590 975 l 663 975 q 715 944 715 975 l 715 271 q 635 65 715 139 q 406 -8 554 -8 m 588 -229 q 481 -181 501 -229 q 460 -107 460 -133 q 473 -33 460 -79 q 521 53 486 13 l 581 31 q 553 -31 561 0 q 544 -82 544 -61 q 568 -132 544 -122 q 614 -142 592 -142 q 644 -137 628 -142 q 669 -132 660 -132 q 697 -165 697 -132 q 679 -203 697 -190 q 588 -229 640 -229 z "},"Ů":{"ha":810,"x_min":94,"x_max":715,"o":"m 406 -8 q 175 65 256 -8 q 94 271 94 139 l 94 944 q 147 975 94 975 l 167 975 q 219 944 219 975 l 219 267 q 272 144 219 192 q 406 97 325 97 q 538 145 486 97 q 590 267 590 193 l 590 944 q 643 975 590 975 l 663 975 q 715 944 715 975 l 715 271 q 635 65 715 139 q 406 -8 554 -8 z "},"Ũ":{"ha":810,"x_min":94,"x_max":715,"o":"m 406 -8 q 175 65 256 -8 q 94 271 94 139 l 94 944 q 147 975 94 975 l 167 975 q 219 944 219 975 l 219 267 q 272 144 219 192 q 406 97 325 97 q 538 145 486 97 q 590 267 590 193 l 590 944 q 643 975 590 975 l 663 975 q 715 944 715 975 l 715 271 q 635 65 715 139 q 406 -8 554 -8 z "},"V":{"ha":706,"x_min":26,"x_max":678,"o":"m 322 -3 q 272 19 278 -3 l 31 933 q 28 943 29 939 q 26 951 26 947 q 82 975 26 975 l 101 975 q 153 953 146 975 l 339 214 l 350 142 l 354 142 l 367 215 l 554 953 q 606 975 560 975 l 622 975 q 678 951 678 975 q 674 932 678 944 l 432 19 q 381 -3 426 -3 l 322 -3 z "},"W":{"ha":1044,"x_min":26,"x_max":1019,"o":"m 272 -3 q 222 19 226 -3 l 29 932 q 27 942 28 938 q 26 949 26 946 q 82 975 26 975 l 100 975 q 154 953 150 975 l 282 282 q 296 195 292 232 q 304 128 300 158 q 318 207 311 167 q 332 286 325 247 l 461 951 q 511 975 467 975 l 539 975 q 589 951 583 975 l 719 283 q 734 198 728 243 q 743 128 740 153 q 755 200 750 169 q 769 282 760 231 l 893 953 q 949 975 897 975 l 964 975 q 1019 949 1019 975 q 1017 932 1019 946 l 822 19 q 772 -3 818 -3 l 717 -3 q 667 19 671 -3 l 544 604 l 522 778 l 500 604 l 378 19 q 328 -3 374 -3 l 272 -3 z "},"Ẃ":{"ha":1044,"x_min":26,"x_max":1019,"o":"m 272 -3 q 222 19 226 -3 l 29 932 q 27 942 28 938 q 26 949 26 946 q 82 975 26 975 l 100 975 q 154 953 150 975 l 282 282 q 296 195 292 232 q 304 128 300 158 q 318 207 311 167 q 332 286 325 247 l 461 951 q 511 975 467 975 l 539 975 q 589 951 583 975 l 719 283 q 734 198 728 243 q 743 128 740 153 q 755 200 750 169 q 769 282 760 231 l 893 953 q 949 975 897 975 l 964 975 q 1019 949 1019 975 q 1017 932 1019 946 l 822 19 q 772 -3 818 -3 l 717 -3 q 667 19 671 -3 l 544 604 l 522 778 l 500 604 l 378 19 q 328 -3 374 -3 l 272 -3 z "},"Ŵ":{"ha":1044,"x_min":26,"x_max":1019,"o":"m 272 -3 q 222 19 226 -3 l 29 932 q 27 942 28 938 q 26 949 26 946 q 82 975 26 975 l 100 975 q 154 953 150 975 l 282 282 q 296 195 292 232 q 304 128 300 158 q 318 207 311 167 q 332 286 325 247 l 461 951 q 511 975 467 975 l 539 975 q 589 951 583 975 l 719 283 q 734 198 728 243 q 743 128 740 153 q 755 200 750 169 q 769 282 760 231 l 893 953 q 949 975 897 975 l 964 975 q 1019 949 1019 975 q 1017 932 1019 946 l 822 19 q 772 -3 818 -3 l 717 -3 q 667 19 671 -3 l 544 604 l 522 778 l 500 604 l 378 19 q 328 -3 374 -3 l 272 -3 z "},"Ẅ":{"ha":1044,"x_min":26,"x_max":1019,"o":"m 272 -3 q 222 19 226 -3 l 29 932 q 27 942 28 938 q 26 949 26 946 q 82 975 26 975 l 100 975 q 154 953 150 975 l 282 282 q 296 195 292 232 q 304 128 300 158 q 318 207 311 167 q 332 286 325 247 l 461 951 q 511 975 467 975 l 539 975 q 589 951 583 975 l 719 283 q 734 198 728 243 q 743 128 740 153 q 755 200 750 169 q 769 282 760 231 l 893 953 q 949 975 897 975 l 964 975 q 1019 949 1019 975 q 1017 932 1019 946 l 822 19 q 772 -3 818 -3 l 717 -3 q 667 19 671 -3 l 544 604 l 522 778 l 500 604 l 378 19 q 328 -3 374 -3 l 272 -3 z "},"Ẁ":{"ha":1044,"x_min":26,"x_max":1019,"o":"m 272 -3 q 222 19 226 -3 l 29 932 q 27 942 28 938 q 26 949 26 946 q 82 975 26 975 l 100 975 q 154 953 150 975 l 282 282 q 296 195 292 232 q 304 128 300 158 q 318 207 311 167 q 332 286 325 247 l 461 951 q 511 975 467 975 l 539 975 q 589 951 583 975 l 719 283 q 734 198 728 243 q 743 128 740 153 q 755 200 750 169 q 769 282 760 231 l 893 953 q 949 975 897 975 l 964 975 q 1019 949 1019 975 q 1017 932 1019 946 l 822 19 q 772 -3 818 -3 l 717 -3 q 667 19 671 -3 l 544 604 l 522 778 l 500 604 l 378 19 q 328 -3 374 -3 l 272 -3 z "},"X":{"ha":703,"x_min":29,"x_max":675,"o":"m 88 -3 q 29 21 29 -3 q 39 46 29 26 l 272 507 l 65 926 q 56 951 56 943 q 114 975 56 975 l 142 975 q 175 972 161 975 q 194 954 189 968 l 354 606 l 521 956 q 542 972 528 968 q 575 975 556 975 l 594 975 q 653 951 653 975 q 643 926 653 946 l 432 514 l 665 46 q 672 32 669 38 q 675 21 675 26 q 617 -3 675 -3 l 589 -3 q 556 1 569 -3 q 535 18 542 6 l 351 414 l 163 17 q 142 1 156 4 q 108 -3 128 -3 l 88 -3 z "},"Y":{"ha":672,"x_min":28,"x_max":644,"o":"m 326 -3 q 274 28 274 -3 l 274 440 l 38 926 q 28 951 28 943 q 86 975 28 975 l 111 975 q 145 972 132 975 q 165 954 158 968 l 340 563 l 517 956 q 538 972 522 968 q 572 975 553 975 l 592 975 q 644 951 644 974 q 636 926 644 942 l 399 436 l 399 28 q 346 -3 399 -3 l 326 -3 z "},"Ý":{"ha":672,"x_min":28,"x_max":644,"o":"m 326 -3 q 274 28 274 -3 l 274 440 l 38 926 q 28 951 28 943 q 86 975 28 975 l 111 975 q 145 972 132 975 q 165 954 158 968 l 340 563 l 517 956 q 538 972 522 968 q 572 975 553 975 l 592 975 q 644 951 644 974 q 636 926 644 942 l 399 436 l 399 28 q 346 -3 399 -3 l 326 -3 z "},"Ŷ":{"ha":672,"x_min":28,"x_max":644,"o":"m 326 -3 q 274 28 274 -3 l 274 440 l 38 926 q 28 951 28 943 q 86 975 28 975 l 111 975 q 145 972 132 975 q 165 954 158 968 l 340 563 l 517 956 q 538 972 522 968 q 572 975 553 975 l 592 975 q 644 951 644 974 q 636 926 644 942 l 399 436 l 399 28 q 346 -3 399 -3 l 326 -3 z "},"Ÿ":{"ha":672,"x_min":28,"x_max":644,"o":"m 326 -3 q 274 28 274 -3 l 274 440 l 38 926 q 28 951 28 943 q 86 975 28 975 l 111 975 q 145 972 132 975 q 165 954 158 968 l 340 563 l 517 956 q 538 972 522 968 q 572 975 553 975 l 592 975 q 644 951 644 974 q 636 926 644 942 l 399 436 l 399 28 q 346 -3 399 -3 l 326 -3 z "},"Ỵ":{"ha":672,"x_min":28,"x_max":644,"o":"m 326 -3 q 274 28 274 -3 l 274 440 l 38 926 q 28 951 28 943 q 86 975 28 975 l 111 975 q 145 972 132 975 q 165 954 158 968 l 340 563 l 517 956 q 538 972 522 968 q 572 975 553 975 l 592 975 q 644 951 644 974 q 636 926 644 942 l 399 436 l 399 28 q 346 -3 399 -3 l 326 -3 z "},"Ỳ":{"ha":672,"x_min":28,"x_max":644,"o":"m 326 -3 q 274 28 274 -3 l 274 440 l 38 926 q 28 951 28 943 q 86 975 28 975 l 111 975 q 145 972 132 975 q 165 954 158 968 l 340 563 l 517 956 q 538 972 522 968 q 572 975 553 975 l 592 975 q 644 951 644 974 q 636 926 644 942 l 399 436 l 399 28 q 346 -3 399 -3 l 326 -3 z "},"Ỷ":{"ha":672,"x_min":28,"x_max":644,"o":"m 326 -3 q 274 28 274 -3 l 274 440 l 38 926 q 28 951 28 943 q 86 975 28 975 l 111 975 q 145 972 132 975 q 165 954 158 968 l 340 563 l 517 956 q 538 972 522 968 q 572 975 553 975 l 592 975 q 644 951 644 974 q 636 926 644 942 l 399 436 l 399 28 q 346 -3 399 -3 l 326 -3 m 346 1028 q 318 1035 336 1028 q 300 1051 300 1042 q 343 1104 300 1082 q 386 1179 386 1126 q 335 1217 386 1217 q 290 1208 303 1217 q 271 1199 276 1199 q 250 1217 263 1199 q 238 1244 238 1235 q 274 1273 238 1258 q 346 1288 310 1288 q 426 1267 381 1288 q 472 1189 472 1246 q 444 1107 472 1143 q 385 1049 417 1071 q 346 1028 354 1028 z "},"Ỹ":{"ha":672,"x_min":28,"x_max":644,"o":"m 326 -3 q 274 28 274 -3 l 274 440 l 38 926 q 28 951 28 943 q 86 975 28 975 l 111 975 q 145 972 132 975 q 165 954 158 968 l 340 563 l 517 956 q 538 972 522 968 q 572 975 553 975 l 592 975 q 644 951 644 974 q 636 926 644 942 l 399 436 l 399 28 q 346 -3 399 -3 l 326 -3 z "},"Z":{"ha":704,"x_min":47,"x_max":647,"o":"m 81 0 q 58 26 69 0 q 47 74 47 53 q 50 90 47 82 l 496 867 l 108 867 q 83 914 83 867 l 83 925 q 108 972 83 972 l 617 972 q 637 947 626 972 q 647 899 647 921 q 646 882 647 886 l 203 106 l 621 106 q 647 58 647 106 l 647 47 q 621 0 647 0 l 81 0 z "},"Ź":{"ha":704,"x_min":47,"x_max":647,"o":"m 81 0 q 58 26 69 0 q 47 74 47 53 q 50 90 47 82 l 496 867 l 108 867 q 83 914 83 867 l 83 925 q 108 972 83 972 l 617 972 q 637 947 626 972 q 647 899 647 921 q 646 882 647 886 l 203 106 l 621 106 q 647 58 647 106 l 647 47 q 621 0 647 0 l 81 0 z "},"Ž":{"ha":704,"x_min":47,"x_max":647,"o":"m 81 0 q 58 26 69 0 q 47 74 47 53 q 50 90 47 82 l 496 867 l 108 867 q 83 914 83 867 l 83 925 q 108 972 83 972 l 617 972 q 637 947 626 972 q 647 899 647 921 q 646 882 647 886 l 203 106 l 621 106 q 647 58 647 106 l 647 47 q 621 0 647 0 l 81 0 z "},"Ż":{"ha":704,"x_min":47,"x_max":647,"o":"m 81 0 q 58 26 69 0 q 47 74 47 53 q 50 90 47 82 l 496 867 l 108 867 q 83 914 83 867 l 83 925 q 108 972 83 972 l 617 972 q 637 947 626 972 q 647 899 647 921 q 646 882 647 886 l 203 106 l 621 106 q 647 58 647 106 l 647 47 q 621 0 647 0 l 81 0 z "},"Ẓ":{"ha":704,"x_min":47,"x_max":647,"o":"m 81 0 q 58 26 69 0 q 47 74 47 53 q 50 90 47 82 l 496 867 l 108 867 q 83 914 83 867 l 83 925 q 108 972 83 972 l 617 972 q 637 947 626 972 q 647 899 647 921 q 646 882 647 886 l 203 106 l 621 106 q 647 58 647 106 l 647 47 q 621 0 647 0 l 81 0 z "},"a":{"ha":668,"x_min":71,"x_max":578,"o":"m 274 -8 q 126 47 182 -8 q 71 207 71 101 q 129 373 71 319 q 274 443 188 426 q 444 461 360 460 l 444 526 q 418 602 444 569 q 324 635 392 635 q 201 610 246 635 q 144 585 156 585 q 113 613 131 585 q 96 653 96 642 q 166 708 96 681 q 325 735 236 735 q 499 679 436 735 q 561 525 561 624 l 561 206 q 569 78 561 119 q 578 31 578 36 q 563 10 578 17 q 529 1 547 4 q 503 -1 511 -1 q 471 26 481 -1 q 454 81 461 53 q 376 15 419 39 q 274 -8 332 -8 m 297 101 q 444 181 388 101 l 444 360 q 328 350 386 358 q 231 310 269 342 q 193 208 193 279 q 297 101 193 101 z "},"á":{"ha":668,"x_min":71,"x_max":578,"o":"m 274 -8 q 126 47 182 -8 q 71 207 71 101 q 129 373 71 319 q 274 443 188 426 q 444 461 360 460 l 444 526 q 418 602 444 569 q 324 635 392 635 q 201 610 246 635 q 144 585 156 585 q 113 613 131 585 q 96 653 96 642 q 166 708 96 681 q 325 735 236 735 q 499 679 436 735 q 561 525 561 624 l 561 206 q 569 78 561 119 q 578 31 578 36 q 563 10 578 17 q 529 1 547 4 q 503 -1 511 -1 q 471 26 481 -1 q 454 81 461 53 q 376 15 419 39 q 274 -8 332 -8 m 297 101 q 444 181 388 101 l 444 360 q 328 350 386 358 q 231 310 269 342 q 193 208 193 279 q 297 101 193 101 z "},"ă":{"ha":668,"x_min":71,"x_max":578,"o":"m 274 -8 q 126 47 182 -8 q 71 207 71 101 q 129 373 71 319 q 274 443 188 426 q 444 461 360 460 l 444 526 q 418 602 444 569 q 324 635 392 635 q 201 610 246 635 q 144 585 156 585 q 113 613 131 585 q 96 653 96 642 q 166 708 96 681 q 325 735 236 735 q 499 679 436 735 q 561 525 561 624 l 561 206 q 569 78 561 119 q 578 31 578 36 q 563 10 578 17 q 529 1 547 4 q 503 -1 511 -1 q 471 26 481 -1 q 454 81 461 53 q 376 15 419 39 q 274 -8 332 -8 m 297 101 q 444 181 388 101 l 444 360 q 328 350 386 358 q 231 310 269 342 q 193 208 193 279 q 297 101 193 101 z "},"ắ":{"ha":668,"x_min":71,"x_max":578,"o":"m 274 -8 q 126 47 182 -8 q 71 207 71 101 q 129 373 71 319 q 274 443 188 426 q 444 461 360 460 l 444 526 q 418 602 444 569 q 324 635 392 635 q 201 610 246 635 q 144 585 156 585 q 113 613 131 585 q 96 653 96 642 q 166 708 96 681 q 325 735 236 735 q 499 679 436 735 q 561 525 561 624 l 561 206 q 569 78 561 119 q 578 31 578 36 q 563 10 578 17 q 529 1 547 4 q 503 -1 511 -1 q 471 26 481 -1 q 454 81 461 53 q 376 15 419 39 q 274 -8 332 -8 m 297 101 q 444 181 388 101 l 444 360 q 328 350 386 358 q 231 310 269 342 q 193 208 193 279 q 297 101 193 101 z "},"ặ":{"ha":668,"x_min":71,"x_max":578,"o":"m 274 -8 q 126 47 182 -8 q 71 207 71 101 q 129 373 71 319 q 274 443 188 426 q 444 461 360 460 l 444 526 q 418 602 444 569 q 324 635 392 635 q 201 610 246 635 q 144 585 156 585 q 113 613 131 585 q 96 653 96 642 q 166 708 96 681 q 325 735 236 735 q 499 679 436 735 q 561 525 561 624 l 561 206 q 569 78 561 119 q 578 31 578 36 q 563 10 578 17 q 529 1 547 4 q 503 -1 511 -1 q 471 26 481 -1 q 454 81 461 53 q 376 15 419 39 q 274 -8 332 -8 m 297 101 q 444 181 388 101 l 444 360 q 328 350 386 358 q 231 310 269 342 q 193 208 193 279 q 297 101 193 101 z "},"ằ":{"ha":668,"x_min":71,"x_max":578,"o":"m 274 -8 q 126 47 182 -8 q 71 207 71 101 q 129 373 71 319 q 274 443 188 426 q 444 461 360 460 l 444 526 q 418 602 444 569 q 324 635 392 635 q 201 610 246 635 q 144 585 156 585 q 113 613 131 585 q 96 653 96 642 q 166 708 96 681 q 325 735 236 735 q 499 679 436 735 q 561 525 561 624 l 561 206 q 569 78 561 119 q 578 31 578 36 q 563 10 578 17 q 529 1 547 4 q 503 -1 511 -1 q 471 26 481 -1 q 454 81 461 53 q 376 15 419 39 q 274 -8 332 -8 m 297 101 q 444 181 388 101 l 444 360 q 328 350 386 358 q 231 310 269 342 q 193 208 193 279 q 297 101 193 101 z "},"ẳ":{"ha":668,"x_min":71,"x_max":578,"o":"m 274 -8 q 126 47 182 -8 q 71 207 71 101 q 129 373 71 319 q 274 443 188 426 q 444 461 360 460 l 444 526 q 418 602 444 569 q 324 635 392 635 q 201 610 246 635 q 144 585 156 585 q 113 613 131 585 q 96 653 96 642 q 166 708 96 681 q 325 735 236 735 q 499 679 436 735 q 561 525 561 624 l 561 206 q 569 78 561 119 q 578 31 578 36 q 563 10 578 17 q 529 1 547 4 q 503 -1 511 -1 q 471 26 481 -1 q 454 81 461 53 q 376 15 419 39 q 274 -8 332 -8 m 297 101 q 444 181 388 101 l 444 360 q 328 350 386 358 q 231 310 269 342 q 193 208 193 279 q 297 101 193 101 m 347 1028 q 319 1035 338 1028 q 301 1051 301 1042 q 344 1104 301 1082 q 388 1179 388 1126 q 336 1217 388 1217 q 291 1208 304 1217 q 272 1199 278 1199 q 251 1217 264 1199 q 239 1244 239 1235 q 275 1273 239 1258 q 347 1288 311 1288 q 428 1267 382 1288 q 474 1189 474 1246 q 446 1107 474 1143 q 387 1049 418 1071 q 347 1028 356 1028 z "},"ẵ":{"ha":668,"x_min":71,"x_max":578,"o":"m 274 -8 q 126 47 182 -8 q 71 207 71 101 q 129 373 71 319 q 274 443 188 426 q 444 461 360 460 l 444 526 q 418 602 444 569 q 324 635 392 635 q 201 610 246 635 q 144 585 156 585 q 113 613 131 585 q 96 653 96 642 q 166 708 96 681 q 325 735 236 735 q 499 679 436 735 q 561 525 561 624 l 561 206 q 569 78 561 119 q 578 31 578 36 q 563 10 578 17 q 529 1 547 4 q 503 -1 511 -1 q 471 26 481 -1 q 454 81 461 53 q 376 15 419 39 q 274 -8 332 -8 m 297 101 q 444 181 388 101 l 444 360 q 328 350 386 358 q 231 310 269 342 q 193 208 193 279 q 297 101 193 101 z "},"â":{"ha":668,"x_min":71,"x_max":578,"o":"m 274 -8 q 126 47 182 -8 q 71 207 71 101 q 129 373 71 319 q 274 443 188 426 q 444 461 360 460 l 444 526 q 418 602 444 569 q 324 635 392 635 q 201 610 246 635 q 144 585 156 585 q 113 613 131 585 q 96 653 96 642 q 166 708 96 681 q 325 735 236 735 q 499 679 436 735 q 561 525 561 624 l 561 206 q 569 78 561 119 q 578 31 578 36 q 563 10 578 17 q 529 1 547 4 q 503 -1 511 -1 q 471 26 481 -1 q 454 81 461 53 q 376 15 419 39 q 274 -8 332 -8 m 297 101 q 444 181 388 101 l 444 360 q 328 350 386 358 q 231 310 269 342 q 193 208 193 279 q 297 101 193 101 z "},"ấ":{"ha":618,"x_min":71,"x_max":624,"o":"m 193 800 q 167 818 167 800 q 174 844 167 831 l 240 967 q 265 990 250 982 q 299 997 279 997 l 321 997 q 354 990 340 997 q 376 967 368 982 l 443 844 q 453 821 453 831 q 425 800 453 800 l 399 800 q 364 818 374 800 l 308 921 l 254 818 q 238 803 247 806 q 218 800 229 800 l 193 800 m 274 -8 q 126 47 182 -8 q 71 207 71 101 q 129 373 71 319 q 274 443 188 426 q 444 461 360 460 l 444 526 q 418 602 444 569 q 324 635 392 635 q 201 610 246 635 q 144 585 156 585 q 113 613 131 585 q 96 653 96 642 q 166 708 96 681 q 325 735 236 735 q 499 679 436 735 q 561 525 561 624 l 561 206 q 569 78 561 119 q 578 31 578 36 q 563 10 578 17 q 529 1 547 4 q 503 -1 511 -1 q 471 26 481 -1 q 454 81 461 53 q 376 15 419 39 q 274 -8 332 -8 m 297 101 q 444 181 388 101 l 444 360 q 328 350 386 358 q 231 310 269 342 q 193 208 193 279 q 297 101 193 101 m 449 1003 q 419 1017 419 1003 q 433 1058 419 1028 q 488 1171 447 1088 q 517 1199 497 1190 q 565 1207 536 1207 q 624 1189 624 1207 q 616 1169 624 1181 q 585 1126 608 1157 q 515 1028 563 1094 q 490 1008 506 1014 q 449 1003 474 1003 z "},"ậ":{"ha":668,"x_min":71,"x_max":578,"o":"m 274 -8 q 126 47 182 -8 q 71 207 71 101 q 129 373 71 319 q 274 443 188 426 q 444 461 360 460 l 444 526 q 418 602 444 569 q 324 635 392 635 q 201 610 246 635 q 144 585 156 585 q 113 613 131 585 q 96 653 96 642 q 166 708 96 681 q 325 735 236 735 q 499 679 436 735 q 561 525 561 624 l 561 206 q 569 78 561 119 q 578 31 578 36 q 563 10 578 17 q 529 1 547 4 q 503 -1 511 -1 q 471 26 481 -1 q 454 81 461 53 q 376 15 419 39 q 274 -8 332 -8 m 297 101 q 444 181 388 101 l 444 360 q 328 350 386 358 q 231 310 269 342 q 193 208 193 279 q 297 101 193 101 z "},"ầ":{"ha":618,"x_min":71,"x_max":578,"o":"m 193 800 q 167 818 167 800 q 174 844 167 831 l 240 967 q 265 990 250 982 q 299 997 279 997 l 321 997 q 354 990 340 997 q 376 967 368 982 l 443 844 q 453 821 453 831 q 425 800 453 800 l 399 800 q 364 818 374 800 l 308 921 l 254 818 q 238 803 247 806 q 218 800 229 800 l 193 800 m 274 -8 q 126 47 182 -8 q 71 207 71 101 q 129 373 71 319 q 274 443 188 426 q 444 461 360 460 l 444 526 q 418 602 444 569 q 324 635 392 635 q 201 610 246 635 q 144 585 156 585 q 113 613 131 585 q 96 653 96 642 q 166 708 96 681 q 325 735 236 735 q 499 679 436 735 q 561 525 561 624 l 561 206 q 569 78 561 119 q 578 31 578 36 q 563 10 578 17 q 529 1 547 4 q 503 -1 511 -1 q 471 26 481 -1 q 454 81 461 53 q 376 15 419 39 q 274 -8 332 -8 m 297 101 q 444 181 388 101 l 444 360 q 328 350 386 358 q 231 310 269 342 q 193 208 193 279 q 297 101 193 101 m 492 1003 q 451 1009 467 1003 q 426 1028 435 1015 q 353 1126 376 1094 q 324 1169 331 1157 q 317 1189 317 1181 q 375 1207 317 1207 q 424 1199 404 1207 q 454 1171 444 1190 q 507 1058 493 1088 q 521 1017 521 1028 q 492 1003 521 1003 z "},"ẩ":{"ha":618,"x_min":71,"x_max":594,"o":"m 193 800 q 167 818 167 800 q 174 844 167 831 l 240 967 q 265 990 250 982 q 299 997 279 997 l 321 997 q 354 990 340 997 q 376 967 368 982 l 443 844 q 453 821 453 831 q 425 800 453 800 l 399 800 q 364 818 374 800 l 308 921 l 254 818 q 238 803 247 806 q 218 800 229 800 l 193 800 m 274 -8 q 126 47 182 -8 q 71 207 71 101 q 129 373 71 319 q 274 443 188 426 q 444 461 360 460 l 444 526 q 418 602 444 569 q 324 635 392 635 q 201 610 246 635 q 144 585 156 585 q 113 613 131 585 q 96 653 96 642 q 166 708 96 681 q 325 735 236 735 q 499 679 436 735 q 561 525 561 624 l 561 206 q 569 78 561 119 q 578 31 578 36 q 563 10 578 17 q 529 1 547 4 q 503 -1 511 -1 q 471 26 481 -1 q 454 81 461 53 q 376 15 419 39 q 274 -8 332 -8 m 297 101 q 444 181 388 101 l 444 360 q 328 350 386 358 q 231 310 269 342 q 193 208 193 279 q 297 101 193 101 m 468 972 q 440 979 458 972 q 422 996 422 986 q 465 1049 422 1026 q 508 1124 508 1072 q 457 1161 508 1161 q 412 1152 425 1161 q 393 1143 399 1143 q 372 1160 385 1143 q 360 1189 360 1178 q 396 1217 360 1203 q 468 1232 432 1232 q 549 1211 503 1232 q 594 1133 594 1190 q 567 1051 594 1088 q 508 993 539 1014 q 468 972 476 972 z "},"ẫ":{"ha":618,"x_min":71,"x_max":578,"o":"m 160 1044 l 147 1050 q 135 1067 135 1056 q 139 1085 135 1075 q 183 1159 158 1138 q 243 1181 208 1181 q 327 1153 283 1181 q 403 1125 371 1125 q 428 1133 417 1125 q 451 1161 439 1140 q 476 1182 463 1182 q 490 1178 482 1182 l 499 1174 q 514 1157 514 1167 q 508 1138 514 1149 q 464 1065 489 1086 q 406 1043 439 1043 q 318 1071 363 1043 q 240 1099 274 1099 q 217 1090 226 1099 q 196 1061 207 1082 q 174 1042 185 1042 q 160 1044 171 1042 m 193 800 q 167 819 167 800 q 178 844 167 826 l 240 936 q 299 967 264 967 l 321 967 q 381 936 358 967 l 443 844 q 453 819 453 829 q 426 800 453 800 l 400 800 q 378 805 388 800 q 364 818 369 810 l 310 899 l 257 818 q 242 805 251 810 q 219 800 233 800 l 193 800 m 274 -8 q 126 47 182 -8 q 71 207 71 101 q 129 373 71 319 q 274 443 188 426 q 444 461 360 460 l 444 526 q 418 602 444 569 q 324 635 392 635 q 201 610 246 635 q 144 585 156 585 q 113 613 131 585 q 96 653 96 642 q 166 708 96 681 q 325 735 236 735 q 499 679 436 735 q 561 525 561 624 l 561 206 q 569 78 561 119 q 578 31 578 36 q 563 10 578 17 q 529 1 547 4 q 503 -1 511 -1 q 471 26 481 -1 q 454 81 461 53 q 376 15 419 39 q 274 -8 332 -8 m 297 101 q 444 181 388 101 l 444 360 q 328 350 386 358 q 231 310 269 342 q 193 208 193 279 q 297 101 193 101 z "},"ä":{"ha":668,"x_min":71,"x_max":578,"o":"m 274 -8 q 126 47 182 -8 q 71 207 71 101 q 129 373 71 319 q 274 443 188 426 q 444 461 360 460 l 444 526 q 418 602 444 569 q 324 635 392 635 q 201 610 246 635 q 144 585 156 585 q 113 613 131 585 q 96 653 96 642 q 166 708 96 681 q 325 735 236 735 q 499 679 436 735 q 561 525 561 624 l 561 206 q 569 78 561 119 q 578 31 578 36 q 563 10 578 17 q 529 1 547 4 q 503 -1 511 -1 q 471 26 481 -1 q 454 81 461 53 q 376 15 419 39 q 274 -8 332 -8 m 297 101 q 444 181 388 101 l 444 360 q 328 350 386 358 q 231 310 269 342 q 193 208 193 279 q 297 101 193 101 z "},"ạ":{"ha":668,"x_min":71,"x_max":578,"o":"m 274 -8 q 126 47 182 -8 q 71 207 71 101 q 129 373 71 319 q 274 443 188 426 q 444 461 360 460 l 444 526 q 418 602 444 569 q 324 635 392 635 q 201 610 246 635 q 144 585 156 585 q 113 613 131 585 q 96 653 96 642 q 166 708 96 681 q 325 735 236 735 q 499 679 436 735 q 561 525 561 624 l 561 206 q 569 78 561 119 q 578 31 578 36 q 563 10 578 17 q 529 1 547 4 q 503 -1 511 -1 q 471 26 481 -1 q 454 81 461 53 q 376 15 419 39 q 274 -8 332 -8 m 297 101 q 444 181 388 101 l 444 360 q 328 350 386 358 q 231 310 269 342 q 193 208 193 279 q 297 101 193 101 z "},"à":{"ha":668,"x_min":71,"x_max":578,"o":"m 274 -8 q 126 47 182 -8 q 71 207 71 101 q 129 373 71 319 q 274 443 188 426 q 444 461 360 460 l 444 526 q 418 602 444 569 q 324 635 392 635 q 201 610 246 635 q 144 585 156 585 q 113 613 131 585 q 96 653 96 642 q 166 708 96 681 q 325 735 236 735 q 499 679 436 735 q 561 525 561 624 l 561 206 q 569 78 561 119 q 578 31 578 36 q 563 10 578 17 q 529 1 547 4 q 503 -1 511 -1 q 471 26 481 -1 q 454 81 461 53 q 376 15 419 39 q 274 -8 332 -8 m 297 101 q 444 181 388 101 l 444 360 q 328 350 386 358 q 231 310 269 342 q 193 208 193 279 q 297 101 193 101 z "},"ả":{"ha":668,"x_min":71,"x_max":578,"o":"m 274 -8 q 126 47 182 -8 q 71 207 71 101 q 129 373 71 319 q 274 443 188 426 q 444 461 360 460 l 444 526 q 418 602 444 569 q 324 635 392 635 q 201 610 246 635 q 144 585 156 585 q 113 613 131 585 q 96 653 96 642 q 166 708 96 681 q 325 735 236 735 q 499 679 436 735 q 561 525 561 624 l 561 206 q 569 78 561 119 q 578 31 578 36 q 563 10 578 17 q 529 1 547 4 q 503 -1 511 -1 q 471 26 481 -1 q 454 81 461 53 q 376 15 419 39 q 274 -8 332 -8 m 297 101 q 444 181 388 101 l 444 360 q 328 350 386 358 q 231 310 269 342 q 193 208 193 279 q 297 101 193 101 m 349 782 q 321 789 339 782 q 303 806 303 796 q 346 858 303 836 q 389 933 389 881 q 338 971 389 971 q 292 962 306 971 q 274 953 279 953 q 253 971 265 953 q 240 999 240 989 q 276 1027 240 1013 q 349 1042 313 1042 q 429 1021 383 1042 q 475 943 475 1000 q 447 861 475 897 q 388 803 419 825 q 349 782 357 782 z "},"ā":{"ha":668,"x_min":71,"x_max":578,"o":"m 274 -8 q 126 47 182 -8 q 71 207 71 101 q 129 373 71 319 q 274 443 188 426 q 444 461 360 460 l 444 526 q 418 602 444 569 q 324 635 392 635 q 201 610 246 635 q 144 585 156 585 q 113 613 131 585 q 96 653 96 642 q 166 708 96 681 q 325 735 236 735 q 499 679 436 735 q 561 525 561 624 l 561 206 q 569 78 561 119 q 578 31 578 36 q 563 10 578 17 q 529 1 547 4 q 503 -1 511 -1 q 471 26 481 -1 q 454 81 461 53 q 376 15 419 39 q 274 -8 332 -8 m 297 101 q 444 181 388 101 l 444 360 q 328 350 386 358 q 231 310 269 342 q 193 208 193 279 q 297 101 193 101 z "},"ą":{"ha":668,"x_min":71,"x_max":692,"o":"m 274 -8 q 126 47 182 -8 q 71 207 71 101 q 129 373 71 319 q 274 443 188 426 q 444 461 360 460 l 444 526 q 418 602 444 569 q 324 635 392 635 q 201 610 246 635 q 144 585 156 585 q 113 613 131 585 q 96 653 96 642 q 166 708 96 681 q 325 735 236 735 q 499 679 436 735 q 561 525 561 624 l 561 206 q 569 78 561 119 q 578 31 578 36 q 563 10 578 17 q 529 1 547 4 q 503 -1 511 -1 q 471 26 481 -1 q 454 81 461 53 q 376 15 419 39 q 274 -8 332 -8 m 297 101 q 444 181 388 101 l 444 360 q 328 350 386 358 q 231 310 269 342 q 193 208 193 279 q 297 101 193 101 m 582 -232 q 475 -184 496 -232 q 454 -110 454 -136 q 467 -36 454 -82 q 515 50 481 10 l 575 28 q 547 -33 556 -3 q 539 -85 539 -64 q 563 -135 539 -125 q 608 -144 586 -144 q 638 -140 622 -144 q 664 -135 654 -135 q 692 -168 692 -135 q 674 -206 692 -193 q 582 -232 635 -232 z "},"å":{"ha":668,"x_min":71,"x_max":578,"o":"m 274 -8 q 126 47 182 -8 q 71 207 71 101 q 129 373 71 319 q 274 443 188 426 q 444 461 360 460 l 444 526 q 418 602 444 569 q 324 635 392 635 q 201 610 246 635 q 144 585 156 585 q 113 613 131 585 q 96 653 96 642 q 166 708 96 681 q 325 735 236 735 q 499 679 436 735 q 561 525 561 624 l 561 206 q 569 78 561 119 q 578 31 578 36 q 563 10 578 17 q 529 1 547 4 q 503 -1 511 -1 q 471 26 481 -1 q 454 81 461 53 q 376 15 419 39 q 274 -8 332 -8 m 297 101 q 444 181 388 101 l 444 360 q 328 350 386 358 q 231 310 269 342 q 193 208 193 279 q 297 101 193 101 z "},"ǻ":{"ha":668,"x_min":71,"x_max":578,"o":"m 274 -8 q 126 47 182 -8 q 71 207 71 101 q 129 373 71 319 q 274 443 188 426 q 444 461 360 460 l 444 526 q 418 602 444 569 q 324 635 392 635 q 201 610 246 635 q 144 585 156 585 q 113 613 131 585 q 96 653 96 642 q 166 708 96 681 q 325 735 236 735 q 499 679 436 735 q 561 525 561 624 l 561 206 q 569 78 561 119 q 578 31 578 36 q 563 10 578 17 q 529 1 547 4 q 503 -1 511 -1 q 471 26 481 -1 q 454 81 461 53 q 376 15 419 39 q 274 -8 332 -8 m 297 101 q 444 181 388 101 l 444 360 q 328 350 386 358 q 231 310 269 342 q 193 208 193 279 q 297 101 193 101 z "},"ã":{"ha":668,"x_min":71,"x_max":578,"o":"m 274 -8 q 126 47 182 -8 q 71 207 71 101 q 129 373 71 319 q 274 443 188 426 q 444 461 360 460 l 444 526 q 418 602 444 569 q 324 635 392 635 q 201 610 246 635 q 144 585 156 585 q 113 613 131 585 q 96 653 96 642 q 166 708 96 681 q 325 735 236 735 q 499 679 436 735 q 561 525 561 624 l 561 206 q 569 78 561 119 q 578 31 578 36 q 563 10 578 17 q 529 1 547 4 q 503 -1 511 -1 q 471 26 481 -1 q 454 81 461 53 q 376 15 419 39 q 274 -8 332 -8 m 297 101 q 444 181 388 101 l 444 360 q 328 350 386 358 q 231 310 269 342 q 193 208 193 279 q 297 101 193 101 z "},"æ":{"ha":922,"x_min":42,"x_max":882,"o":"m 249 -8 q 99 47 157 -8 q 42 208 42 103 q 91 359 42 308 q 216 428 140 410 q 372 451 292 447 q 397 561 378 513 q 364 613 389 592 q 292 635 339 635 q 174 611 217 635 q 119 588 131 588 q 89 615 106 588 q 72 654 72 643 q 140 708 72 681 q 293 735 207 735 q 467 674 406 735 q 640 735 535 735 q 821 644 760 735 q 882 381 882 553 q 865 346 882 368 q 836 324 849 324 l 492 324 q 535 148 497 204 q 656 92 572 92 q 771 121 733 92 q 818 150 808 150 q 850 121 833 150 q 867 81 867 92 q 806 24 867 56 q 657 -8 746 -8 q 444 74 514 -8 q 360 14 410 36 q 249 -8 310 -8 m 261 101 q 396 161 343 101 q 367 350 369 232 q 228 322 292 347 q 164 211 164 296 q 261 101 164 101 m 492 424 l 758 424 q 728 582 758 529 q 636 635 697 635 q 533 582 568 635 q 492 424 497 529 z "},"ǽ":{"ha":922,"x_min":42,"x_max":882,"o":"m 249 -8 q 99 47 157 -8 q 42 208 42 103 q 91 359 42 308 q 216 428 140 410 q 372 451 292 447 q 397 561 378 513 q 364 613 389 592 q 292 635 339 635 q 174 611 217 635 q 119 588 131 588 q 89 615 106 588 q 72 654 72 643 q 140 708 72 681 q 293 735 207 735 q 467 674 406 735 q 640 735 535 735 q 821 644 760 735 q 882 381 882 553 q 865 346 882 368 q 836 324 849 324 l 492 324 q 535 148 497 204 q 656 92 572 92 q 771 121 733 92 q 818 150 808 150 q 850 121 833 150 q 867 81 867 92 q 806 24 867 56 q 657 -8 746 -8 q 444 74 514 -8 q 360 14 410 36 q 249 -8 310 -8 m 261 101 q 396 161 343 101 q 367 350 369 232 q 228 322 292 347 q 164 211 164 296 q 261 101 164 101 m 492 424 l 758 424 q 728 582 758 529 q 636 635 697 635 q 533 582 568 635 q 492 424 497 529 z "},"b":{"ha":669,"x_min":108,"x_max":604,"o":"m 386 -8 q 296 17 339 -8 q 219 96 253 43 l 206 14 q 163 -3 199 -3 l 154 -3 q 108 28 108 -3 l 108 1014 q 161 1044 108 1044 l 176 1044 q 228 1014 228 1044 l 228 664 q 289 715 256 694 q 375 735 322 735 q 541 640 478 735 q 604 368 604 544 q 544 96 604 200 q 386 -8 485 -8 m 357 93 q 448 166 417 93 q 479 369 479 239 q 447 565 479 497 q 346 632 414 632 q 228 569 275 632 l 228 189 q 289 118 256 143 q 357 93 322 93 z "},"c":{"ha":567,"x_min":64,"x_max":538,"o":"m 356 -8 q 137 78 210 -8 q 64 367 64 165 q 146 660 64 585 q 351 735 228 735 q 469 715 414 735 q 525 671 525 696 q 509 625 525 654 q 482 596 493 596 q 467 601 481 596 q 424 622 453 610 q 354 635 394 635 q 232 574 274 635 q 190 369 190 514 q 228 158 190 224 q 358 92 267 92 q 429 101 403 92 q 474 122 456 111 q 485 129 481 125 q 492 133 489 133 q 522 106 506 133 q 538 63 538 78 q 508 31 538 47 q 435 3 478 14 q 356 -8 393 -8 z "},"ć":{"ha":567,"x_min":64,"x_max":538,"o":"m 356 -8 q 137 78 210 -8 q 64 367 64 165 q 146 660 64 585 q 351 735 228 735 q 469 715 414 735 q 525 671 525 696 q 509 625 525 654 q 482 596 493 596 q 467 601 481 596 q 424 622 453 610 q 354 635 394 635 q 232 574 274 635 q 190 369 190 514 q 228 158 190 224 q 358 92 267 92 q 429 101 403 92 q 474 122 456 111 q 485 129 481 125 q 492 133 489 133 q 522 106 506 133 q 538 63 538 78 q 508 31 538 47 q 435 3 478 14 q 356 -8 393 -8 z "},"č":{"ha":567,"x_min":64,"x_max":538,"o":"m 356 -8 q 137 78 210 -8 q 64 367 64 165 q 146 660 64 585 q 351 735 228 735 q 469 715 414 735 q 525 671 525 696 q 509 625 525 654 q 482 596 493 596 q 467 601 481 596 q 424 622 453 610 q 354 635 394 635 q 232 574 274 635 q 190 369 190 514 q 228 158 190 224 q 358 92 267 92 q 429 101 403 92 q 474 122 456 111 q 485 129 481 125 q 492 133 489 133 q 522 106 506 133 q 538 63 538 78 q 508 31 538 47 q 435 3 478 14 q 356 -8 393 -8 z "},"ç":{"ha":567,"x_min":64,"x_max":538,"o":"m 356 -8 q 137 78 210 -8 q 64 367 64 165 q 146 660 64 585 q 351 735 228 735 q 469 715 414 735 q 525 671 525 696 q 509 625 525 654 q 482 596 493 596 q 467 601 481 596 q 424 622 453 610 q 354 635 394 635 q 232 574 274 635 q 190 369 190 514 q 228 158 190 224 q 358 92 267 92 q 429 101 403 92 q 474 122 456 111 q 485 129 481 125 q 492 133 489 133 q 522 106 506 133 q 538 63 538 78 q 508 31 538 47 q 435 3 478 14 q 356 -8 393 -8 z "},"ĉ":{"ha":567,"x_min":64,"x_max":538,"o":"m 356 -8 q 137 78 210 -8 q 64 367 64 165 q 146 660 64 585 q 351 735 228 735 q 469 715 414 735 q 525 671 525 696 q 509 625 525 654 q 482 596 493 596 q 467 601 481 596 q 424 622 453 610 q 354 635 394 635 q 232 574 274 635 q 190 369 190 514 q 228 158 190 224 q 358 92 267 92 q 429 101 403 92 q 474 122 456 111 q 485 129 481 125 q 492 133 489 133 q 522 106 506 133 q 538 63 538 78 q 508 31 538 47 q 435 3 478 14 q 356 -8 393 -8 z "},"ċ":{"ha":567,"x_min":64,"x_max":538,"o":"m 356 -8 q 137 78 210 -8 q 64 367 64 165 q 146 660 64 585 q 351 735 228 735 q 469 715 414 735 q 525 671 525 696 q 509 625 525 654 q 482 596 493 596 q 467 601 481 596 q 424 622 453 610 q 354 635 394 635 q 232 574 274 635 q 190 369 190 514 q 228 158 190 224 q 358 92 267 92 q 429 101 403 92 q 474 122 456 111 q 485 129 481 125 q 492 133 489 133 q 522 106 506 133 q 538 63 538 78 q 508 31 538 47 q 435 3 478 14 q 356 -8 393 -8 z "},"d":{"ha":668,"x_min":65,"x_max":575,"o":"m 283 -8 q 124 96 183 -8 q 65 367 65 200 q 128 639 65 543 q 294 735 192 735 q 381 715 347 735 q 442 664 414 694 l 442 1014 q 493 1044 442 1044 l 508 1044 q 561 1014 561 1044 l 561 206 q 568 78 561 119 q 575 29 575 36 q 558 10 575 17 q 522 1 542 4 q 494 -1 503 -1 q 462 29 468 -1 q 449 96 456 60 q 374 17 417 43 q 283 -8 331 -8 m 313 93 q 381 118 347 93 q 442 189 414 143 l 442 569 q 388 616 418 600 q 325 632 358 632 q 222 565 256 632 q 189 368 189 497 q 220 166 189 239 q 313 93 251 93 z "},"ð":{"ha":663,"x_min":65,"x_max":597,"o":"m 333 -8 q 134 86 203 -8 q 65 360 65 181 q 134 634 65 538 q 333 731 203 731 q 388 725 361 731 q 439 708 414 719 l 417 690 q 386 769 406 729 q 344 843 367 808 q 243 829 258 832 q 225 826 228 826 q 200 841 211 826 q 189 871 189 856 q 210 889 189 885 l 310 903 q 284 942 294 925 q 274 969 274 958 q 296 989 274 985 q 313 991 303 990 q 333 992 322 992 q 369 975 356 992 q 391 949 381 963 q 415 917 401 936 q 481 926 443 921 q 524 932 519 932 q 551 913 543 932 q 558 888 558 893 q 538 869 558 872 l 454 858 q 560 615 524 736 q 597 361 597 494 q 531 86 597 181 q 333 -8 464 -8 m 331 92 q 440 158 404 92 q 475 363 475 224 q 440 565 475 499 q 331 631 404 631 q 222 565 257 631 q 188 363 188 500 q 222 158 188 224 q 331 92 257 92 z "},"ď":{"ha":668,"x_min":65,"x_max":753,"o":"m 283 -8 q 124 96 183 -8 q 65 367 65 200 q 128 639 65 543 q 294 735 192 735 q 381 715 347 735 q 442 664 414 694 l 442 1014 q 493 1044 442 1044 l 508 1044 q 561 1014 561 1044 l 561 206 q 568 78 561 119 q 575 29 575 36 q 558 10 575 17 q 522 1 542 4 q 494 -1 503 -1 q 462 29 468 -1 q 449 96 456 60 q 374 17 417 43 q 283 -8 331 -8 m 313 93 q 381 118 347 93 q 442 189 414 143 l 442 569 q 388 616 418 600 q 325 632 358 632 q 222 565 256 632 q 189 368 189 497 q 220 166 189 239 q 313 93 251 93 m 651 731 q 626 735 640 731 q 611 751 611 739 q 620 814 611 774 q 629 928 629 854 q 685 972 629 972 l 697 972 q 753 933 753 972 q 715 785 753 839 q 651 731 676 731 z "},"đ":{"ha":649,"x_min":65,"x_max":653,"o":"m 283 -8 q 124 96 183 -8 q 65 367 65 200 q 128 639 65 543 q 294 735 192 735 q 381 715 347 735 q 442 664 414 694 l 442 1014 q 493 1044 442 1044 l 508 1044 q 561 1014 561 1044 l 561 206 q 568 78 561 119 q 575 29 575 36 q 558 10 575 17 q 522 1 542 4 q 494 -1 503 -1 q 462 29 468 -1 q 449 96 456 60 q 374 17 417 43 q 283 -8 331 -8 m 313 93 q 381 118 347 93 q 442 189 414 143 l 442 569 q 388 616 418 600 q 325 632 358 632 q 222 565 256 632 q 189 368 189 497 q 220 166 189 239 q 313 93 251 93 m 315 831 q 286 872 286 831 l 286 886 q 315 928 286 928 l 623 928 q 653 886 653 928 l 653 872 q 623 831 653 831 l 315 831 z "},"ḍ":{"ha":668,"x_min":65,"x_max":575,"o":"m 283 -8 q 124 96 183 -8 q 65 367 65 200 q 128 639 65 543 q 294 735 192 735 q 381 715 347 735 q 442 664 414 694 l 442 1014 q 493 1044 442 1044 l 508 1044 q 561 1014 561 1044 l 561 206 q 568 78 561 119 q 575 29 575 36 q 558 10 575 17 q 522 1 542 4 q 494 -1 503 -1 q 462 29 468 -1 q 449 96 456 60 q 374 17 417 43 q 283 -8 331 -8 m 313 93 q 381 118 347 93 q 442 189 414 143 l 442 569 q 388 616 418 600 q 325 632 358 632 q 222 565 256 632 q 189 368 189 497 q 220 166 189 239 q 313 93 251 93 z "},"ǳ":{"ha":1231,"x_min":65,"x_max":1182,"o":"m 283 -8 q 124 96 183 -8 q 65 367 65 200 q 128 639 65 543 q 294 735 192 735 q 381 715 347 735 q 442 664 414 694 l 442 1014 q 493 1044 442 1044 l 508 1044 q 561 1014 561 1044 l 561 206 q 568 78 561 119 q 575 29 575 36 q 558 10 575 17 q 522 1 542 4 q 494 -1 503 -1 q 462 29 468 -1 q 449 96 456 60 q 374 17 417 43 q 283 -8 331 -8 m 313 93 q 381 118 347 93 q 442 189 414 143 l 442 569 q 388 616 418 600 q 325 632 358 632 q 222 565 256 632 q 189 368 189 497 q 220 166 189 239 q 313 93 251 93 m 743 0 q 725 25 735 0 q 715 71 715 50 q 718 86 715 78 l 1032 626 l 763 626 q 736 668 736 626 l 736 685 q 763 726 736 726 l 1154 726 q 1171 699 1163 726 q 1179 654 1179 672 q 1176 640 1179 646 l 864 100 l 1156 100 q 1182 58 1182 100 l 1182 42 q 1156 0 1182 0 l 743 0 z "},"ǆ":{"ha":1231,"x_min":65,"x_max":1182,"o":"m 283 -8 q 124 96 183 -8 q 65 367 65 200 q 128 639 65 543 q 294 735 192 735 q 381 715 347 735 q 442 664 414 694 l 442 1014 q 493 1044 442 1044 l 508 1044 q 561 1014 561 1044 l 561 206 q 568 78 561 119 q 575 29 575 36 q 558 10 575 17 q 522 1 542 4 q 494 -1 503 -1 q 462 29 468 -1 q 449 96 456 60 q 374 17 417 43 q 283 -8 331 -8 m 313 93 q 381 118 347 93 q 442 189 414 143 l 442 569 q 388 616 418 600 q 325 632 358 632 q 222 565 256 632 q 189 368 189 497 q 220 166 189 239 q 313 93 251 93 m 743 0 q 725 25 735 0 q 715 71 715 50 q 718 86 715 78 l 1032 626 l 763 626 q 736 668 736 626 l 736 685 q 763 726 736 726 l 1154 726 q 1171 699 1163 726 q 1179 654 1179 672 q 1176 640 1179 646 l 864 100 l 1156 100 q 1182 58 1182 100 l 1182 42 q 1156 0 1182 0 l 743 0 z "},"e":{"ha":631,"x_min":65,"x_max":582,"o":"m 356 -8 q 137 82 208 -8 q 65 358 65 172 q 134 639 65 543 q 339 735 203 735 q 521 642 460 735 q 582 372 582 550 q 565 338 582 360 q 536 315 549 315 l 190 315 q 234 146 197 200 q 354 92 271 92 q 469 121 433 92 q 517 150 506 150 q 548 121 531 150 q 565 81 565 92 q 538 43 565 64 q 462 7 510 22 q 356 -8 414 -8 m 190 415 l 458 415 q 427 580 458 525 q 335 635 396 635 q 231 580 267 635 q 190 415 196 525 z "},"é":{"ha":631,"x_min":65,"x_max":582,"o":"m 356 -8 q 137 82 208 -8 q 65 358 65 172 q 134 639 65 543 q 339 735 203 735 q 521 642 460 735 q 582 372 582 550 q 565 338 582 360 q 536 315 549 315 l 190 315 q 234 146 197 200 q 354 92 271 92 q 469 121 433 92 q 517 150 506 150 q 548 121 531 150 q 565 81 565 92 q 538 43 565 64 q 462 7 510 22 q 356 -8 414 -8 m 190 415 l 458 415 q 427 580 458 525 q 335 635 396 635 q 231 580 267 635 q 190 415 196 525 z "},"ĕ":{"ha":631,"x_min":65,"x_max":582,"o":"m 356 -8 q 137 82 208 -8 q 65 358 65 172 q 134 639 65 543 q 339 735 203 735 q 521 642 460 735 q 582 372 582 550 q 565 338 582 360 q 536 315 549 315 l 190 315 q 234 146 197 200 q 354 92 271 92 q 469 121 433 92 q 517 150 506 150 q 548 121 531 150 q 565 81 565 92 q 538 43 565 64 q 462 7 510 22 q 356 -8 414 -8 m 190 415 l 458 415 q 427 580 458 525 q 335 635 396 635 q 231 580 267 635 q 190 415 196 525 z "},"ě":{"ha":631,"x_min":65,"x_max":582,"o":"m 356 -8 q 137 82 208 -8 q 65 358 65 172 q 134 639 65 543 q 339 735 203 735 q 521 642 460 735 q 582 372 582 550 q 565 338 582 360 q 536 315 549 315 l 190 315 q 234 146 197 200 q 354 92 271 92 q 469 121 433 92 q 517 150 506 150 q 548 121 531 150 q 565 81 565 92 q 538 43 565 64 q 462 7 510 22 q 356 -8 414 -8 m 190 415 l 458 415 q 427 580 458 525 q 335 635 396 635 q 231 580 267 635 q 190 415 196 525 z "},"ê":{"ha":631,"x_min":65,"x_max":582,"o":"m 356 -8 q 137 82 208 -8 q 65 358 65 172 q 134 639 65 543 q 339 735 203 735 q 521 642 460 735 q 582 372 582 550 q 565 338 582 360 q 536 315 549 315 l 190 315 q 234 146 197 200 q 354 92 271 92 q 469 121 433 92 q 517 150 506 150 q 548 121 531 150 q 565 81 565 92 q 538 43 565 64 q 462 7 510 22 q 356 -8 414 -8 m 190 415 l 458 415 q 427 580 458 525 q 335 635 396 635 q 231 580 267 635 q 190 415 196 525 z "},"ế":{"ha":611,"x_min":65,"x_max":626,"o":"m 194 800 q 168 818 168 800 q 175 844 168 824 l 242 967 q 266 990 251 982 q 300 997 281 997 l 322 997 q 356 990 342 997 q 379 967 369 982 l 444 844 q 454 821 454 831 q 428 800 454 800 l 400 800 q 365 818 375 800 l 310 921 l 257 818 q 240 803 250 806 q 221 800 231 800 l 194 800 m 356 -8 q 137 82 208 -8 q 65 358 65 172 q 134 639 65 543 q 339 735 203 735 q 521 642 460 735 q 582 372 582 550 q 565 338 582 360 q 536 315 549 315 l 190 315 q 234 146 197 200 q 354 92 271 92 q 469 121 433 92 q 517 150 506 150 q 548 121 531 150 q 565 81 565 92 q 538 43 565 64 q 462 7 510 22 q 356 -8 414 -8 m 190 415 l 458 415 q 427 580 458 525 q 335 635 396 635 q 231 580 267 635 q 190 415 196 525 m 451 1003 q 422 1017 422 1003 q 436 1058 422 1028 q 490 1171 450 1088 q 519 1199 500 1190 q 568 1207 539 1207 q 626 1189 626 1207 q 619 1169 626 1181 q 588 1126 611 1157 q 518 1028 565 1094 q 492 1008 508 1014 q 451 1003 476 1003 z "},"ệ":{"ha":631,"x_min":65,"x_max":582,"o":"m 356 -8 q 137 82 208 -8 q 65 358 65 172 q 134 639 65 543 q 339 735 203 735 q 521 642 460 735 q 582 372 582 550 q 565 338 582 360 q 536 315 549 315 l 190 315 q 234 146 197 200 q 354 92 271 92 q 469 121 433 92 q 517 150 506 150 q 548 121 531 150 q 565 81 565 92 q 538 43 565 64 q 462 7 510 22 q 356 -8 414 -8 m 190 415 l 458 415 q 427 580 458 525 q 335 635 396 635 q 231 580 267 635 q 190 415 196 525 z "},"ề":{"ha":611,"x_min":65,"x_max":582,"o":"m 194 800 q 168 818 168 800 q 175 844 168 824 l 242 967 q 266 990 251 982 q 300 997 281 997 l 322 997 q 356 990 342 997 q 379 967 369 982 l 444 844 q 454 821 454 831 q 428 800 454 800 l 400 800 q 365 818 375 800 l 310 921 l 257 818 q 240 803 250 806 q 221 800 231 800 l 194 800 m 356 -8 q 137 82 208 -8 q 65 358 65 172 q 134 639 65 543 q 339 735 203 735 q 521 642 460 735 q 582 372 582 550 q 565 338 582 360 q 536 315 549 315 l 190 315 q 234 146 197 200 q 354 92 271 92 q 469 121 433 92 q 517 150 506 150 q 548 121 531 150 q 565 81 565 92 q 538 43 565 64 q 462 7 510 22 q 356 -8 414 -8 m 190 415 l 458 415 q 427 580 458 525 q 335 635 396 635 q 231 580 267 635 q 190 415 196 525 m 493 1003 q 452 1009 468 1003 q 428 1028 436 1015 q 354 1126 378 1094 q 324 1169 331 1157 q 318 1189 318 1181 q 376 1207 318 1207 q 425 1199 406 1207 q 456 1171 444 1190 q 508 1058 494 1088 q 522 1017 522 1028 q 493 1003 522 1003 z "},"ể":{"ha":611,"x_min":65,"x_max":596,"o":"m 194 800 q 168 818 168 800 q 175 844 168 824 l 242 967 q 266 990 251 982 q 300 997 281 997 l 322 997 q 356 990 342 997 q 379 967 369 982 l 444 844 q 454 821 454 831 q 428 800 454 800 l 400 800 q 365 818 375 800 l 310 921 l 257 818 q 240 803 250 806 q 221 800 231 800 l 194 800 m 356 -8 q 137 82 208 -8 q 65 358 65 172 q 134 639 65 543 q 339 735 203 735 q 521 642 460 735 q 582 372 582 550 q 565 338 582 360 q 536 315 549 315 l 190 315 q 234 146 197 200 q 354 92 271 92 q 469 121 433 92 q 517 150 506 150 q 548 121 531 150 q 565 81 565 92 q 538 43 565 64 q 462 7 510 22 q 356 -8 414 -8 m 190 415 l 458 415 q 427 580 458 525 q 335 635 396 635 q 231 580 267 635 q 190 415 196 525 m 469 972 q 442 979 460 972 q 424 996 424 986 q 467 1049 424 1026 q 510 1124 510 1072 q 458 1161 510 1161 q 413 1152 426 1161 q 394 1143 400 1143 q 374 1160 386 1143 q 361 1189 361 1178 q 397 1217 361 1203 q 469 1232 433 1232 q 551 1211 506 1232 q 596 1133 596 1190 q 567 1051 596 1088 q 508 993 539 1014 q 469 972 478 972 z "},"ễ":{"ha":611,"x_min":65,"x_max":582,"o":"m 164 1044 l 151 1050 q 139 1067 139 1056 q 143 1085 139 1075 q 187 1159 161 1138 q 247 1181 213 1181 q 331 1153 286 1181 q 407 1125 375 1125 q 433 1133 422 1125 q 456 1161 443 1140 q 481 1182 467 1182 q 494 1178 486 1182 l 503 1174 q 518 1157 518 1167 q 517 1149 518 1153 q 513 1138 515 1144 q 468 1065 493 1086 q 410 1043 443 1043 q 322 1071 367 1043 q 244 1099 278 1099 q 221 1090 231 1099 q 200 1061 211 1082 q 178 1042 189 1042 q 164 1044 175 1042 m 196 800 q 169 819 169 800 q 179 844 169 829 l 242 936 q 300 967 265 967 l 322 967 q 382 936 360 967 l 444 844 q 456 819 456 826 q 428 800 456 800 l 401 800 q 381 805 389 800 q 365 818 372 810 l 311 899 l 258 818 q 244 805 253 810 q 221 800 235 800 l 196 800 m 356 -8 q 137 82 208 -8 q 65 358 65 172 q 134 639 65 543 q 339 735 203 735 q 521 642 460 735 q 582 372 582 550 q 565 338 582 360 q 536 315 549 315 l 190 315 q 234 146 197 200 q 354 92 271 92 q 469 121 433 92 q 517 150 506 150 q 548 121 531 150 q 565 81 565 92 q 538 43 565 64 q 462 7 510 22 q 356 -8 414 -8 m 190 415 l 458 415 q 427 580 458 525 q 335 635 396 635 q 231 580 267 635 q 190 415 196 525 z "},"ë":{"ha":631,"x_min":65,"x_max":582,"o":"m 356 -8 q 137 82 208 -8 q 65 358 65 172 q 134 639 65 543 q 339 735 203 735 q 521 642 460 735 q 582 372 582 550 q 565 338 582 360 q 536 315 549 315 l 190 315 q 234 146 197 200 q 354 92 271 92 q 469 121 433 92 q 517 150 506 150 q 548 121 531 150 q 565 81 565 92 q 538 43 565 64 q 462 7 510 22 q 356 -8 414 -8 m 190 415 l 458 415 q 427 580 458 525 q 335 635 396 635 q 231 580 267 635 q 190 415 196 525 z "},"ė":{"ha":631,"x_min":65,"x_max":582,"o":"m 356 -8 q 137 82 208 -8 q 65 358 65 172 q 134 639 65 543 q 339 735 203 735 q 521 642 460 735 q 582 372 582 550 q 565 338 582 360 q 536 315 549 315 l 190 315 q 234 146 197 200 q 354 92 271 92 q 469 121 433 92 q 517 150 506 150 q 548 121 531 150 q 565 81 565 92 q 538 43 565 64 q 462 7 510 22 q 356 -8 414 -8 m 190 415 l 458 415 q 427 580 458 525 q 335 635 396 635 q 231 580 267 635 q 190 415 196 525 z "},"ẹ":{"ha":631,"x_min":65,"x_max":582,"o":"m 356 -8 q 137 82 208 -8 q 65 358 65 172 q 134 639 65 543 q 339 735 203 735 q 521 642 460 735 q 582 372 582 550 q 565 338 582 360 q 536 315 549 315 l 190 315 q 234 146 197 200 q 354 92 271 92 q 469 121 433 92 q 517 150 506 150 q 548 121 531 150 q 565 81 565 92 q 538 43 565 64 q 462 7 510 22 q 356 -8 414 -8 m 190 415 l 458 415 q 427 580 458 525 q 335 635 396 635 q 231 580 267 635 q 190 415 196 525 z "},"è":{"ha":631,"x_min":65,"x_max":582,"o":"m 356 -8 q 137 82 208 -8 q 65 358 65 172 q 134 639 65 543 q 339 735 203 735 q 521 642 460 735 q 582 372 582 550 q 565 338 582 360 q 536 315 549 315 l 190 315 q 234 146 197 200 q 354 92 271 92 q 469 121 433 92 q 517 150 506 150 q 548 121 531 150 q 565 81 565 92 q 538 43 565 64 q 462 7 510 22 q 356 -8 414 -8 m 190 415 l 458 415 q 427 580 458 525 q 335 635 396 635 q 231 580 267 635 q 190 415 196 525 z "},"ẻ":{"ha":631,"x_min":65,"x_max":582,"o":"m 356 -8 q 137 82 208 -8 q 65 358 65 172 q 134 639 65 543 q 339 735 203 735 q 521 642 460 735 q 582 372 582 550 q 565 338 582 360 q 536 315 549 315 l 190 315 q 234 146 197 200 q 354 92 271 92 q 469 121 433 92 q 517 150 506 150 q 548 121 531 150 q 565 81 565 92 q 538 43 565 64 q 462 7 510 22 q 356 -8 414 -8 m 190 415 l 458 415 q 427 580 458 525 q 335 635 396 635 q 231 580 267 635 q 190 415 196 525 m 331 782 q 303 789 321 782 q 285 806 285 796 q 328 858 285 836 q 371 933 371 881 q 319 971 371 971 q 274 962 288 971 q 256 953 261 953 q 235 971 247 953 q 222 999 222 989 q 258 1027 222 1013 q 331 1042 294 1042 q 411 1021 365 1042 q 457 943 457 1000 q 429 861 457 897 q 370 803 401 825 q 331 782 339 782 z "},"ē":{"ha":631,"x_min":65,"x_max":582,"o":"m 356 -8 q 137 82 208 -8 q 65 358 65 172 q 134 639 65 543 q 339 735 203 735 q 521 642 460 735 q 582 372 582 550 q 565 338 582 360 q 536 315 549 315 l 190 315 q 234 146 197 200 q 354 92 271 92 q 469 121 433 92 q 517 150 506 150 q 548 121 531 150 q 565 81 565 92 q 538 43 565 64 q 462 7 510 22 q 356 -8 414 -8 m 190 415 l 458 415 q 427 580 458 525 q 335 635 396 635 q 231 580 267 635 q 190 415 196 525 z "},"ę":{"ha":631,"x_min":65,"x_max":619,"o":"m 356 -8 q 137 82 208 -8 q 65 358 65 172 q 134 639 65 543 q 339 735 203 735 q 521 642 460 735 q 582 372 582 550 q 565 338 582 360 q 536 315 549 315 l 190 315 q 234 146 197 200 q 354 92 271 92 q 469 121 433 92 q 517 150 506 150 q 548 121 531 150 q 565 81 565 92 q 538 43 565 64 q 462 7 510 22 q 356 -8 414 -8 m 190 415 l 458 415 q 427 580 458 525 q 335 635 396 635 q 231 580 267 635 q 190 415 196 525 m 510 -236 q 403 -188 424 -236 q 382 -114 382 -140 q 395 -40 382 -86 q 443 46 408 6 l 503 24 q 475 -37 483 -7 q 467 -89 467 -68 q 490 -139 467 -129 q 536 -149 514 -149 q 566 -144 550 -149 q 592 -139 582 -139 q 619 -172 619 -139 q 601 -210 619 -197 q 510 -236 563 -236 z "},"ẽ":{"ha":631,"x_min":65,"x_max":582,"o":"m 356 -8 q 137 82 208 -8 q 65 358 65 172 q 134 639 65 543 q 339 735 203 735 q 521 642 460 735 q 582 372 582 550 q 565 338 582 360 q 536 315 549 315 l 190 315 q 234 146 197 200 q 354 92 271 92 q 469 121 433 92 q 517 150 506 150 q 548 121 531 150 q 565 81 565 92 q 538 43 565 64 q 462 7 510 22 q 356 -8 414 -8 m 190 415 l 458 415 q 427 580 458 525 q 335 635 396 635 q 231 580 267 635 q 190 415 196 525 z "},"f":{"ha":397,"x_min":67,"x_max":389,"o":"m 190 -3 q 135 28 135 -3 l 135 626 l 94 626 q 67 668 67 626 l 67 685 q 94 726 67 726 l 135 726 l 135 874 q 192 1019 135 989 q 293 1050 250 1050 q 357 1040 325 1050 q 389 1007 389 1029 q 381 970 389 999 q 358 942 374 942 q 340 946 350 942 q 308 950 331 950 q 269 935 286 950 q 251 863 251 921 l 251 726 l 344 726 q 372 685 372 726 l 372 668 q 344 626 372 626 l 251 626 l 251 28 q 196 -3 251 -3 l 190 -3 z "},"g":{"ha":654,"x_min":61,"x_max":618,"o":"m 306 -294 q 131 -256 200 -294 q 61 -122 61 -218 q 169 53 61 -4 l 169 56 q 125 157 125 92 q 190 288 125 238 q 88 496 88 347 q 145 668 88 601 q 317 735 203 735 q 382 726 350 735 l 590 726 q 618 686 618 726 l 618 669 q 590 631 618 631 q 547 631 564 631 q 514 633 529 631 l 511 631 q 543 497 543 574 q 488 328 543 394 q 328 258 432 263 q 249 234 281 256 q 218 168 218 213 q 272 102 218 113 q 390 81 326 92 q 521 33 468 68 q 574 -89 574 -1 q 506 -241 574 -187 q 306 -294 439 -294 m 315 -204 q 468 -101 468 -204 q 427 -30 468 -47 q 331 -8 386 -12 q 232 11 275 -3 q 181 -31 201 -4 q 160 -100 160 -58 q 212 -185 160 -167 q 315 -204 264 -204 m 315 347 q 404 376 367 347 q 442 494 442 404 q 404 616 442 588 q 315 644 367 644 q 227 616 264 644 q 190 494 190 588 q 227 376 190 404 q 315 347 264 347 z "},"ğ":{"ha":654,"x_min":61,"x_max":618,"o":"m 306 -294 q 131 -256 200 -294 q 61 -122 61 -218 q 169 53 61 -4 l 169 56 q 125 157 125 92 q 190 288 125 238 q 88 496 88 347 q 145 668 88 601 q 317 735 203 735 q 382 726 350 735 l 590 726 q 618 686 618 726 l 618 669 q 590 631 618 631 q 547 631 564 631 q 514 633 529 631 l 511 631 q 543 497 543 574 q 488 328 543 394 q 328 258 432 263 q 249 234 281 256 q 218 168 218 213 q 272 102 218 113 q 390 81 326 92 q 521 33 468 68 q 574 -89 574 -1 q 506 -241 574 -187 q 306 -294 439 -294 m 315 -204 q 468 -101 468 -204 q 427 -30 468 -47 q 331 -8 386 -12 q 232 11 275 -3 q 181 -31 201 -4 q 160 -100 160 -58 q 212 -185 160 -167 q 315 -204 264 -204 m 315 347 q 404 376 367 347 q 442 494 442 404 q 404 616 442 588 q 315 644 367 644 q 227 616 264 644 q 190 494 190 588 q 227 376 190 404 q 315 347 264 347 z "},"ĝ":{"ha":654,"x_min":61,"x_max":618,"o":"m 306 -294 q 131 -256 200 -294 q 61 -122 61 -218 q 169 53 61 -4 l 169 56 q 125 157 125 92 q 190 288 125 238 q 88 496 88 347 q 145 668 88 601 q 317 735 203 735 q 382 726 350 735 l 590 726 q 618 686 618 726 l 618 669 q 590 631 618 631 q 547 631 564 631 q 514 633 529 631 l 511 631 q 543 497 543 574 q 488 328 543 394 q 328 258 432 263 q 249 234 281 256 q 218 168 218 213 q 272 102 218 113 q 390 81 326 92 q 521 33 468 68 q 574 -89 574 -1 q 506 -241 574 -187 q 306 -294 439 -294 m 315 -204 q 468 -101 468 -204 q 427 -30 468 -47 q 331 -8 386 -12 q 232 11 275 -3 q 181 -31 201 -4 q 160 -100 160 -58 q 212 -185 160 -167 q 315 -204 264 -204 m 315 347 q 404 376 367 347 q 442 494 442 404 q 404 616 442 588 q 315 644 367 644 q 227 616 264 644 q 190 494 190 588 q 227 376 190 404 q 315 347 264 347 z "},"ģ":{"ha":607,"x_min":61,"x_max":618,"o":"m 306 -294 q 131 -256 200 -294 q 61 -122 61 -218 q 169 53 61 -4 l 169 56 q 125 157 125 92 q 190 288 125 238 q 88 496 88 347 q 145 668 88 601 q 317 735 203 735 q 382 726 350 735 l 590 726 q 618 686 618 726 l 618 669 q 590 631 618 631 q 547 631 564 631 q 514 633 529 631 l 511 631 q 543 497 543 574 q 488 328 543 394 q 328 258 432 263 q 249 234 281 256 q 218 168 218 213 q 272 102 218 113 q 390 81 326 92 q 521 33 468 68 q 574 -89 574 -1 q 506 -241 574 -187 q 306 -294 439 -294 m 315 -204 q 468 -101 468 -204 q 427 -30 468 -47 q 331 -8 386 -12 q 232 11 275 -3 q 181 -31 201 -4 q 160 -100 160 -58 q 212 -185 160 -167 q 315 -204 264 -204 m 315 347 q 404 376 367 347 q 442 494 442 404 q 404 616 442 588 q 315 644 367 644 q 227 616 264 644 q 190 494 190 588 q 227 376 190 404 q 315 347 264 347 m 367 1068 q 392 1064 378 1068 q 406 1047 406 1060 q 385 980 406 1024 q 365 857 365 936 q 313 813 365 813 l 299 813 q 250 851 250 813 q 294 1010 250 951 q 367 1068 339 1068 z "},"ġ":{"ha":654,"x_min":61,"x_max":618,"o":"m 306 -294 q 131 -256 200 -294 q 61 -122 61 -218 q 169 53 61 -4 l 169 56 q 125 157 125 92 q 190 288 125 238 q 88 496 88 347 q 145 668 88 601 q 317 735 203 735 q 382 726 350 735 l 590 726 q 618 686 618 726 l 618 669 q 590 631 618 631 q 547 631 564 631 q 514 633 529 631 l 511 631 q 543 497 543 574 q 488 328 543 394 q 328 258 432 263 q 249 234 281 256 q 218 168 218 213 q 272 102 218 113 q 390 81 326 92 q 521 33 468 68 q 574 -89 574 -1 q 506 -241 574 -187 q 306 -294 439 -294 m 315 -204 q 468 -101 468 -204 q 427 -30 468 -47 q 331 -8 386 -12 q 232 11 275 -3 q 181 -31 201 -4 q 160 -100 160 -58 q 212 -185 160 -167 q 315 -204 264 -204 m 315 347 q 404 376 367 347 q 442 494 442 404 q 404 616 442 588 q 315 644 367 644 q 227 616 264 644 q 190 494 190 588 q 227 376 190 404 q 315 347 264 347 z "},"h":{"ha":674,"x_min":113,"x_max":579,"o":"m 165 -3 q 113 28 113 -3 l 113 1014 q 165 1044 113 1044 l 181 1044 q 232 1014 232 1044 l 232 642 q 303 708 260 682 q 401 735 347 735 q 525 685 471 735 q 579 518 579 635 l 579 28 q 526 -3 579 -3 l 513 -3 q 460 28 460 -3 l 460 507 q 361 633 460 633 q 274 597 308 633 q 232 536 239 560 l 232 28 q 179 -3 232 -3 l 165 -3 z "},"ħ":{"ha":654,"x_min":14,"x_max":579,"o":"m 165 -3 q 113 28 113 -3 l 113 1014 q 165 1044 113 1044 l 181 1044 q 232 1014 232 1044 l 232 642 q 303 708 260 682 q 401 735 347 735 q 525 685 471 735 q 579 518 579 635 l 579 28 q 526 -3 579 -3 l 513 -3 q 460 28 460 -3 l 460 507 q 361 633 460 633 q 274 597 308 633 q 232 536 239 560 l 232 28 q 179 -3 232 -3 l 165 -3 m 43 831 q 14 872 14 831 l 14 886 q 43 928 14 928 l 351 928 q 380 886 380 928 l 380 872 q 351 831 380 831 l 43 831 z "},"ĥ":{"ha":674,"x_min":21,"x_max":579,"o":"m 165 -3 q 113 28 113 -3 l 113 1014 q 165 1044 113 1044 l 181 1044 q 232 1014 232 1044 l 232 642 q 303 708 260 682 q 401 735 347 735 q 525 685 471 735 q 579 518 579 635 l 579 28 q 526 -3 579 -3 l 513 -3 q 460 28 460 -3 l 460 507 q 361 633 460 633 q 274 597 308 633 q 232 536 239 560 l 232 28 q 179 -3 232 -3 l 165 -3 z "},"ḥ":{"ha":674,"x_min":113,"x_max":579,"o":"m 165 -3 q 113 28 113 -3 l 113 1014 q 165 1044 113 1044 l 181 1044 q 232 1014 232 1044 l 232 642 q 303 708 260 682 q 401 735 347 735 q 525 685 471 735 q 579 518 579 635 l 579 28 q 526 -3 579 -3 l 513 -3 q 460 28 460 -3 l 460 507 q 361 633 460 633 q 274 597 308 633 q 232 536 239 560 l 232 28 q 179 -3 232 -3 l 165 -3 z "},"i":{"ha":353,"x_min":115,"x_max":240,"o":"m 174 -3 q 118 28 118 -3 l 118 699 q 174 729 118 729 l 179 729 q 235 699 235 729 l 235 28 q 179 -3 235 -3 l 174 -3 z "},"ı":{"ha":353,"x_min":118,"x_max":235,"o":"m 174 -3 q 118 28 118 -3 l 118 699 q 174 729 118 729 l 179 729 q 235 699 235 729 l 235 28 q 179 -3 235 -3 l 174 -3 z "},"í":{"ha":353,"x_min":118,"x_max":342,"o":"m 174 -3 q 118 28 118 -3 l 118 699 q 174 729 118 729 l 179 729 q 235 699 235 729 l 235 28 q 179 -3 235 -3 l 174 -3 z "},"ĭ":{"ha":353,"x_min":14,"x_max":338,"o":"m 174 -3 q 118 28 118 -3 l 118 699 q 174 729 118 729 l 179 729 q 235 699 235 729 l 235 28 q 179 -3 235 -3 l 174 -3 z "},"î":{"ha":353,"x_min":25,"x_max":326,"o":"m 174 -3 q 118 28 118 -3 l 118 699 q 174 729 118 729 l 179 729 q 235 699 235 729 l 235 28 q 179 -3 235 -3 l 174 -3 z "},"ï":{"ha":353,"x_min":36,"x_max":319,"o":"m 174 -3 q 118 28 118 -3 l 118 699 q 174 729 118 729 l 179 729 q 235 699 235 729 l 235 28 q 179 -3 235 -3 l 174 -3 z "},"ị":{"ha":353,"x_min":100,"x_max":240,"o":"m 174 -3 q 118 28 118 -3 l 118 699 q 174 729 118 729 l 179 729 q 235 699 235 729 l 235 28 q 179 -3 235 -3 l 174 -3 z "},"ì":{"ha":353,"x_min":35,"x_max":239,"o":"m 174 -3 q 118 28 118 -3 l 118 699 q 174 729 118 729 l 179 729 q 235 699 235 729 l 235 28 q 179 -3 235 -3 l 174 -3 z "},"ỉ":{"ha":353,"x_min":78,"x_max":313,"o":"m 174 -3 q 118 28 118 -3 l 118 699 q 174 729 118 729 l 179 729 q 235 699 235 729 l 235 28 q 179 -3 235 -3 l 174 -3 m 186 782 q 158 789 176 782 q 140 806 140 796 q 183 858 140 836 q 226 933 226 881 q 175 971 226 971 q 130 962 143 971 q 111 953 117 953 q 90 971 103 953 q 78 999 78 989 q 114 1027 78 1013 q 186 1042 150 1042 q 267 1021 221 1042 q 313 943 313 1000 q 285 861 313 897 q 226 803 257 825 q 186 782 194 782 z "},"ĳ":{"ha":699,"x_min":115,"x_max":593,"o":"m 174 -3 q 118 28 118 -3 l 118 699 q 174 729 118 729 l 179 729 q 235 699 235 729 l 235 28 q 179 -3 235 -3 l 174 -3 z "},"ī":{"ha":353,"x_min":17,"x_max":346,"o":"m 174 -3 q 118 28 118 -3 l 118 699 q 174 729 118 729 l 179 729 q 235 699 235 729 l 235 28 q 179 -3 235 -3 l 174 -3 z "},"į":{"ha":353,"x_min":100,"x_max":338,"o":"m 174 -3 q 118 28 118 -3 l 118 699 q 174 729 118 729 l 179 729 q 235 699 235 729 l 235 28 q 179 -3 235 -3 l 174 -3 m 228 -251 q 121 -203 142 -251 q 100 -129 100 -156 q 113 -56 100 -101 q 161 31 126 -10 l 221 8 q 193 -53 201 -22 q 185 -104 185 -83 q 208 -154 185 -144 q 254 -164 232 -164 q 284 -159 268 -164 q 310 -154 300 -154 q 338 -187 338 -154 q 319 -225 338 -212 q 228 -251 281 -251 z "},"ĩ":{"ha":317,"x_min":-26,"x_max":353,"o":"m -1 822 l -14 828 q -26 844 -26 833 q -22 863 -26 853 q 22 937 -3 915 q 82 958 47 958 q 166 931 122 958 q 243 903 210 903 q 269 910 258 903 q 290 939 279 918 q 315 960 301 960 q 329 956 321 960 l 338 951 q 353 935 353 944 q 351 926 353 931 q 349 915 350 922 q 303 842 329 864 q 244 821 278 821 q 157 849 201 821 q 81 876 113 876 q 57 868 67 876 q 35 839 47 860 q 13 819 24 819 q -1 822 10 819 m 174 -3 q 118 28 118 -3 l 118 699 q 174 729 118 729 l 179 729 q 235 699 235 729 l 235 28 q 179 -3 235 -3 l 174 -3 z "},"j":{"ha":346,"x_min":-14,"x_max":240,"o":"m 83 -294 q 21 -287 56 -294 q -14 -253 -14 -281 q -7 -216 -14 -244 q 15 -187 0 -187 q 31 -191 22 -187 q 65 -194 40 -194 q 102 -176 86 -194 q 118 -100 118 -157 l 118 699 q 174 729 118 729 l 179 729 q 235 699 235 729 l 235 -111 q 181 -260 235 -226 q 83 -294 128 -294 z "},"ȷ":{"ha":346,"x_min":-14,"x_max":235,"o":"m 83 -294 q 21 -287 56 -294 q -14 -253 -14 -281 q -7 -216 -14 -244 q 15 -187 0 -187 q 31 -191 22 -187 q 65 -194 40 -194 q 102 -176 86 -194 q 118 -100 118 -157 l 118 699 q 174 729 118 729 l 179 729 q 235 699 235 729 l 235 -111 q 181 -260 235 -226 q 83 -294 128 -294 z "},"ĵ":{"ha":346,"x_min":-14,"x_max":326,"o":"m 83 -294 q 21 -287 56 -294 q -14 -253 -14 -281 q -7 -216 -14 -244 q 15 -187 0 -187 q 31 -191 22 -187 q 65 -194 40 -194 q 102 -176 86 -194 q 118 -100 118 -157 l 118 699 q 174 729 118 729 l 179 729 q 235 699 235 729 l 235 -111 q 181 -260 235 -226 q 83 -294 128 -294 z "},"k":{"ha":628,"x_min":119,"x_max":593,"o":"m 172 -3 q 119 28 119 -3 l 119 1014 q 172 1044 119 1044 l 188 1044 q 239 1014 239 1044 l 239 393 l 246 393 l 447 710 q 507 729 458 729 l 535 729 q 581 711 581 729 q 569 682 581 700 l 339 333 l 339 422 l 583 39 q 593 17 593 24 q 539 -3 593 -3 l 511 -3 q 464 15 475 -3 l 247 358 l 239 358 l 239 28 q 188 -3 239 -3 l 172 -3 z "},"ķ":{"ha":628,"x_min":119,"x_max":593,"o":"m 172 -3 q 119 28 119 -3 l 119 1014 q 172 1044 119 1044 l 188 1044 q 239 1014 239 1044 l 239 393 l 246 393 l 447 710 q 507 729 458 729 l 535 729 q 581 711 581 729 q 569 682 581 700 l 339 333 l 339 422 l 583 39 q 593 17 593 24 q 539 -3 593 -3 l 511 -3 q 464 15 475 -3 l 247 358 l 239 358 l 239 28 q 188 -3 239 -3 l 172 -3 m 269 -326 q 244 -322 258 -326 q 231 -306 231 -318 q 251 -238 231 -282 q 271 -115 271 -194 q 324 -71 271 -71 l 338 -71 q 386 -110 386 -71 q 342 -268 386 -210 q 269 -326 297 -326 z "},"ĸ":{"ha":628,"x_min":119,"x_max":593,"o":"m 172 -3 q 119 28 119 -3 l 119 699 q 172 729 119 729 l 188 729 q 239 699 239 729 l 239 393 l 246 393 l 447 710 q 471 726 454 722 q 507 729 488 729 l 526 729 q 572 711 572 729 q 558 676 572 699 l 360 378 l 583 39 q 593 17 593 24 q 539 -3 593 -3 l 518 -3 q 481 -1 497 -3 q 457 15 465 1 l 247 344 l 239 344 l 239 28 q 188 -3 239 -3 l 172 -3 z "},"l":{"ha":375,"x_min":106,"x_max":347,"o":"m 253 -8 q 158 22 210 -8 q 106 160 106 53 l 106 1014 q 161 1044 106 1044 l 167 1044 q 222 1014 222 1044 l 222 171 q 238 107 222 122 q 274 92 253 92 q 302 95 293 92 q 318 99 311 99 q 340 70 333 99 q 347 33 347 42 q 313 1 347 11 q 253 -8 279 -8 z "},"ĺ":{"ha":375,"x_min":106,"x_max":347,"o":"m 253 -8 q 158 22 210 -8 q 106 160 106 53 l 106 1014 q 161 1044 106 1044 l 167 1044 q 222 1014 222 1044 l 222 171 q 238 107 222 122 q 274 92 253 92 q 302 95 293 92 q 318 99 311 99 q 340 70 333 99 q 347 33 347 42 q 313 1 347 11 q 253 -8 279 -8 z "},"ľ":{"ha":375,"x_min":106,"x_max":447,"o":"m 253 -8 q 158 22 210 -8 q 106 160 106 53 l 106 1014 q 161 1044 106 1044 l 167 1044 q 222 1014 222 1044 l 222 171 q 238 107 222 122 q 274 92 253 92 q 302 95 293 92 q 318 99 311 99 q 340 70 333 99 q 347 33 347 42 q 313 1 347 11 q 253 -8 279 -8 m 346 733 q 320 738 335 733 q 306 754 306 742 q 315 817 306 776 q 324 931 324 857 q 379 975 324 975 l 392 975 q 447 936 447 975 q 409 788 447 842 q 346 733 371 733 z "},"ļ":{"ha":375,"x_min":106,"x_max":347,"o":"m 253 -8 q 158 22 210 -8 q 106 160 106 53 l 106 1014 q 161 1044 106 1044 l 167 1044 q 222 1014 222 1044 l 222 171 q 238 107 222 122 q 274 92 253 92 q 302 95 293 92 q 318 99 311 99 q 340 70 333 99 q 347 33 347 42 q 313 1 347 11 q 253 -8 279 -8 m 154 -326 q 129 -322 143 -326 q 115 -306 115 -318 q 135 -238 115 -282 q 156 -115 156 -194 q 208 -71 156 -71 l 222 -71 q 271 -110 271 -71 q 226 -268 271 -210 q 154 -326 182 -326 z "},"ŀ":{"ha":429,"x_min":106,"x_max":438,"o":"m 253 -8 q 158 22 210 -8 q 106 160 106 53 l 106 1014 q 161 1044 106 1044 l 167 1044 q 222 1014 222 1044 l 222 171 q 238 107 222 122 q 274 92 253 92 q 302 95 293 92 q 318 99 311 99 q 340 70 333 99 q 347 33 347 42 q 313 1 347 11 q 253 -8 279 -8 m 368 429 q 319 448 339 429 q 300 500 300 467 q 319 553 300 533 q 368 572 339 572 q 417 553 397 572 q 438 500 438 533 q 417 448 438 467 q 368 429 397 429 z "},"ǉ":{"ha":721,"x_min":106,"x_max":615,"o":"m 253 -8 q 158 22 210 -8 q 106 160 106 53 l 106 1014 q 161 1044 106 1044 l 167 1044 q 222 1014 222 1044 l 222 171 q 238 107 222 122 q 274 92 253 92 q 302 95 293 92 q 318 99 311 99 q 340 70 333 99 q 347 33 347 42 q 313 1 347 11 q 253 -8 279 -8 m 458 -294 q 396 -287 431 -294 q 361 -253 361 -281 q 368 -216 361 -244 q 390 -187 375 -187 q 406 -191 397 -187 q 440 -194 415 -194 q 477 -176 461 -194 q 493 -100 493 -157 l 493 699 q 549 729 493 729 l 554 729 q 610 699 610 729 l 610 -111 q 556 -260 610 -226 q 458 -294 503 -294 z "},"ł":{"ha":383,"x_min":50,"x_max":356,"o":"m 76 456 q 63 450 65 450 q 50 469 50 450 l 50 478 q 76 519 50 504 l 290 646 q 304 651 301 651 q 317 632 317 651 l 317 624 q 290 582 317 597 l 76 456 m 261 -8 q 166 22 218 -8 q 114 160 114 53 l 114 1014 q 169 1044 114 1044 l 175 1044 q 231 1014 231 1044 l 231 171 q 246 107 231 122 q 282 92 261 92 q 310 95 301 92 q 326 99 319 99 q 349 70 342 99 q 356 33 356 42 q 322 1 356 11 q 261 -8 288 -8 z "},"m":{"ha":1000,"x_min":94,"x_max":906,"o":"m 160 -3 q 108 28 108 -3 l 108 518 q 101 644 108 603 q 94 693 94 686 q 111 713 94 706 q 147 722 128 719 q 175 725 167 725 q 208 694 201 725 q 219 631 214 664 q 291 705 247 675 q 390 735 335 735 q 483 710 439 735 q 549 628 526 686 q 628 705 581 675 q 729 735 675 735 q 852 682 799 735 q 906 510 906 629 l 906 28 q 853 -3 906 -3 l 839 -3 q 786 28 786 -3 l 786 499 q 692 633 786 633 q 600 588 636 633 q 560 507 564 542 l 561 576 q 566 543 565 560 q 567 510 567 526 l 567 28 q 515 -3 567 -3 l 500 -3 q 447 28 447 -3 l 447 499 q 351 633 447 633 q 267 597 300 633 q 228 536 233 560 l 228 28 q 175 -3 228 -3 l 160 -3 z "},"n":{"ha":669,"x_min":94,"x_max":575,"o":"m 160 -3 q 108 28 108 -3 l 108 518 q 101 644 108 603 q 94 693 94 686 q 111 713 94 706 q 147 722 128 719 q 175 725 167 725 q 208 694 201 725 q 219 631 214 664 q 296 707 250 679 q 394 735 342 735 q 528 677 481 735 q 575 518 575 619 l 575 28 q 522 -3 575 -3 l 508 -3 q 454 28 454 -3 l 454 507 q 356 633 454 633 q 283 606 317 633 q 228 536 249 579 l 228 28 q 175 -3 228 -3 l 160 -3 z "},"ń":{"ha":669,"x_min":94,"x_max":575,"o":"m 160 -3 q 108 28 108 -3 l 108 518 q 101 644 108 603 q 94 693 94 686 q 111 713 94 706 q 147 722 128 719 q 175 725 167 725 q 208 694 201 725 q 219 631 214 664 q 296 707 250 679 q 394 735 342 735 q 528 677 481 735 q 575 518 575 619 l 575 28 q 522 -3 575 -3 l 508 -3 q 454 28 454 -3 l 454 507 q 356 633 454 633 q 283 606 317 633 q 228 536 249 579 l 228 28 q 175 -3 228 -3 l 160 -3 z "},"ŉ":{"ha":669,"x_min":-11,"x_max":575,"o":"m 160 -3 q 108 28 108 -3 l 108 518 q 101 644 108 603 q 94 693 94 686 q 111 713 94 706 q 147 722 128 719 q 175 725 167 725 q 208 694 201 725 q 219 631 214 664 q 296 707 250 679 q 394 735 342 735 q 528 677 481 735 q 575 518 575 619 l 575 28 q 522 -3 575 -3 l 508 -3 q 454 28 454 -3 l 454 507 q 356 633 454 633 q 283 606 317 633 q 228 536 249 579 l 228 28 q 175 -3 228 -3 l 160 -3 z "},"ň":{"ha":669,"x_min":94,"x_max":575,"o":"m 160 -3 q 108 28 108 -3 l 108 518 q 101 644 108 603 q 94 693 94 686 q 111 713 94 706 q 147 722 128 719 q 175 725 167 725 q 208 694 201 725 q 219 631 214 664 q 296 707 250 679 q 394 735 342 735 q 528 677 481 735 q 575 518 575 619 l 575 28 q 522 -3 575 -3 l 508 -3 q 454 28 454 -3 l 454 507 q 356 633 454 633 q 283 606 317 633 q 228 536 249 579 l 228 28 q 175 -3 228 -3 l 160 -3 z "},"ņ":{"ha":669,"x_min":94,"x_max":575,"o":"m 160 -3 q 108 28 108 -3 l 108 518 q 101 644 108 603 q 94 693 94 686 q 111 713 94 706 q 147 722 128 719 q 175 725 167 725 q 208 694 201 725 q 219 631 214 664 q 296 707 250 679 q 394 735 342 735 q 528 677 481 735 q 575 518 575 619 l 575 28 q 522 -3 575 -3 l 508 -3 q 454 28 454 -3 l 454 507 q 356 633 454 633 q 283 606 317 633 q 228 536 249 579 l 228 28 q 175 -3 228 -3 l 160 -3 m 278 -326 q 253 -322 267 -326 q 239 -306 239 -318 q 259 -238 239 -282 q 279 -115 279 -194 q 332 -71 279 -71 l 346 -71 q 394 -110 394 -71 q 350 -268 394 -210 q 278 -326 306 -326 z "},"ṅ":{"ha":669,"x_min":94,"x_max":575,"o":"m 160 -3 q 108 28 108 -3 l 108 518 q 101 644 108 603 q 94 693 94 686 q 111 713 94 706 q 147 722 128 719 q 175 725 167 725 q 208 694 201 725 q 219 631 214 664 q 296 707 250 679 q 394 735 342 735 q 528 677 481 735 q 575 518 575 619 l 575 28 q 522 -3 575 -3 l 508 -3 q 454 28 454 -3 l 454 507 q 356 633 454 633 q 283 606 317 633 q 228 536 249 579 l 228 28 q 175 -3 228 -3 l 160 -3 z "},"ŋ":{"ha":669,"x_min":94,"x_max":575,"o":"m 421 -294 q 359 -287 394 -294 q 324 -253 324 -281 q 331 -216 324 -244 q 353 -187 339 -187 q 369 -191 360 -187 q 403 -194 378 -194 q 439 -176 424 -194 q 454 -100 454 -157 l 454 507 q 356 633 454 633 q 283 606 317 633 q 228 536 249 579 l 228 28 q 175 -3 228 -3 l 160 -3 q 108 28 108 -3 l 108 518 q 101 644 108 603 q 94 693 94 686 q 111 713 94 706 q 147 722 128 719 q 175 725 167 725 q 208 694 201 725 q 219 631 214 664 q 296 707 250 679 q 394 735 342 735 q 528 677 481 735 q 575 518 575 619 l 575 -111 q 520 -260 575 -226 q 421 -294 465 -294 z "},"ǌ":{"ha":1015,"x_min":94,"x_max":910,"o":"m 160 -3 q 108 28 108 -3 l 108 518 q 101 644 108 603 q 94 693 94 686 q 111 713 94 706 q 147 722 128 719 q 175 725 167 725 q 208 694 201 725 q 219 631 214 664 q 296 707 250 679 q 394 735 342 735 q 528 677 481 735 q 575 518 575 619 l 575 28 q 522 -3 575 -3 l 508 -3 q 454 28 454 -3 l 454 507 q 356 633 454 633 q 283 606 317 633 q 228 536 249 579 l 228 28 q 175 -3 228 -3 l 160 -3 m 753 -294 q 690 -287 725 -294 q 656 -253 656 -281 q 663 -216 656 -244 q 685 -187 669 -187 q 701 -191 692 -187 q 735 -194 710 -194 q 772 -176 756 -194 q 788 -100 788 -157 l 788 699 q 843 729 788 729 l 849 729 q 904 699 904 729 l 904 -111 q 851 -260 904 -226 q 753 -294 797 -294 z "},"ñ":{"ha":669,"x_min":94,"x_max":575,"o":"m 160 -3 q 108 28 108 -3 l 108 518 q 101 644 108 603 q 94 693 94 686 q 111 713 94 706 q 147 722 128 719 q 175 725 167 725 q 208 694 201 725 q 219 631 214 664 q 296 707 250 679 q 394 735 342 735 q 528 677 481 735 q 575 518 575 619 l 575 28 q 522 -3 575 -3 l 508 -3 q 454 28 454 -3 l 454 507 q 356 633 454 633 q 283 606 317 633 q 228 536 249 579 l 228 28 q 175 -3 228 -3 l 160 -3 z "},"o":{"ha":663,"x_min":65,"x_max":597,"o":"m 333 -8 q 134 86 203 -8 q 65 360 65 181 q 134 638 65 540 q 333 735 203 735 q 530 638 463 735 q 597 360 597 542 q 531 85 597 179 q 333 -8 464 -8 m 331 92 q 440 158 404 92 q 475 363 475 224 q 440 568 475 501 q 331 635 404 635 q 223 569 257 635 q 189 363 189 503 q 223 158 189 224 q 331 92 257 92 z "},"ó":{"ha":663,"x_min":65,"x_max":597,"o":"m 333 -8 q 134 86 203 -8 q 65 360 65 181 q 134 638 65 540 q 333 735 203 735 q 530 638 463 735 q 597 360 597 542 q 531 85 597 179 q 333 -8 464 -8 m 331 92 q 440 158 404 92 q 475 363 475 224 q 440 568 475 501 q 331 635 404 635 q 223 569 257 635 q 189 363 189 503 q 223 158 189 224 q 331 92 257 92 z "},"ŏ":{"ha":663,"x_min":65,"x_max":597,"o":"m 333 -8 q 134 86 203 -8 q 65 360 65 181 q 134 638 65 540 q 333 735 203 735 q 530 638 463 735 q 597 360 597 542 q 531 85 597 179 q 333 -8 464 -8 m 331 92 q 440 158 404 92 q 475 363 475 224 q 440 568 475 501 q 331 635 404 635 q 223 569 257 635 q 189 363 189 503 q 223 158 189 224 q 331 92 257 92 z "},"ô":{"ha":663,"x_min":65,"x_max":597,"o":"m 333 -8 q 134 86 203 -8 q 65 360 65 181 q 134 638 65 540 q 333 735 203 735 q 530 638 463 735 q 597 360 597 542 q 531 85 597 179 q 333 -8 464 -8 m 331 92 q 440 158 404 92 q 475 363 475 224 q 440 568 475 501 q 331 635 404 635 q 223 569 257 635 q 189 363 189 503 q 223 158 189 224 q 331 92 257 92 z "},"ố":{"ha":643,"x_min":65,"x_max":636,"o":"m 206 800 q 179 818 179 800 q 186 844 179 831 l 253 967 q 276 990 261 982 q 310 997 292 997 l 332 997 q 367 990 353 997 q 389 967 381 982 l 456 844 q 465 821 465 825 q 438 800 465 800 l 411 800 q 375 818 388 800 l 321 921 l 267 818 q 251 803 261 806 q 231 800 242 800 l 206 800 m 333 -8 q 134 86 203 -8 q 65 360 65 181 q 134 638 65 540 q 333 735 203 735 q 530 638 463 735 q 597 360 597 542 q 531 85 597 179 q 333 -8 464 -8 m 331 92 q 440 158 404 92 q 475 363 475 224 q 440 568 475 501 q 331 635 404 635 q 223 569 257 635 q 189 363 189 503 q 223 158 189 224 q 331 92 257 92 m 461 1003 q 432 1017 432 1003 q 446 1058 432 1028 q 500 1171 460 1088 q 529 1199 510 1190 q 578 1207 549 1207 q 636 1189 636 1207 q 628 1169 636 1181 q 598 1126 621 1157 q 528 1028 575 1094 q 502 1008 518 1014 q 461 1003 486 1003 z "},"ộ":{"ha":663,"x_min":65,"x_max":597,"o":"m 333 -8 q 134 86 203 -8 q 65 360 65 181 q 134 638 65 540 q 333 735 203 735 q 530 638 463 735 q 597 360 597 542 q 531 85 597 179 q 333 -8 464 -8 m 331 92 q 440 158 404 92 q 475 363 475 224 q 440 568 475 501 q 331 635 404 635 q 223 569 257 635 q 189 363 189 503 q 223 158 189 224 q 331 92 257 92 z "},"ồ":{"ha":643,"x_min":65,"x_max":597,"o":"m 206 800 q 179 818 179 800 q 186 844 179 831 l 253 967 q 276 990 261 982 q 310 997 292 997 l 332 997 q 367 990 353 997 q 389 967 381 982 l 456 844 q 465 821 465 825 q 438 800 465 800 l 411 800 q 375 818 388 800 l 321 921 l 267 818 q 251 803 261 806 q 231 800 242 800 l 206 800 m 333 -8 q 134 86 203 -8 q 65 360 65 181 q 134 638 65 540 q 333 735 203 735 q 530 638 463 735 q 597 360 597 542 q 531 85 597 179 q 333 -8 464 -8 m 331 92 q 440 158 404 92 q 475 363 475 224 q 440 568 475 501 q 331 635 404 635 q 223 569 257 635 q 189 363 189 503 q 223 158 189 224 q 331 92 257 92 m 504 1003 q 463 1009 479 1003 q 439 1028 447 1015 q 365 1126 389 1094 q 335 1169 342 1157 q 329 1189 329 1181 q 388 1207 329 1207 q 436 1199 417 1207 q 467 1171 456 1190 q 519 1058 506 1088 q 533 1017 533 1028 q 504 1003 533 1003 z "},"ổ":{"ha":643,"x_min":65,"x_max":607,"o":"m 206 800 q 179 818 179 800 q 186 844 179 831 l 253 967 q 276 990 261 982 q 310 997 292 997 l 332 997 q 367 990 353 997 q 389 967 381 982 l 456 844 q 465 821 465 825 q 438 800 465 800 l 411 800 q 375 818 388 800 l 321 921 l 267 818 q 251 803 261 806 q 231 800 242 800 l 206 800 m 333 -8 q 134 86 203 -8 q 65 360 65 181 q 134 638 65 540 q 333 735 203 735 q 530 638 463 735 q 597 360 597 542 q 531 85 597 179 q 333 -8 464 -8 m 331 92 q 440 158 404 92 q 475 363 475 224 q 440 568 475 501 q 331 635 404 635 q 223 569 257 635 q 189 363 189 503 q 223 158 189 224 q 331 92 257 92 m 481 972 q 453 979 471 972 q 435 996 435 986 q 478 1049 435 1026 q 521 1124 521 1072 q 469 1161 521 1161 q 424 1152 438 1161 q 406 1143 411 1143 q 385 1160 397 1143 q 372 1189 372 1178 q 408 1217 372 1203 q 481 1232 444 1232 q 562 1211 517 1232 q 607 1133 607 1190 q 578 1051 607 1088 q 519 993 550 1014 q 481 972 489 972 z "},"ỗ":{"ha":643,"x_min":65,"x_max":597,"o":"m 175 1044 l 163 1050 q 150 1067 150 1056 q 154 1085 150 1075 q 198 1159 172 1138 q 258 1181 224 1181 q 342 1153 299 1181 q 419 1125 386 1125 q 444 1133 433 1125 q 467 1161 456 1140 q 492 1182 478 1182 q 506 1178 497 1182 l 514 1174 q 529 1157 529 1167 q 525 1138 529 1150 q 480 1065 506 1086 q 421 1043 454 1043 q 333 1071 378 1043 q 257 1099 289 1099 q 233 1090 243 1099 q 211 1061 224 1082 q 189 1042 200 1042 q 175 1044 186 1042 m 206 800 q 179 819 179 800 q 189 844 179 825 l 253 936 q 311 967 276 967 l 333 967 q 392 936 369 967 l 456 844 q 465 819 465 829 q 439 800 465 800 l 413 800 q 390 805 400 800 q 375 818 381 810 l 321 899 l 269 818 q 255 805 264 810 q 232 800 246 800 l 206 800 m 333 -8 q 134 86 203 -8 q 65 360 65 181 q 134 638 65 540 q 333 735 203 735 q 530 638 463 735 q 597 360 597 542 q 531 85 597 179 q 333 -8 464 -8 m 331 92 q 440 158 404 92 q 475 363 475 224 q 440 568 475 501 q 331 635 404 635 q 223 569 257 635 q 189 363 189 503 q 223 158 189 224 q 331 92 257 92 z "},"ö":{"ha":663,"x_min":65,"x_max":597,"o":"m 333 -8 q 134 86 203 -8 q 65 360 65 181 q 134 638 65 540 q 333 735 203 735 q 530 638 463 735 q 597 360 597 542 q 531 85 597 179 q 333 -8 464 -8 m 331 92 q 440 158 404 92 q 475 363 475 224 q 440 568 475 501 q 331 635 404 635 q 223 569 257 635 q 189 363 189 503 q 223 158 189 224 q 331 92 257 92 z "},"ọ":{"ha":663,"x_min":65,"x_max":597,"o":"m 333 -8 q 134 86 203 -8 q 65 360 65 181 q 134 638 65 540 q 333 735 203 735 q 530 638 463 735 q 597 360 597 542 q 531 85 597 179 q 333 -8 464 -8 m 331 92 q 440 158 404 92 q 475 363 475 224 q 440 568 475 501 q 331 635 404 635 q 223 569 257 635 q 189 363 189 503 q 223 158 189 224 q 331 92 257 92 z "},"ò":{"ha":663,"x_min":65,"x_max":597,"o":"m 333 -8 q 134 86 203 -8 q 65 360 65 181 q 134 638 65 540 q 333 735 203 735 q 530 638 463 735 q 597 360 597 542 q 531 85 597 179 q 333 -8 464 -8 m 331 92 q 440 158 404 92 q 475 363 475 224 q 440 568 475 501 q 331 635 404 635 q 223 569 257 635 q 189 363 189 503 q 223 158 189 224 q 331 92 257 92 z "},"ỏ":{"ha":663,"x_min":65,"x_max":597,"o":"m 333 -8 q 134 86 203 -8 q 65 360 65 181 q 134 638 65 540 q 333 735 203 735 q 530 638 463 735 q 597 360 597 542 q 531 85 597 179 q 333 -8 464 -8 m 331 92 q 440 158 404 92 q 475 363 475 224 q 440 568 475 501 q 331 635 404 635 q 223 569 257 635 q 189 363 189 503 q 223 158 189 224 q 331 92 257 92 m 342 782 q 314 789 332 782 q 296 806 296 796 q 339 858 296 836 q 382 933 382 881 q 331 971 382 971 q 285 962 299 971 q 267 953 272 953 q 246 971 258 953 q 233 999 233 989 q 269 1027 233 1013 q 342 1042 306 1042 q 422 1021 376 1042 q 468 943 468 1000 q 440 861 468 897 q 381 803 413 825 q 342 782 350 782 z "},"ơ":{"ha":663,"x_min":65,"x_max":640,"o":"m 333 -8 q 134 86 203 -8 q 65 360 65 181 q 134 638 65 540 q 333 735 203 735 q 400 726 369 735 q 458 701 431 718 q 480 692 469 694 q 504 689 490 689 q 545 704 535 689 q 556 735 556 719 q 538 787 556 765 q 518 821 519 808 q 531 843 518 835 l 564 865 q 581 871 571 871 q 622 835 604 871 q 640 768 640 799 q 612 684 640 718 q 522 644 583 650 q 597 360 597 549 q 531 85 597 179 q 333 -8 464 -8 m 331 92 q 440 158 404 92 q 475 363 475 224 q 440 568 475 501 q 331 635 404 635 q 223 569 257 635 q 189 363 189 503 q 223 158 189 224 q 331 92 257 92 z "},"ớ":{"ha":663,"x_min":65,"x_max":640,"o":"m 333 -8 q 134 86 203 -8 q 65 360 65 181 q 134 638 65 540 q 333 735 203 735 q 400 726 369 735 q 458 701 431 718 q 480 692 469 694 q 504 689 490 689 q 545 704 535 689 q 556 735 556 719 q 538 787 556 765 q 518 821 519 808 q 531 843 518 835 l 564 865 q 581 871 571 871 q 622 835 604 871 q 640 768 640 799 q 612 684 640 718 q 522 644 583 650 q 597 360 597 549 q 531 85 597 179 q 333 -8 464 -8 m 331 92 q 440 158 404 92 q 475 363 475 224 q 440 568 475 501 q 331 635 404 635 q 223 569 257 635 q 189 363 189 503 q 223 158 189 224 q 331 92 257 92 z "},"ợ":{"ha":663,"x_min":65,"x_max":640,"o":"m 333 -8 q 134 86 203 -8 q 65 360 65 181 q 134 638 65 540 q 333 735 203 735 q 400 726 369 735 q 458 701 431 718 q 480 692 469 694 q 504 689 490 689 q 545 704 535 689 q 556 735 556 719 q 538 787 556 765 q 518 821 519 808 q 531 843 518 835 l 564 865 q 581 871 571 871 q 622 835 604 871 q 640 768 640 799 q 612 684 640 718 q 522 644 583 650 q 597 360 597 549 q 531 85 597 179 q 333 -8 464 -8 m 331 92 q 440 158 404 92 q 475 363 475 224 q 440 568 475 501 q 331 635 404 635 q 223 569 257 635 q 189 363 189 503 q 223 158 189 224 q 331 92 257 92 z "},"ờ":{"ha":663,"x_min":65,"x_max":640,"o":"m 333 -8 q 134 86 203 -8 q 65 360 65 181 q 134 638 65 540 q 333 735 203 735 q 400 726 369 735 q 458 701 431 718 q 480 692 469 694 q 504 689 490 689 q 545 704 535 689 q 556 735 556 719 q 538 787 556 765 q 518 821 519 808 q 531 843 518 835 l 564 865 q 581 871 571 871 q 622 835 604 871 q 640 768 640 799 q 612 684 640 718 q 522 644 583 650 q 597 360 597 549 q 531 85 597 179 q 333 -8 464 -8 m 331 92 q 440 158 404 92 q 475 363 475 224 q 440 568 475 501 q 331 635 404 635 q 223 569 257 635 q 189 363 189 503 q 223 158 189 224 q 331 92 257 92 z "},"ở":{"ha":663,"x_min":65,"x_max":640,"o":"m 333 -8 q 134 86 203 -8 q 65 360 65 181 q 134 638 65 540 q 333 735 203 735 q 400 726 369 735 q 458 701 431 718 q 480 692 469 694 q 504 689 490 689 q 545 704 535 689 q 556 735 556 719 q 538 787 556 765 q 518 821 519 808 q 531 843 518 835 l 564 865 q 581 871 571 871 q 622 835 604 871 q 640 768 640 799 q 612 684 640 718 q 522 644 583 650 q 597 360 597 549 q 531 85 597 179 q 333 -8 464 -8 m 331 92 q 440 158 404 92 q 475 363 475 224 q 440 568 475 501 q 331 635 404 635 q 223 569 257 635 q 189 363 189 503 q 223 158 189 224 q 331 92 257 92 m 342 782 q 314 789 332 782 q 296 806 296 796 q 339 858 296 836 q 382 933 382 881 q 331 971 382 971 q 285 962 299 971 q 267 953 272 953 q 246 971 258 953 q 233 999 233 989 q 269 1027 233 1013 q 342 1042 306 1042 q 422 1021 376 1042 q 468 943 468 1000 q 440 861 468 897 q 381 803 413 825 q 342 782 350 782 z "},"ỡ":{"ha":663,"x_min":65,"x_max":640,"o":"m 333 -8 q 134 86 203 -8 q 65 360 65 181 q 134 638 65 540 q 333 735 203 735 q 400 726 369 735 q 458 701 431 718 q 480 692 469 694 q 504 689 490 689 q 545 704 535 689 q 556 735 556 719 q 538 787 556 765 q 518 821 519 808 q 531 843 518 835 l 564 865 q 581 871 571 871 q 622 835 604 871 q 640 768 640 799 q 612 684 640 718 q 522 644 583 650 q 597 360 597 549 q 531 85 597 179 q 333 -8 464 -8 m 331 92 q 440 158 404 92 q 475 363 475 224 q 440 568 475 501 q 331 635 404 635 q 223 569 257 635 q 189 363 189 503 q 223 158 189 224 q 331 92 257 92 z "},"ő":{"ha":663,"x_min":65,"x_max":597,"o":"m 333 -8 q 134 86 203 -8 q 65 360 65 181 q 134 638 65 540 q 333 735 203 735 q 530 638 463 735 q 597 360 597 542 q 531 85 597 179 q 333 -8 464 -8 m 331 92 q 440 158 404 92 q 475 363 475 224 q 440 568 475 501 q 331 635 404 635 q 223 569 257 635 q 189 363 189 503 q 223 158 189 224 q 331 92 257 92 z "},"ō":{"ha":663,"x_min":65,"x_max":597,"o":"m 333 -8 q 134 86 203 -8 q 65 360 65 181 q 134 638 65 540 q 333 735 203 735 q 530 638 463 735 q 597 360 597 542 q 531 85 597 179 q 333 -8 464 -8 m 331 92 q 440 158 404 92 q 475 363 475 224 q 440 568 475 501 q 331 635 404 635 q 223 569 257 635 q 189 363 189 503 q 223 158 189 224 q 331 92 257 92 z "},"ǫ":{"ha":663,"x_min":65,"x_max":597,"o":"m 333 -8 q 134 86 203 -8 q 65 360 65 181 q 134 638 65 540 q 333 735 203 735 q 530 638 463 735 q 597 360 597 542 q 531 85 597 179 q 333 -8 464 -8 m 331 92 q 440 158 404 92 q 475 363 475 224 q 440 568 475 501 q 331 635 404 635 q 223 569 257 635 q 189 363 189 503 q 223 158 189 224 q 331 92 257 92 m 403 -260 q 296 -212 317 -260 q 275 -137 275 -164 q 288 -64 275 -110 q 336 22 301 -18 l 396 0 q 368 -61 376 -31 q 360 -112 360 -92 q 383 -162 360 -153 q 429 -172 407 -172 q 459 -167 443 -172 q 485 -162 475 -162 q 513 -196 513 -162 q 494 -233 513 -221 q 403 -260 456 -260 z "},"ø":{"ha":663,"x_min":64,"x_max":597,"o":"m 100 -8 q 77 1 90 -8 q 64 21 64 11 q 72 39 64 26 l 540 722 q 558 733 549 733 q 581 724 567 733 q 594 704 594 714 q 586 686 594 699 l 118 3 q 100 -8 113 -8 m 333 -8 q 134 86 203 -8 q 65 360 65 181 q 134 638 65 540 q 333 735 203 735 q 530 638 463 735 q 597 360 597 542 q 531 85 597 179 q 333 -8 464 -8 m 331 92 q 440 158 404 92 q 475 363 475 224 q 440 568 475 501 q 331 635 404 635 q 223 569 257 635 q 189 363 189 503 q 223 158 189 224 q 331 92 257 92 z "},"ǿ":{"ha":663,"x_min":64,"x_max":597,"o":"m 100 -8 q 77 1 90 -8 q 64 21 64 11 q 72 39 64 26 l 540 722 q 558 733 549 733 q 581 724 567 733 q 594 704 594 714 q 586 686 594 699 l 118 3 q 100 -8 113 -8 m 333 -8 q 134 86 203 -8 q 65 360 65 181 q 134 638 65 540 q 333 735 203 735 q 530 638 463 735 q 597 360 597 542 q 531 85 597 179 q 333 -8 464 -8 m 331 92 q 440 158 404 92 q 475 363 475 224 q 440 568 475 501 q 331 635 404 635 q 223 569 257 635 q 189 363 189 503 q 223 158 189 224 q 331 92 257 92 z "},"õ":{"ha":663,"x_min":65,"x_max":597,"o":"m 333 -8 q 134 86 203 -8 q 65 360 65 181 q 134 638 65 540 q 333 735 203 735 q 530 638 463 735 q 597 360 597 542 q 531 85 597 179 q 333 -8 464 -8 m 331 92 q 440 158 404 92 q 475 363 475 224 q 440 568 475 501 q 331 635 404 635 q 223 569 257 635 q 189 363 189 503 q 223 158 189 224 q 331 92 257 92 z "},"œ":{"ha":1003,"x_min":65,"x_max":953,"o":"m 333 -8 q 131 86 196 -8 q 65 360 65 181 q 131 638 65 540 q 333 735 197 735 q 533 619 467 735 l 533 103 q 333 -8 471 -8 m 332 92 q 448 158 411 92 q 485 363 485 224 q 448 568 485 501 q 332 635 411 635 q 223 569 257 635 q 189 363 189 503 q 223 158 189 224 q 332 92 257 92 m 726 -8 q 508 82 579 -8 q 436 358 436 172 q 506 639 436 543 q 710 735 575 735 q 892 642 831 735 q 953 372 953 550 q 936 338 953 360 q 907 315 919 315 l 561 315 q 604 146 567 200 q 725 92 642 92 q 841 121 804 92 q 888 150 878 150 q 919 121 903 150 q 936 81 936 92 q 908 43 936 64 q 833 7 881 22 q 726 -8 786 -8 m 561 415 l 829 415 q 798 580 829 525 q 706 635 767 635 q 602 580 638 635 q 561 415 567 525 z "},"p":{"ha":672,"x_min":94,"x_max":604,"o":"m 161 -289 q 108 -258 108 -289 l 108 518 q 101 646 108 603 q 94 694 94 689 q 111 713 94 707 q 147 722 128 719 q 175 725 167 725 q 208 696 201 725 q 219 631 214 667 q 294 709 251 683 q 385 735 338 735 q 545 630 486 735 q 604 360 604 525 q 540 88 604 183 q 374 -8 476 -8 q 289 12 322 -8 q 228 63 256 32 l 228 -258 q 175 -289 228 -289 l 161 -289 m 346 94 q 447 162 414 94 q 481 358 481 229 q 449 560 481 488 q 357 633 418 633 q 289 608 322 633 q 228 538 256 583 l 228 157 q 281 110 251 125 q 346 94 311 94 z "},"þ":{"ha":671,"x_min":108,"x_max":604,"o":"m 161 -289 q 108 -258 108 -289 l 108 1014 q 164 1044 108 1044 l 172 1044 q 228 1014 228 1044 l 228 644 q 385 735 292 735 q 544 631 485 735 q 604 358 604 526 q 541 88 604 183 q 375 -8 478 -8 q 289 12 322 -8 q 228 63 256 32 l 228 -258 q 176 -289 228 -289 l 161 -289 m 346 94 q 447 162 414 94 q 481 358 481 229 q 449 560 481 488 q 357 633 418 633 q 289 608 322 633 q 228 538 256 583 l 228 157 q 281 110 251 125 q 346 94 311 94 z "},"q":{"ha":668,"x_min":65,"x_max":561,"o":"m 493 -289 q 442 -258 442 -289 l 442 63 q 381 12 414 32 q 294 -8 347 -8 q 128 87 192 -8 q 65 358 65 182 q 125 631 65 528 q 283 735 185 735 q 374 709 331 735 q 449 631 417 683 q 456 672 451 651 q 464 713 460 692 q 507 729 471 729 l 515 729 q 561 699 561 729 l 561 -258 q 508 -289 561 -289 l 493 -289 m 324 94 q 440 157 394 94 l 440 538 q 381 608 414 583 q 313 633 347 633 q 220 560 251 633 q 189 357 189 488 q 222 163 189 231 q 324 94 256 94 z "},"r":{"ha":468,"x_min":99,"x_max":440,"o":"m 171 -3 q 115 28 115 -3 l 115 518 q 107 645 115 603 q 99 693 99 688 q 114 713 99 706 q 147 722 129 719 q 174 725 164 725 q 208 692 199 725 q 222 631 217 658 q 291 708 254 681 q 368 735 328 735 q 422 719 404 735 q 440 681 440 703 q 433 633 440 661 q 413 606 425 606 q 388 613 400 606 q 344 621 375 621 q 271 586 303 621 q 232 536 239 551 l 232 28 q 176 -3 232 -3 l 171 -3 z "},"ŕ":{"ha":468,"x_min":99,"x_max":440,"o":"m 171 -3 q 115 28 115 -3 l 115 518 q 107 645 115 603 q 99 693 99 688 q 114 713 99 706 q 147 722 129 719 q 174 725 164 725 q 208 692 199 725 q 222 631 217 658 q 291 708 254 681 q 368 735 328 735 q 422 719 404 735 q 440 681 440 703 q 433 633 440 661 q 413 606 425 606 q 388 613 400 606 q 344 621 375 621 q 271 586 303 621 q 232 536 239 551 l 232 28 q 176 -3 232 -3 l 171 -3 z "},"ř":{"ha":468,"x_min":88,"x_max":440,"o":"m 171 -3 q 115 28 115 -3 l 115 518 q 107 645 115 603 q 99 693 99 688 q 114 713 99 706 q 147 722 129 719 q 174 725 164 725 q 208 692 199 725 q 222 631 217 658 q 291 708 254 681 q 368 735 328 735 q 422 719 404 735 q 440 681 440 703 q 433 633 440 661 q 413 606 425 606 q 388 613 400 606 q 344 621 375 621 q 271 586 303 621 q 232 536 239 551 l 232 28 q 176 -3 232 -3 l 171 -3 z "},"ŗ":{"ha":468,"x_min":75,"x_max":440,"o":"m 171 -3 q 115 28 115 -3 l 115 518 q 107 645 115 603 q 99 693 99 688 q 114 713 99 706 q 147 722 129 719 q 174 725 164 725 q 208 692 199 725 q 222 631 217 658 q 291 708 254 681 q 368 735 328 735 q 422 719 404 735 q 440 681 440 703 q 433 633 440 661 q 413 606 425 606 q 388 613 400 606 q 344 621 375 621 q 271 586 303 621 q 232 536 239 551 l 232 28 q 176 -3 232 -3 l 171 -3 m 114 -329 q 89 -325 103 -329 q 75 -308 75 -321 q 95 -241 75 -285 q 115 -118 115 -197 q 168 -74 115 -74 l 182 -74 q 231 -112 231 -74 q 186 -271 231 -212 q 114 -329 142 -329 z "},"ṛ":{"ha":468,"x_min":99,"x_max":440,"o":"m 171 -3 q 115 28 115 -3 l 115 518 q 107 645 115 603 q 99 693 99 688 q 114 713 99 706 q 147 722 129 719 q 174 725 164 725 q 208 692 199 725 q 222 631 217 658 q 291 708 254 681 q 368 735 328 735 q 422 719 404 735 q 440 681 440 703 q 433 633 440 661 q 413 606 425 606 q 388 613 400 606 q 344 621 375 621 q 271 586 303 621 q 232 536 239 551 l 232 28 q 176 -3 232 -3 l 171 -3 z "},"s":{"ha":490,"x_min":40,"x_max":443,"o":"m 229 -12 q 94 19 149 -12 q 40 74 40 50 q 58 117 40 89 q 88 144 76 144 q 131 117 96 144 q 224 90 165 90 q 329 192 329 90 q 297 277 329 244 q 207 338 264 310 q 96 415 135 369 q 57 539 57 461 q 115 682 57 628 q 261 736 174 736 q 366 718 317 736 q 415 676 415 700 q 399 631 415 661 q 372 601 383 601 q 339 619 367 601 q 268 636 311 636 q 201 615 229 636 q 174 551 174 593 q 204 469 174 500 q 278 417 235 439 q 401 331 358 381 q 443 194 443 282 q 381 43 443 99 q 229 -12 318 -12 z "},"ś":{"ha":490,"x_min":40,"x_max":443,"o":"m 229 -12 q 94 19 149 -12 q 40 74 40 50 q 58 117 40 89 q 88 144 76 144 q 131 117 96 144 q 224 90 165 90 q 329 192 329 90 q 297 277 329 244 q 207 338 264 310 q 96 415 135 369 q 57 539 57 461 q 115 682 57 628 q 261 736 174 736 q 366 718 317 736 q 415 676 415 700 q 399 631 415 661 q 372 601 383 601 q 339 619 367 601 q 268 636 311 636 q 201 615 229 636 q 174 551 174 593 q 204 469 174 500 q 278 417 235 439 q 401 331 358 381 q 443 194 443 282 q 381 43 443 99 q 229 -12 318 -12 z "},"š":{"ha":490,"x_min":40,"x_max":443,"o":"m 229 -12 q 94 19 149 -12 q 40 74 40 50 q 58 117 40 89 q 88 144 76 144 q 131 117 96 144 q 224 90 165 90 q 329 192 329 90 q 297 277 329 244 q 207 338 264 310 q 96 415 135 369 q 57 539 57 461 q 115 682 57 628 q 261 736 174 736 q 366 718 317 736 q 415 676 415 700 q 399 631 415 661 q 372 601 383 601 q 339 619 367 601 q 268 636 311 636 q 201 615 229 636 q 174 551 174 593 q 204 469 174 500 q 278 417 235 439 q 401 331 358 381 q 443 194 443 282 q 381 43 443 99 q 229 -12 318 -12 z "},"ş":{"ha":490,"x_min":40,"x_max":443,"o":"m 229 -12 q 94 19 149 -12 q 40 74 40 50 q 58 117 40 89 q 88 144 76 144 q 131 117 96 144 q 224 90 165 90 q 329 192 329 90 q 297 277 329 244 q 207 338 264 310 q 96 415 135 369 q 57 539 57 461 q 115 682 57 628 q 261 736 174 736 q 366 718 317 736 q 415 676 415 700 q 399 631 415 661 q 372 601 383 601 q 339 619 367 601 q 268 636 311 636 q 201 615 229 636 q 174 551 174 593 q 204 469 174 500 q 278 417 235 439 q 401 331 358 381 q 443 194 443 282 q 381 43 443 99 q 229 -12 318 -12 z "},"ŝ":{"ha":490,"x_min":40,"x_max":443,"o":"m 229 -12 q 94 19 149 -12 q 40 74 40 50 q 58 117 40 89 q 88 144 76 144 q 131 117 96 144 q 224 90 165 90 q 329 192 329 90 q 297 277 329 244 q 207 338 264 310 q 96 415 135 369 q 57 539 57 461 q 115 682 57 628 q 261 736 174 736 q 366 718 317 736 q 415 676 415 700 q 399 631 415 661 q 372 601 383 601 q 339 619 367 601 q 268 636 311 636 q 201 615 229 636 q 174 551 174 593 q 204 469 174 500 q 278 417 235 439 q 401 331 358 381 q 443 194 443 282 q 381 43 443 99 q 229 -12 318 -12 z "},"ș":{"ha":490,"x_min":40,"x_max":443,"o":"m 229 -12 q 94 19 149 -12 q 40 74 40 50 q 58 117 40 89 q 88 144 76 144 q 131 117 96 144 q 224 90 165 90 q 329 192 329 90 q 297 277 329 244 q 207 338 264 310 q 96 415 135 369 q 57 539 57 461 q 115 682 57 628 q 261 736 174 736 q 366 718 317 736 q 415 676 415 700 q 399 631 415 661 q 372 601 383 601 q 339 619 367 601 q 268 636 311 636 q 201 615 229 636 q 174 551 174 593 q 204 469 174 500 q 278 417 235 439 q 401 331 358 381 q 443 194 443 282 q 381 43 443 99 q 229 -12 318 -12 m 185 -326 q 160 -322 174 -326 q 146 -306 146 -318 q 166 -238 146 -282 q 186 -115 186 -194 q 239 -71 186 -71 l 253 -71 q 301 -110 301 -71 q 257 -268 301 -210 q 185 -326 213 -326 z "},"ṣ":{"ha":490,"x_min":40,"x_max":443,"o":"m 229 -12 q 94 19 149 -12 q 40 74 40 50 q 58 117 40 89 q 88 144 76 144 q 131 117 96 144 q 224 90 165 90 q 329 192 329 90 q 297 277 329 244 q 207 338 264 310 q 96 415 135 369 q 57 539 57 461 q 115 682 57 628 q 261 736 174 736 q 366 718 317 736 q 415 676 415 700 q 399 631 415 661 q 372 601 383 601 q 339 619 367 601 q 268 636 311 636 q 201 615 229 636 q 174 551 174 593 q 204 469 174 500 q 278 417 235 439 q 401 331 358 381 q 443 194 443 282 q 381 43 443 99 q 229 -12 318 -12 z "},"ß":{"ha":667,"x_min":111,"x_max":604,"o":"m 164 -3 q 111 28 111 -3 l 111 739 q 171 913 111 844 q 344 981 231 981 q 504 929 433 981 q 575 751 575 878 q 542 622 575 681 q 456 538 510 564 l 456 533 q 567 444 531 513 q 604 283 604 376 q 535 74 604 147 q 357 0 465 0 l 325 0 q 299 42 299 0 l 299 58 q 325 100 299 100 l 354 100 q 445 149 408 100 q 482 285 482 197 q 444 423 482 374 q 349 472 406 472 l 325 472 q 299 514 299 472 l 299 531 q 324 572 299 572 l 332 572 q 415 618 381 572 q 450 740 450 664 q 417 851 450 822 q 340 881 383 881 q 231 739 231 881 l 231 28 q 179 -3 231 -3 l 164 -3 z "},"ſ":{"ha":379,"x_min":58,"x_max":381,"o":"m 182 -3 q 126 28 126 -3 l 126 626 l 86 626 q 58 668 58 626 l 58 685 q 86 726 58 726 l 126 726 l 126 874 q 184 1019 126 989 q 285 1050 242 1050 q 349 1040 317 1050 q 381 1007 381 1029 q 373 970 381 999 q 350 942 365 942 q 332 946 342 942 q 300 950 322 950 q 260 935 278 950 q 243 863 243 921 l 243 28 q 188 -3 243 -3 l 182 -3 z "},"ə":{"ha":611,"x_min":38,"x_max":554,"o":"m 264 735 q 483 644 411 735 q 554 368 554 554 q 485 88 554 183 q 281 -8 417 -8 q 99 84 160 -8 q 38 354 38 176 q 54 389 38 367 q 83 411 71 411 l 429 411 q 385 581 422 526 q 265 635 349 635 q 150 606 186 635 q 103 576 114 576 q 72 606 89 576 q 54 646 54 635 q 82 683 54 663 q 158 719 110 704 q 264 735 206 735 m 429 311 l 161 311 q 192 147 161 201 q 285 92 224 92 q 388 147 353 92 q 429 311 424 201 z "},"t":{"ha":414,"x_min":53,"x_max":374,"o":"m 282 -8 q 181 22 235 -8 q 126 160 126 53 l 126 626 l 81 626 q 53 668 53 626 l 53 685 q 81 726 53 726 l 126 726 l 143 872 q 188 903 146 903 l 201 903 q 243 872 243 903 l 243 726 l 335 726 q 363 685 363 726 l 363 668 q 335 626 363 626 l 243 626 l 243 179 q 259 108 243 125 q 297 92 275 92 q 328 95 318 92 q 344 99 339 99 q 366 70 358 99 q 374 32 374 42 q 340 -1 374 6 q 282 -8 306 -8 z "},"ŧ":{"ha":394,"x_min":25,"x_max":374,"o":"m 282 -8 q 181 22 235 -8 q 126 160 126 53 l 126 626 l 81 626 q 53 668 53 626 l 53 685 q 81 726 53 726 l 126 726 l 143 872 q 188 903 146 903 l 201 903 q 243 872 243 903 l 243 726 l 335 726 q 363 685 363 726 l 363 668 q 335 626 363 626 l 243 626 l 243 179 q 259 108 243 125 q 297 92 275 92 q 328 95 318 92 q 344 99 339 99 q 366 70 358 99 q 374 32 374 42 q 340 -1 374 6 q 282 -8 306 -8 m 54 361 q 26 403 26 361 l 26 417 q 54 458 26 458 l 346 458 q 374 417 374 458 l 374 403 q 346 361 374 361 l 54 361 z "},"ť":{"ha":414,"x_min":53,"x_max":439,"o":"m 282 -8 q 181 22 235 -8 q 126 160 126 53 l 126 626 l 81 626 q 53 668 53 626 l 53 685 q 81 726 53 726 l 126 726 l 143 872 q 188 903 146 903 l 201 903 q 243 872 243 903 l 243 726 l 335 726 q 363 685 363 726 l 363 668 q 335 626 363 626 l 243 626 l 243 179 q 259 108 243 125 q 297 92 275 92 q 328 95 318 92 q 344 99 339 99 q 366 70 358 99 q 374 32 374 42 q 340 -1 374 6 q 282 -8 306 -8 m 338 803 q 312 807 326 803 q 297 824 297 811 q 306 886 297 846 q 315 1000 315 926 q 371 1044 315 1044 l 383 1044 q 439 1006 439 1044 q 401 857 439 911 q 338 803 363 803 z "},"ţ":{"ha":414,"x_min":53,"x_max":374,"o":"m 282 -8 q 181 22 235 -8 q 126 160 126 53 l 126 626 l 81 626 q 53 668 53 626 l 53 685 q 81 726 53 726 l 126 726 l 143 872 q 188 903 146 903 l 201 903 q 243 872 243 903 l 243 726 l 335 726 q 363 685 363 726 l 363 668 q 335 626 363 626 l 243 626 l 243 179 q 259 108 243 125 q 297 92 275 92 q 328 95 318 92 q 344 99 339 99 q 366 70 358 99 q 374 32 374 42 q 340 -1 374 6 q 282 -8 306 -8 z "},"ț":{"ha":414,"x_min":53,"x_max":374,"o":"m 282 -8 q 181 22 235 -8 q 126 160 126 53 l 126 626 l 81 626 q 53 668 53 626 l 53 685 q 81 726 53 726 l 126 726 l 143 872 q 188 903 146 903 l 201 903 q 243 872 243 903 l 243 726 l 335 726 q 363 685 363 726 l 363 668 q 335 626 363 626 l 243 626 l 243 179 q 259 108 243 125 q 297 92 275 92 q 328 95 318 92 q 344 99 339 99 q 366 70 358 99 q 374 32 374 42 q 340 -1 374 6 q 282 -8 306 -8 m 193 -326 q 168 -322 182 -326 q 154 -306 154 -318 q 174 -238 154 -282 q 194 -115 194 -194 q 247 -71 194 -71 l 261 -71 q 310 -110 310 -71 q 265 -268 310 -210 q 193 -326 221 -326 z "},"ṭ":{"ha":414,"x_min":53,"x_max":374,"o":"m 282 -8 q 181 22 235 -8 q 126 160 126 53 l 126 626 l 81 626 q 53 668 53 626 l 53 685 q 81 726 53 726 l 126 726 l 143 872 q 188 903 146 903 l 201 903 q 243 872 243 903 l 243 726 l 335 726 q 363 685 363 726 l 363 668 q 335 626 363 626 l 243 626 l 243 179 q 259 108 243 125 q 297 92 275 92 q 328 95 318 92 q 344 99 339 99 q 366 70 358 99 q 374 32 374 42 q 340 -1 374 6 q 282 -8 306 -8 z "},"u":{"ha":669,"x_min":94,"x_max":575,"o":"m 275 -10 q 142 44 189 -10 q 94 192 94 97 l 94 697 q 147 728 94 728 l 161 728 q 214 697 214 728 l 214 210 q 313 92 214 92 q 386 119 353 92 q 442 189 419 146 l 442 697 q 494 728 442 728 l 508 728 q 561 697 561 728 l 561 207 q 568 79 561 122 q 575 31 575 36 q 558 12 575 18 q 522 3 542 6 q 494 0 503 0 q 462 30 468 0 q 450 94 456 60 q 374 18 419 46 q 275 -10 328 -10 z "},"ú":{"ha":669,"x_min":94,"x_max":575,"o":"m 275 -10 q 142 44 189 -10 q 94 192 94 97 l 94 697 q 147 728 94 728 l 161 728 q 214 697 214 728 l 214 210 q 313 92 214 92 q 386 119 353 92 q 442 189 419 146 l 442 697 q 494 728 442 728 l 508 728 q 561 697 561 728 l 561 207 q 568 79 561 122 q 575 31 575 36 q 558 12 575 18 q 522 3 542 6 q 494 0 503 0 q 462 30 468 0 q 450 94 456 60 q 374 18 419 46 q 275 -10 328 -10 z "},"ŭ":{"ha":669,"x_min":94,"x_max":575,"o":"m 275 -10 q 142 44 189 -10 q 94 192 94 97 l 94 697 q 147 728 94 728 l 161 728 q 214 697 214 728 l 214 210 q 313 92 214 92 q 386 119 353 92 q 442 189 419 146 l 442 697 q 494 728 442 728 l 508 728 q 561 697 561 728 l 561 207 q 568 79 561 122 q 575 31 575 36 q 558 12 575 18 q 522 3 542 6 q 494 0 503 0 q 462 30 468 0 q 450 94 456 60 q 374 18 419 46 q 275 -10 328 -10 z "},"û":{"ha":669,"x_min":94,"x_max":575,"o":"m 275 -10 q 142 44 189 -10 q 94 192 94 97 l 94 697 q 147 728 94 728 l 161 728 q 214 697 214 728 l 214 210 q 313 92 214 92 q 386 119 353 92 q 442 189 419 146 l 442 697 q 494 728 442 728 l 508 728 q 561 697 561 728 l 561 207 q 568 79 561 122 q 575 31 575 36 q 558 12 575 18 q 522 3 542 6 q 494 0 503 0 q 462 30 468 0 q 450 94 456 60 q 374 18 419 46 q 275 -10 328 -10 z "},"ü":{"ha":669,"x_min":94,"x_max":575,"o":"m 275 -10 q 142 44 189 -10 q 94 192 94 97 l 94 697 q 147 728 94 728 l 161 728 q 214 697 214 728 l 214 210 q 313 92 214 92 q 386 119 353 92 q 442 189 419 146 l 442 697 q 494 728 442 728 l 508 728 q 561 697 561 728 l 561 207 q 568 79 561 122 q 575 31 575 36 q 558 12 575 18 q 522 3 542 6 q 494 0 503 0 q 462 30 468 0 q 450 94 456 60 q 374 18 419 46 q 275 -10 328 -10 z "},"ụ":{"ha":669,"x_min":94,"x_max":575,"o":"m 275 -10 q 142 44 189 -10 q 94 192 94 97 l 94 697 q 147 728 94 728 l 161 728 q 214 697 214 728 l 214 210 q 313 92 214 92 q 386 119 353 92 q 442 189 419 146 l 442 697 q 494 728 442 728 l 508 728 q 561 697 561 728 l 561 207 q 568 79 561 122 q 575 31 575 36 q 558 12 575 18 q 522 3 542 6 q 494 0 503 0 q 462 30 468 0 q 450 94 456 60 q 374 18 419 46 q 275 -10 328 -10 z "},"ù":{"ha":669,"x_min":94,"x_max":575,"o":"m 275 -10 q 142 44 189 -10 q 94 192 94 97 l 94 697 q 147 728 94 728 l 161 728 q 214 697 214 728 l 214 210 q 313 92 214 92 q 386 119 353 92 q 442 189 419 146 l 442 697 q 494 728 442 728 l 508 728 q 561 697 561 728 l 561 207 q 568 79 561 122 q 575 31 575 36 q 558 12 575 18 q 522 3 542 6 q 494 0 503 0 q 462 30 468 0 q 450 94 456 60 q 374 18 419 46 q 275 -10 328 -10 z "},"ủ":{"ha":669,"x_min":94,"x_max":575,"o":"m 275 -10 q 142 44 189 -10 q 94 192 94 97 l 94 697 q 147 728 94 728 l 161 728 q 214 697 214 728 l 214 210 q 313 92 214 92 q 386 119 353 92 q 442 189 419 146 l 442 697 q 494 728 442 728 l 508 728 q 561 697 561 728 l 561 207 q 568 79 561 122 q 575 31 575 36 q 558 12 575 18 q 522 3 542 6 q 494 0 503 0 q 462 30 468 0 q 450 94 456 60 q 374 18 419 46 q 275 -10 328 -10 m 342 782 q 314 789 332 782 q 296 806 296 796 q 339 858 296 836 q 382 933 382 881 q 331 971 382 971 q 285 962 299 971 q 267 953 272 953 q 246 971 258 953 q 233 999 233 989 q 269 1027 233 1013 q 342 1042 306 1042 q 422 1021 376 1042 q 468 943 468 1000 q 440 861 468 897 q 381 803 413 825 q 342 782 350 782 z "},"ư":{"ha":650,"x_min":85,"x_max":675,"o":"m 675 807 q 551 682 675 692 l 551 207 q 558 79 551 122 q 565 31 565 36 q 549 12 565 18 q 512 3 532 6 q 485 0 492 0 q 453 30 458 0 q 440 94 447 60 q 363 18 408 46 q 265 -10 317 -10 q 132 44 179 -10 q 85 192 85 97 l 85 697 q 138 728 85 728 l 151 728 q 204 697 204 728 l 204 210 q 303 92 204 92 q 376 119 342 92 q 432 189 410 146 l 432 697 q 485 728 432 728 l 529 728 q 578 743 565 728 q 590 774 590 758 q 572 826 590 806 q 553 860 554 847 q 565 882 553 874 l 599 904 q 615 910 606 910 q 657 874 639 910 q 675 807 675 838 z "},"ứ":{"ha":650,"x_min":85,"x_max":675,"o":"m 675 807 q 551 682 675 692 l 551 207 q 558 79 551 122 q 565 31 565 36 q 549 12 565 18 q 512 3 532 6 q 485 0 492 0 q 453 30 458 0 q 440 94 447 60 q 363 18 408 46 q 265 -10 317 -10 q 132 44 179 -10 q 85 192 85 97 l 85 697 q 138 728 85 728 l 151 728 q 204 697 204 728 l 204 210 q 303 92 204 92 q 376 119 342 92 q 432 189 410 146 l 432 697 q 485 728 432 728 l 529 728 q 578 743 565 728 q 590 774 590 758 q 572 826 590 806 q 553 860 554 847 q 565 882 553 874 l 599 904 q 615 910 606 910 q 657 874 639 910 q 675 807 675 838 z "},"ự":{"ha":650,"x_min":85,"x_max":675,"o":"m 675 807 q 551 682 675 692 l 551 207 q 558 79 551 122 q 565 31 565 36 q 549 12 565 18 q 512 3 532 6 q 485 0 492 0 q 453 30 458 0 q 440 94 447 60 q 363 18 408 46 q 265 -10 317 -10 q 132 44 179 -10 q 85 192 85 97 l 85 697 q 138 728 85 728 l 151 728 q 204 697 204 728 l 204 210 q 303 92 204 92 q 376 119 342 92 q 432 189 410 146 l 432 697 q 485 728 432 728 l 529 728 q 578 743 565 728 q 590 774 590 758 q 572 826 590 806 q 553 860 554 847 q 565 882 553 874 l 599 904 q 615 910 606 910 q 657 874 639 910 q 675 807 675 838 z "},"ừ":{"ha":650,"x_min":85,"x_max":675,"o":"m 675 807 q 551 682 675 692 l 551 207 q 558 79 551 122 q 565 31 565 36 q 549 12 565 18 q 512 3 532 6 q 485 0 492 0 q 453 30 458 0 q 440 94 447 60 q 363 18 408 46 q 265 -10 317 -10 q 132 44 179 -10 q 85 192 85 97 l 85 697 q 138 728 85 728 l 151 728 q 204 697 204 728 l 204 210 q 303 92 204 92 q 376 119 342 92 q 432 189 410 146 l 432 697 q 485 728 432 728 l 529 728 q 578 743 565 728 q 590 774 590 758 q 572 826 590 806 q 553 860 554 847 q 565 882 553 874 l 599 904 q 615 910 606 910 q 657 874 639 910 q 675 807 675 838 z "},"ử":{"ha":650,"x_min":85,"x_max":675,"o":"m 675 807 q 551 682 675 692 l 551 207 q 558 79 551 122 q 565 31 565 36 q 549 12 565 18 q 512 3 532 6 q 485 0 492 0 q 453 30 458 0 q 440 94 447 60 q 363 18 408 46 q 265 -10 317 -10 q 132 44 179 -10 q 85 192 85 97 l 85 697 q 138 728 85 728 l 151 728 q 204 697 204 728 l 204 210 q 303 92 204 92 q 376 119 342 92 q 432 189 410 146 l 432 697 q 485 728 432 728 l 529 728 q 578 743 565 728 q 590 774 590 758 q 572 826 590 806 q 553 860 554 847 q 565 882 553 874 l 599 904 q 615 910 606 910 q 657 874 639 910 q 675 807 675 838 m 332 782 q 304 789 322 782 q 286 806 286 796 q 329 858 286 836 q 372 933 372 881 q 321 971 372 971 q 276 962 289 971 q 257 953 263 953 q 236 971 249 953 q 224 999 224 989 q 260 1027 224 1013 q 332 1042 296 1042 q 413 1021 367 1042 q 458 943 458 1000 q 431 861 458 897 q 372 803 403 825 q 332 782 340 782 z "},"ữ":{"ha":650,"x_min":85,"x_max":675,"o":"m 149 822 l 136 828 q 124 844 124 833 q 128 863 124 853 q 172 937 147 915 q 232 958 197 958 q 316 931 272 958 q 393 903 360 903 q 418 910 407 903 q 440 939 429 918 q 465 960 451 960 q 479 956 471 960 l 488 951 q 503 935 503 944 q 501 926 503 931 q 497 915 500 922 q 453 842 478 864 q 394 821 428 821 q 307 849 351 821 q 229 876 263 876 q 206 868 217 876 q 185 839 196 860 q 163 819 174 819 q 149 822 160 819 m 675 807 q 551 682 675 692 l 551 207 q 558 79 551 122 q 565 31 565 36 q 549 12 565 18 q 512 3 532 6 q 485 0 492 0 q 453 30 458 0 q 440 94 447 60 q 363 18 408 46 q 265 -10 317 -10 q 132 44 179 -10 q 85 192 85 97 l 85 697 q 138 728 85 728 l 151 728 q 204 697 204 728 l 204 210 q 303 92 204 92 q 376 119 342 92 q 432 189 410 146 l 432 697 q 485 728 432 728 l 529 728 q 578 743 565 728 q 590 774 590 758 q 572 826 590 806 q 553 860 554 847 q 565 882 553 874 l 599 904 q 615 910 606 910 q 657 874 639 910 q 675 807 675 838 z "},"ű":{"ha":669,"x_min":94,"x_max":575,"o":"m 275 -10 q 142 44 189 -10 q 94 192 94 97 l 94 697 q 147 728 94 728 l 161 728 q 214 697 214 728 l 214 210 q 313 92 214 92 q 386 119 353 92 q 442 189 419 146 l 442 697 q 494 728 442 728 l 508 728 q 561 697 561 728 l 561 207 q 568 79 561 122 q 575 31 575 36 q 558 12 575 18 q 522 3 542 6 q 494 0 503 0 q 462 30 468 0 q 450 94 456 60 q 374 18 419 46 q 275 -10 328 -10 z "},"ū":{"ha":669,"x_min":94,"x_max":575,"o":"m 275 -10 q 142 44 189 -10 q 94 192 94 97 l 94 697 q 147 728 94 728 l 161 728 q 214 697 214 728 l 214 210 q 313 92 214 92 q 386 119 353 92 q 442 189 419 146 l 442 697 q 494 728 442 728 l 508 728 q 561 697 561 728 l 561 207 q 568 79 561 122 q 575 31 575 36 q 558 12 575 18 q 522 3 542 6 q 494 0 503 0 q 462 30 468 0 q 450 94 456 60 q 374 18 419 46 q 275 -10 328 -10 z "},"ų":{"ha":669,"x_min":94,"x_max":690,"o":"m 275 -10 q 142 44 189 -10 q 94 192 94 97 l 94 697 q 147 728 94 728 l 161 728 q 214 697 214 728 l 214 210 q 313 92 214 92 q 386 119 353 92 q 442 189 419 146 l 442 697 q 494 728 442 728 l 508 728 q 561 697 561 728 l 561 207 q 568 79 561 122 q 575 31 575 36 q 558 12 575 18 q 522 3 542 6 q 494 0 503 0 q 462 30 468 0 q 450 94 456 60 q 374 18 419 46 q 275 -10 328 -10 m 581 -228 q 474 -180 494 -228 q 453 -106 453 -132 q 466 -32 453 -78 q 514 54 479 14 l 574 32 q 546 -29 554 1 q 538 -81 538 -60 q 561 -131 538 -121 q 607 -140 585 -140 q 637 -135 621 -140 q 663 -131 653 -131 q 690 -164 690 -131 q 672 -201 690 -189 q 581 -228 633 -228 z "},"ů":{"ha":669,"x_min":94,"x_max":575,"o":"m 275 -10 q 142 44 189 -10 q 94 192 94 97 l 94 697 q 147 728 94 728 l 161 728 q 214 697 214 728 l 214 210 q 313 92 214 92 q 386 119 353 92 q 442 189 419 146 l 442 697 q 494 728 442 728 l 508 728 q 561 697 561 728 l 561 207 q 568 79 561 122 q 575 31 575 36 q 558 12 575 18 q 522 3 542 6 q 494 0 503 0 q 462 30 468 0 q 450 94 456 60 q 374 18 419 46 q 275 -10 328 -10 z "},"ũ":{"ha":669,"x_min":94,"x_max":575,"o":"m 275 -10 q 142 44 189 -10 q 94 192 94 97 l 94 697 q 147 728 94 728 l 161 728 q 214 697 214 728 l 214 210 q 313 92 214 92 q 386 119 353 92 q 442 189 419 146 l 442 697 q 494 728 442 728 l 508 728 q 561 697 561 728 l 561 207 q 568 79 561 122 q 575 31 575 36 q 558 12 575 18 q 522 3 542 6 q 494 0 503 0 q 462 30 468 0 q 450 94 456 60 q 374 18 419 46 q 275 -10 328 -10 z "},"v":{"ha":572,"x_min":32,"x_max":539,"o":"m 257 -3 q 206 19 213 -3 l 35 686 q 32 706 32 700 q 86 729 32 729 l 104 729 q 154 707 149 729 l 250 301 q 269 211 261 258 q 285 122 278 164 l 293 122 q 307 211 300 164 q 324 301 314 258 l 421 707 q 472 729 426 729 l 489 729 q 539 706 539 729 q 536 686 539 703 l 365 19 q 315 -3 360 -3 l 257 -3 z "},"w":{"ha":856,"x_min":21,"x_max":835,"o":"m 222 -3 q 172 19 176 -3 l 25 678 q 22 692 24 683 q 21 706 21 701 q 78 729 21 729 q 142 707 138 729 l 219 264 q 233 193 225 236 q 247 117 242 150 l 254 117 q 267 191 258 149 q 282 265 275 233 l 367 706 q 415 729 372 729 l 442 729 q 476 724 463 729 q 492 706 489 719 l 578 265 q 594 187 586 224 q 606 118 601 150 l 613 118 q 626 192 618 151 q 640 264 635 233 l 717 707 q 781 729 721 729 q 835 706 835 729 q 832 682 835 699 l 683 19 q 633 -3 679 -3 l 586 -3 q 553 2 567 -3 q 536 19 539 7 l 453 429 q 441 490 447 456 q 432 553 435 525 l 426 553 q 417 490 424 525 q 406 429 411 456 l 321 19 q 271 -3 315 -3 l 222 -3 z "},"ẃ":{"ha":856,"x_min":21,"x_max":835,"o":"m 222 -3 q 172 19 176 -3 l 25 678 q 22 692 24 683 q 21 706 21 701 q 78 729 21 729 q 142 707 138 729 l 219 264 q 233 193 225 236 q 247 117 242 150 l 254 117 q 267 191 258 149 q 282 265 275 233 l 367 706 q 415 729 372 729 l 442 729 q 476 724 463 729 q 492 706 489 719 l 578 265 q 594 187 586 224 q 606 118 601 150 l 613 118 q 626 192 618 151 q 640 264 635 233 l 717 707 q 781 729 721 729 q 835 706 835 729 q 832 682 835 699 l 683 19 q 633 -3 679 -3 l 586 -3 q 553 2 567 -3 q 536 19 539 7 l 453 429 q 441 490 447 456 q 432 553 435 525 l 426 553 q 417 490 424 525 q 406 429 411 456 l 321 19 q 271 -3 315 -3 l 222 -3 z "},"ŵ":{"ha":856,"x_min":21,"x_max":835,"o":"m 222 -3 q 172 19 176 -3 l 25 678 q 22 692 24 683 q 21 706 21 701 q 78 729 21 729 q 142 707 138 729 l 219 264 q 233 193 225 236 q 247 117 242 150 l 254 117 q 267 191 258 149 q 282 265 275 233 l 367 706 q 415 729 372 729 l 442 729 q 476 724 463 729 q 492 706 489 719 l 578 265 q 594 187 586 224 q 606 118 601 150 l 613 118 q 626 192 618 151 q 640 264 635 233 l 717 707 q 781 729 721 729 q 835 706 835 729 q 832 682 835 699 l 683 19 q 633 -3 679 -3 l 586 -3 q 553 2 567 -3 q 536 19 539 7 l 453 429 q 441 490 447 456 q 432 553 435 525 l 426 553 q 417 490 424 525 q 406 429 411 456 l 321 19 q 271 -3 315 -3 l 222 -3 z "},"ẅ":{"ha":856,"x_min":21,"x_max":835,"o":"m 222 -3 q 172 19 176 -3 l 25 678 q 22 692 24 683 q 21 706 21 701 q 78 729 21 729 q 142 707 138 729 l 219 264 q 233 193 225 236 q 247 117 242 150 l 254 117 q 267 191 258 149 q 282 265 275 233 l 367 706 q 415 729 372 729 l 442 729 q 476 724 463 729 q 492 706 489 719 l 578 265 q 594 187 586 224 q 606 118 601 150 l 613 118 q 626 192 618 151 q 640 264 635 233 l 717 707 q 781 729 721 729 q 835 706 835 729 q 832 682 835 699 l 683 19 q 633 -3 679 -3 l 586 -3 q 553 2 567 -3 q 536 19 539 7 l 453 429 q 441 490 447 456 q 432 553 435 525 l 426 553 q 417 490 424 525 q 406 429 411 456 l 321 19 q 271 -3 315 -3 l 222 -3 z "},"ẁ":{"ha":856,"x_min":21,"x_max":835,"o":"m 222 -3 q 172 19 176 -3 l 25 678 q 22 692 24 683 q 21 706 21 701 q 78 729 21 729 q 142 707 138 729 l 219 264 q 233 193 225 236 q 247 117 242 150 l 254 117 q 267 191 258 149 q 282 265 275 233 l 367 706 q 415 729 372 729 l 442 729 q 476 724 463 729 q 492 706 489 719 l 578 265 q 594 187 586 224 q 606 118 601 150 l 613 118 q 626 192 618 151 q 640 264 635 233 l 717 707 q 781 729 721 729 q 835 706 835 729 q 832 682 835 699 l 683 19 q 633 -3 679 -3 l 586 -3 q 553 2 567 -3 q 536 19 539 7 l 453 429 q 441 490 447 456 q 432 553 435 525 l 426 553 q 417 490 424 525 q 406 429 411 456 l 321 19 q 271 -3 315 -3 l 222 -3 z "},"x":{"ha":561,"x_min":22,"x_max":539,"o":"m 53 0 q 22 21 22 0 q 32 46 22 29 l 211 372 l 43 681 q 35 706 35 700 q 92 729 35 729 l 111 729 q 144 726 131 729 q 165 708 158 722 l 261 510 q 274 483 269 494 q 283 461 279 472 q 292 483 288 472 q 304 510 297 494 l 401 708 q 423 726 408 722 q 457 729 438 729 l 474 729 q 528 706 528 729 q 518 681 528 697 l 350 374 l 531 46 q 539 21 539 26 q 508 0 539 0 l 464 0 q 431 3 444 0 q 411 17 417 6 l 303 239 q 290 269 294 256 q 279 296 285 283 q 269 269 275 283 q 256 239 264 256 l 147 17 q 126 3 142 6 q 93 0 111 0 l 53 0 z "},"y":{"ha":554,"x_min":26,"x_max":535,"o":"m 172 -289 q 128 -267 128 -289 q 133 -243 128 -261 l 243 110 l 263 85 l 250 85 q 229 87 240 85 q 214 104 218 89 l 32 681 q 26 706 26 697 q 81 729 26 729 l 100 729 q 133 724 119 729 q 150 707 147 719 l 253 331 q 266 275 260 303 q 279 219 272 247 l 288 219 q 300 274 294 246 q 313 331 306 303 l 414 707 q 465 729 419 729 l 482 729 q 535 706 535 729 q 529 681 535 699 l 257 -260 q 201 -289 247 -289 l 172 -289 z "},"ý":{"ha":554,"x_min":26,"x_max":535,"o":"m 172 -289 q 128 -267 128 -289 q 133 -243 128 -261 l 243 110 l 263 85 l 250 85 q 229 87 240 85 q 214 104 218 89 l 32 681 q 26 706 26 697 q 81 729 26 729 l 100 729 q 133 724 119 729 q 150 707 147 719 l 253 331 q 266 275 260 303 q 279 219 272 247 l 288 219 q 300 274 294 246 q 313 331 306 303 l 414 707 q 465 729 419 729 l 482 729 q 535 706 535 729 q 529 681 535 699 l 257 -260 q 201 -289 247 -289 l 172 -289 z "},"ŷ":{"ha":554,"x_min":26,"x_max":535,"o":"m 172 -289 q 128 -267 128 -289 q 133 -243 128 -261 l 243 110 l 263 85 l 250 85 q 229 87 240 85 q 214 104 218 89 l 32 681 q 26 706 26 697 q 81 729 26 729 l 100 729 q 133 724 119 729 q 150 707 147 719 l 253 331 q 266 275 260 303 q 279 219 272 247 l 288 219 q 300 274 294 246 q 313 331 306 303 l 414 707 q 465 729 419 729 l 482 729 q 535 706 535 729 q 529 681 535 699 l 257 -260 q 201 -289 247 -289 l 172 -289 z "},"ÿ":{"ha":554,"x_min":26,"x_max":535,"o":"m 172 -289 q 128 -267 128 -289 q 133 -243 128 -261 l 243 110 l 263 85 l 250 85 q 229 87 240 85 q 214 104 218 89 l 32 681 q 26 706 26 697 q 81 729 26 729 l 100 729 q 133 724 119 729 q 150 707 147 719 l 253 331 q 266 275 260 303 q 279 219 272 247 l 288 219 q 300 274 294 246 q 313 331 306 303 l 414 707 q 465 729 419 729 l 482 729 q 535 706 535 729 q 529 681 535 699 l 257 -260 q 201 -289 247 -289 l 172 -289 z "},"ỵ":{"ha":554,"x_min":26,"x_max":535,"o":"m 172 -289 q 128 -267 128 -289 q 133 -243 128 -261 l 243 110 l 263 85 l 250 85 q 229 87 240 85 q 214 104 218 89 l 32 681 q 26 706 26 697 q 81 729 26 729 l 100 729 q 133 724 119 729 q 150 707 147 719 l 253 331 q 266 275 260 303 q 279 219 272 247 l 288 219 q 300 274 294 246 q 313 331 306 303 l 414 707 q 465 729 419 729 l 482 729 q 535 706 535 729 q 529 681 535 699 l 257 -260 q 201 -289 247 -289 l 172 -289 z "},"ỳ":{"ha":554,"x_min":26,"x_max":535,"o":"m 172 -289 q 128 -267 128 -289 q 133 -243 128 -261 l 243 110 l 263 85 l 250 85 q 229 87 240 85 q 214 104 218 89 l 32 681 q 26 706 26 697 q 81 729 26 729 l 100 729 q 133 724 119 729 q 150 707 147 719 l 253 331 q 266 275 260 303 q 279 219 272 247 l 288 219 q 300 274 294 246 q 313 331 306 303 l 414 707 q 465 729 419 729 l 482 729 q 535 706 535 729 q 529 681 535 699 l 257 -260 q 201 -289 247 -289 l 172 -289 z "},"ỷ":{"ha":554,"x_min":26,"x_max":535,"o":"m 172 -289 q 128 -267 128 -289 q 133 -243 128 -261 l 243 110 l 263 85 l 250 85 q 229 87 240 85 q 214 104 218 89 l 32 681 q 26 706 26 697 q 81 729 26 729 l 100 729 q 133 724 119 729 q 150 707 147 719 l 253 331 q 266 275 260 303 q 279 219 272 247 l 288 219 q 300 274 294 246 q 313 331 306 303 l 414 707 q 465 729 419 729 l 482 729 q 535 706 535 729 q 529 681 535 699 l 257 -260 q 201 -289 247 -289 l 172 -289 m 290 782 q 263 789 281 782 q 244 806 244 796 q 288 858 244 836 q 331 933 331 881 q 279 971 331 971 q 234 962 247 971 q 215 953 221 953 q 194 971 207 953 q 182 999 182 989 q 218 1027 182 1013 q 290 1042 254 1042 q 371 1021 325 1042 q 417 943 417 1000 q 389 861 417 897 q 330 803 361 825 q 290 782 299 782 z "},"ỹ":{"ha":554,"x_min":26,"x_max":535,"o":"m 172 -289 q 128 -267 128 -289 q 133 -243 128 -261 l 243 110 l 263 85 l 250 85 q 229 87 240 85 q 214 104 218 89 l 32 681 q 26 706 26 697 q 81 729 26 729 l 100 729 q 133 724 119 729 q 150 707 147 719 l 253 331 q 266 275 260 303 q 279 219 272 247 l 288 219 q 300 274 294 246 q 313 331 306 303 l 414 707 q 465 729 419 729 l 482 729 q 535 706 535 729 q 529 681 535 699 l 257 -260 q 201 -289 247 -289 l 172 -289 z "},"z":{"ha":563,"x_min":47,"x_max":514,"o":"m 75 0 q 57 25 67 0 q 47 71 47 50 q 50 86 47 78 l 364 626 l 94 626 q 68 668 68 626 l 68 685 q 94 726 68 726 l 486 726 q 503 699 494 726 q 511 654 511 672 q 508 640 511 646 l 196 100 l 488 100 q 514 58 514 100 l 514 42 q 488 0 514 0 l 75 0 z "},"ź":{"ha":563,"x_min":47,"x_max":514,"o":"m 75 0 q 57 25 67 0 q 47 71 47 50 q 50 86 47 78 l 364 626 l 94 626 q 68 668 68 626 l 68 685 q 94 726 68 726 l 486 726 q 503 699 494 726 q 511 654 511 672 q 508 640 511 646 l 196 100 l 488 100 q 514 58 514 100 l 514 42 q 488 0 514 0 l 75 0 z "},"ž":{"ha":563,"x_min":47,"x_max":514,"o":"m 75 0 q 57 25 67 0 q 47 71 47 50 q 50 86 47 78 l 364 626 l 94 626 q 68 668 68 626 l 68 685 q 94 726 68 726 l 486 726 q 503 699 494 726 q 511 654 511 672 q 508 640 511 646 l 196 100 l 488 100 q 514 58 514 100 l 514 42 q 488 0 514 0 l 75 0 z "},"ż":{"ha":563,"x_min":47,"x_max":514,"o":"m 75 0 q 57 25 67 0 q 47 71 47 50 q 50 86 47 78 l 364 626 l 94 626 q 68 668 68 626 l 68 685 q 94 726 68 726 l 486 726 q 503 699 494 726 q 511 654 511 672 q 508 640 511 646 l 196 100 l 488 100 q 514 58 514 100 l 514 42 q 488 0 514 0 l 75 0 z "},"ẓ":{"ha":563,"x_min":47,"x_max":514,"o":"m 75 0 q 57 25 67 0 q 47 71 47 50 q 50 86 47 78 l 364 626 l 94 626 q 68 668 68 626 l 68 685 q 94 726 68 726 l 486 726 q 503 699 494 726 q 511 654 511 672 q 508 640 511 646 l 196 100 l 488 100 q 514 58 514 100 l 514 42 q 488 0 514 0 l 75 0 z "},"ﬁ":{"ha":750,"x_min":67,"x_max":638,"o":"m 322 626 l 322 726 l 576 726 l 567 626 l 322 626 m 571 -3 q 515 28 515 -3 l 515 699 q 571 726 515 726 l 576 726 q 632 699 632 726 l 632 28 q 576 -3 632 -3 l 571 -3 m 190 -3 q 135 28 135 -3 l 135 626 l 94 626 q 67 668 67 626 l 67 685 q 94 726 67 726 l 135 726 l 135 874 q 192 1019 135 989 q 293 1050 250 1050 q 357 1040 325 1050 q 389 1007 389 1029 q 381 970 389 999 q 358 942 374 942 q 340 946 350 942 q 308 950 331 950 q 269 935 286 950 q 251 863 251 921 l 251 726 l 344 726 q 372 685 372 726 l 372 668 q 344 626 372 626 l 251 626 l 251 28 q 196 -3 251 -3 l 190 -3 m 574 843 q 513 874 513 843 l 513 944 q 576 975 513 975 q 638 944 638 975 l 638 874 q 574 843 638 843 z "},"ﬂ":{"ha":772,"x_min":67,"x_max":744,"o":"m 190 -3 q 135 28 135 -3 l 135 626 l 94 626 q 67 668 67 626 l 67 685 q 94 726 67 726 l 135 726 l 135 874 q 192 1019 135 989 q 293 1050 250 1050 q 357 1040 325 1050 q 389 1007 389 1029 q 381 970 389 999 q 358 942 374 942 q 340 946 350 942 q 308 950 331 950 q 269 935 286 950 q 251 863 251 921 l 251 726 l 344 726 q 372 685 372 726 l 372 668 q 344 626 372 626 l 251 626 l 251 28 q 196 -3 251 -3 l 190 -3 m 650 -8 q 555 22 607 -8 q 503 160 503 53 l 503 1014 q 558 1044 503 1044 l 564 1044 q 619 1014 619 1044 l 619 171 q 635 107 619 122 q 671 92 650 92 q 699 95 690 92 q 715 99 708 99 q 738 70 731 99 q 744 33 744 42 q 710 1 744 11 q 650 -8 676 -8 z "},"ª":{"ha":390,"x_min":40,"x_max":338,"o":"m 149 611 q 70 640 100 611 q 40 719 40 668 q 108 823 40 801 q 243 846 175 844 l 243 851 q 179 908 243 908 q 112 897 143 908 q 75 885 81 885 q 60 909 68 885 q 51 940 51 933 q 94 969 51 956 q 183 983 136 983 q 293 948 257 983 q 329 850 329 913 l 329 718 q 333 654 329 675 q 338 631 338 633 q 309 618 338 621 q 275 615 281 615 q 249 653 256 615 q 205 622 229 633 q 149 611 181 611 m 171 682 q 243 718 215 682 l 243 782 q 167 773 206 781 q 129 722 129 765 q 171 682 129 682 z "},"º":{"ha":406,"x_min":46,"x_max":361,"o":"m 204 611 q 46 796 46 611 q 204 983 46 983 q 361 796 361 983 q 204 611 361 611 m 203 689 q 271 797 271 689 q 203 906 271 906 q 136 797 136 906 q 203 689 136 689 z "},"Δ":{"ha":807,"x_min":46,"x_max":760,"o":"m 81 0 q 46 39 46 0 l 46 42 q 56 93 46 65 l 340 954 q 382 986 350 986 l 425 986 q 467 954 454 986 l 751 93 q 757 69 754 81 q 760 46 760 58 l 760 42 q 724 0 760 0 l 81 0 m 165 94 l 636 94 l 406 846 l 397 846 l 165 94 z "}}}
